<?xml version="1.0" encoding="utf-8"?>
<!-- Generator: Adobe Illustrator 22.1.0, SVG Export Plug-In . SVG Version: 6.00 Build 0)  -->
<svg version="1.1" id="Capa_1" xmlns="http://www.w3.org/2000/svg" xmlns:xlink="http://www.w3.org/1999/xlink" x="0px" y="0px"
	 viewBox="0 0 255.9 255.9" style="enable-background:new 0 0 255.9 255.9;" xml:space="preserve">
<style type="text/css">
	.st0{fill:#515352;}
</style>
<g>
	<path class="st0" d="M127.9,38.8c-30.8,0-55.8,25-55.8,55.8s25,55.8,55.8,55.8s55.8-25,55.8-55.8S158.7,38.8,127.9,38.8z
		 M127.9,135.3c-22.5,0-40.8-18.3-40.8-40.8s18.3-40.8,40.8-40.8s40.8,18.3,40.8,40.8S150.4,135.3,127.9,135.3z"/>
	<path class="st0" d="M127.9,0C75.8,0,33.4,42.4,33.4,94.6c0,30.1,25.2,74.9,40.3,98.9c9.9,15.8,20.5,30.9,29.9,42.4
		c15.1,18.5,20.5,20,24.4,20c3.9,0,9-1.5,24.1-20c9.4-11.6,20.1-26.6,29.9-42.3c15.1-24.1,40.5-69,40.5-98.9
		C222.5,42.4,180.1,0,127.9,0z M171.6,181.8c-19.4,31.5-37.2,52.8-43.7,58.2c-6.6-5.3-24.1-26-43.7-58.1
		c-22.7-37-35.7-68.8-35.7-87.3c0-43.9,35.7-79.6,79.6-79.6s79.6,35.7,79.6,79.6C207.5,112.9,194.4,144.7,171.6,181.8z"/>
</g>
</svg>
