<svg xmlns="http://www.w3.org/2000/svg" xmlns:xlink="http://www.w3.org/1999/xlink" width="640" height="640"><defs><path d="M339.1 74.45v88.21c0 4.79 2.59 9.29 6.79 11.69 10.11 5.83 90.99 52.5 101.1 58.34 2.1 1.2 4.39 1.8 6.79 1.8 2.3 0 4.7-.6 6.79-1.8 7.64-4.41 68.7-39.65 76.33-44.06 8.99-5.19 8.99-18.18 0-23.37-17.75-10.25-159.77-92.25-177.52-102.5-2.2-1.2-4.5-1.8-6.7-1.8-9.05 3.73-13.58 8.23-13.58 13.49z" id="a"/><path d="M313.02 174.35c4.2-2.4 6.8-6.9 6.8-11.69V74.45c0-10.39-11.29-16.89-20.28-11.69C281.8 73 139.95 154.92 122.22 165.16c-9 5.19-9 18.18 0 23.37 7.63 4.41 68.69 39.65 76.32 44.06 4.29 2.4 9.39 2.4 13.59 0 20.17-11.65 90.8-52.42 100.89-58.24z" id="b"/><path d="M195.04 260.76c0-4.8-2.6-9.29-6.79-11.69-7.63-4.4-68.69-39.65-76.32-44.05-8.99-5.2-20.28 1.29-20.28 11.68v205.6c0 10.39 11.29 16.88 20.28 11.69 7.63-4.41 68.69-39.65 76.32-44.06 4.29-2.5 6.79-6.89 6.79-11.79V260.76z" id="d"/><path d="M546.89 433.69c8.99 5.19 20.28-1.3 20.28-11.69V216.9c0-10.39-11.29-16.88-20.28-11.68-7.63 4.4-68.69 39.65-76.33 44.05-4.19 2.4-6.79 6.89-6.79 11.69v116.98c.1 4.8 2.6 9.29 6.79 11.69 15.27 8.81 68.7 39.65 76.33 44.06z" id="f"/><path d="M345.89 465.65c-4.2 2.4-6.79 6.9-6.79 11.69v88.21c0 10.39 11.29 16.89 20.28 11.69 17.85-10.31 160.66-92.79 178.52-103.1 8.99-5.19 8.99-18.18 0-23.37l-76.33-44.06c-4.29-2.39-9.39-2.39-13.58 0-20.42 11.79-91.89 53.05-102.1 58.94z" id="h"/><path d="M211.13 406.81c-4.2-2.4-9.29-2.4-13.49 0-7.63 4.42-68.69 39.74-76.32 44.16-8.99 5.19-8.99 18.18 0 23.37 17.82 10.29 160.39 92.61 178.22 102.9 8.99 5.2 20.28-1.3 20.28-11.69v-88.21c0-4.79-2.6-9.29-6.8-11.69-20.38-11.76-91.7-52.95-101.89-58.84z" id="j"/><linearGradient id="c" gradientUnits="userSpaceOnUse" x1="211.14" y1="115.05" x2="458.89" y2="518.64"><stop offset="25.44%" stop-color="#caad6e"/><stop offset="40.74%" stop-color="#c5a86a"/><stop offset="59.29%" stop-color="#b7995e"/><stop offset="79.52%" stop-color="#9f814a"/><stop offset="100%" stop-color="#80602f"/></linearGradient><linearGradient id="e" gradientUnits="userSpaceOnUse" x1="60.91" y1="207.27" x2="308.66" y2="610.86"><stop offset="25.44%" stop-color="#caad6e"/><stop offset="40.74%" stop-color="#c5a86a"/><stop offset="59.29%" stop-color="#b7995e"/><stop offset="79.52%" stop-color="#9f814a"/><stop offset="100%" stop-color="#80602f"/></linearGradient><linearGradient id="g" gradientUnits="userSpaceOnUse" x1="350.89" y1="29.26" x2="598.64" y2="432.85"><stop offset="25.44%" stop-color="#caad6e"/><stop offset="40.74%" stop-color="#c5a86a"/><stop offset="59.29%" stop-color="#b7995e"/><stop offset="79.52%" stop-color="#9f814a"/><stop offset="100%" stop-color="#80602f"/></linearGradient><linearGradient id="i" gradientUnits="userSpaceOnUse" x1="200.85" y1="121.37" x2="448.6" y2="524.96"><stop offset="25.44%" stop-color="#caad6e"/><stop offset="40.74%" stop-color="#c5a86a"/><stop offset="59.29%" stop-color="#b7995e"/><stop offset="79.52%" stop-color="#9f814a"/><stop offset="100%" stop-color="#80602f"/></linearGradient><linearGradient id="k" gradientUnits="userSpaceOnUse" x1="57.27" y1="209.51" x2="305.02" y2="613.1"><stop offset="25.44%" stop-color="#caad6e"/><stop offset="40.74%" stop-color="#c5a86a"/><stop offset="59.29%" stop-color="#b7995e"/><stop offset="79.52%" stop-color="#9f814a"/><stop offset="100%" stop-color="#80602f"/></linearGradient></defs><use xlink:href="#a" fill="#fff"/><use xlink:href="#a" fill-opacity="0" stroke="#000" stroke-opacity="0"/><use xlink:href="#b" fill="url(#c)"/><use xlink:href="#b" fill-opacity="0" stroke="#000" stroke-opacity="0"/><use xlink:href="#d" fill="url(#e)"/><use xlink:href="#d" fill-opacity="0" stroke="#000" stroke-opacity="0"/><use xlink:href="#f" fill="url(#g)"/><use xlink:href="#f" fill-opacity="0" stroke="#000" stroke-opacity="0"/><use xlink:href="#h" fill="url(#i)"/><use xlink:href="#h" fill-opacity="0" stroke="#000" stroke-opacity="0"/><use xlink:href="#j" fill="url(#k)"/><use xlink:href="#j" fill-opacity="0" stroke="#000" stroke-opacity="0"/></svg>