<svg version="1.1" id="Слой_1" xmlns="http://www.w3.org/2000/svg" x="0" y="0" width="1500.7" height="893.9" xml:space="preserve"><style>.st0{fill:#fff}</style><path class="st0" d="M773.6 0C766.5 0 760 5.6 760 13.5v88.3c0 4.8 2.6 9.3 6.8 11.7L868 171.9c2.1 1.2 4.4 1.8 6.8 1.8 2.3 0 4.7-.6 6.8-1.8l76.4-44.1c9-5.2 9-18.2 0-23.4L780.3 1.8C778.1.6 775.8 0 773.6 0z"/><linearGradient id="SVGID_1_" gradientUnits="userSpaceOnUse" x1="631.91" y1="839.856" x2="879.91" y2="435.856" gradientTransform="matrix(1 0 0 -1 0 894)"><stop offset=".254" stop-color="#caad6e"/><stop offset=".407" stop-color="#c5a86a"/><stop offset=".593" stop-color="#b7995e"/><stop offset=".795" stop-color="#9f814a"/><stop offset="1" stop-color="#80602f"/></linearGradient><path d="M632.9 171.8l101-58.3c4.2-2.4 6.8-6.9 6.8-11.7V13.5c0-10.4-11.3-16.9-20.3-11.7L542.9 104.3c-9 5.2-9 18.2 0 23.4l76.4 44.1c4.3 2.4 9.4 2.4 13.6 0z" fill="url(#SVGID_1_)"/><linearGradient id="SVGID_2_" gradientUnits="userSpaceOnUse" x1="481.533" y1="747.545" x2="729.533" y2="343.545" gradientTransform="matrix(1 0 0 -1 0 894)"><stop offset=".254" stop-color="#caad6e"/><stop offset=".407" stop-color="#c5a86a"/><stop offset=".593" stop-color="#b7995e"/><stop offset=".795" stop-color="#9f814a"/><stop offset="1" stop-color="#80602f"/></linearGradient><path d="M615.8 317.5V200c0-4.8-2.6-9.3-6.8-11.7l-76.4-44.1c-9-5.2-20.3 1.3-20.3 11.7v205.8c0 10.4 11.3 16.9 20.3 11.7l76.4-44.1c4.3-2.5 6.8-6.9 6.8-11.8z" fill="url(#SVGID_2_)"/><linearGradient id="SVGID_3_" gradientUnits="userSpaceOnUse" x1="771.805" y1="925.732" x2="1019.805" y2="521.732" gradientTransform="matrix(1 0 0 -1 0 894)"><stop offset=".254" stop-color="#caad6e"/><stop offset=".407" stop-color="#c5a86a"/><stop offset=".593" stop-color="#b7995e"/><stop offset=".795" stop-color="#9f814a"/><stop offset="1" stop-color="#80602f"/></linearGradient><path d="M891.6 329l76.4 44.1c9 5.2 20.3-1.3 20.3-11.7V156.1c0-10.4-11.3-16.9-20.3-11.7l-76.4 44.1c-4.2 2.4-6.8 6.9-6.8 11.7v117.1c.1 4.8 2.6 9.3 6.8 11.7z" fill="url(#SVGID_3_)"/><linearGradient id="SVGID_4_" gradientUnits="userSpaceOnUse" x1="621.611" y1="833.534" x2="869.611" y2="429.534" gradientTransform="matrix(1 0 0 -1 0 894)"><stop offset=".254" stop-color="#caad6e"/><stop offset=".407" stop-color="#c5a86a"/><stop offset=".593" stop-color="#b7995e"/><stop offset=".795" stop-color="#9f814a"/><stop offset="1" stop-color="#80602f"/></linearGradient><path d="M869 346.1l-102.2 59c-4.2 2.4-6.8 6.9-6.8 11.7v88.3c0 10.4 11.3 16.9 20.3 11.7L959 413.6c9-5.2 9-18.2 0-23.4l-76.4-44.1c-4.3-2.4-9.4-2.4-13.6 0z" fill="url(#SVGID_4_)"/><linearGradient id="SVGID_5_" gradientUnits="userSpaceOnUse" x1="477.885" y1="745.306" x2="725.885" y2="341.306" gradientTransform="matrix(1 0 0 -1 0 894)"><stop offset=".254" stop-color="#caad6e"/><stop offset=".407" stop-color="#c5a86a"/><stop offset=".593" stop-color="#b7995e"/><stop offset=".795" stop-color="#9f814a"/><stop offset="1" stop-color="#80602f"/></linearGradient><path d="M733.9 405.1l-102-58.9c-4.2-2.4-9.3-2.4-13.5 0L542 390.4c-9 5.2-9 18.2 0 23.4l178.4 103c9 5.2 20.3-1.3 20.3-11.7v-88.3c0-4.8-2.6-9.3-6.8-11.7z" fill="url(#SVGID_5_)"/><path class="st0" d="M32.3 862.4h45.6v28.9H0V765.7h32.3v96.7zm121 .7v28.2H89.5v-28.2h16v-69.5H90.8v-28H152v28h-14.7v69.5h16zM231 764c25.3.2 51.7 13.3 57.8 44.5h-31.6c-5.2-10.8-13.5-15.1-26.2-15.1-20.3 0-31.2 15.8-31.2 35 0 20.8 12.2 34.5 31.2 34.5 12.9 0 21.2-3.4 26.9-15.4h-26.7v-27.8h59.4c.7 12.6.7 24.6-3.6 36.8-9 26.2-32.8 36.3-56 36.3-31.9 0-64.3-21.4-64.4-64.3.1-42.9 32.4-64.5 64.4-64.5zm163.4 30.4h-46.5v17.8h42.7v28.5h-42.7v22.1H396v28.5h-80V765.7h78.4v28.7zm135.3 92.2v4.7h-35.9l-21.5-37h-16.7v37h-32.1V765.7h55.1c49.4.2 58.3 59.6 26.6 81.1l24.5 39.8zm-51.1-92.2c-7.5-.2-15.4 0-23 0v31.4h23c17.4 0 18.3-31.3 0-31.4zm153 35.1v61.7h-33.2V765.1h11.7l63.5 62.1v-61.6h32.8v125.8H695l-63.4-61.9zm185.2-35.1h-46.5v17.8H813v28.5h-42.7v22.1h48.1v28.5h-80V765.7h78.4v28.7zm16.9 0v-28.7H927v28.7h-30.7v96.9h-31.8v-96.9h-30.8zm193.4-26.8l21.4 66.8h.5l5.6-21.4 16-47.4h31.9v4.8l-43.6 122h-18.5l-20.1-60.5h-.5l-20.1 60.5h-17.8l-44.1-122v-4.8h32.5l16.2 47.4 5.6 21.4h.5l21-66.8h13.5zm86.5 61c0-86.9 128.9-86.9 128.9 0 0 87.1-128.9 87.1-128.9 0zm96 0c0-45.2-63-45.2-63 0 0 45.6 63 45.6 63 0zm163.2 58v4.7h-35.9l-21.5-37h-16.7v37h-32.1V765.7h55.1c49.4.2 58.3 59.6 26.6 81.1l24.5 39.8zm-51.2-92.2c-7.5-.2-15.4 0-23 0v31.4h23c17.4 0 18.3-31.3 0-31.4zm70.7 96.9V765.7h32.7v47.6h2.3c32.1 0 30.5-24 30.5-47.6h33c0 25.7.7 49.4-24.2 65.3l34.1 55.3v5H1465l-27.6-48.6c-4.3.7-8.3.7-12.4.7v47.9h-32.7z"/></svg>