<svg width="23" height="20" viewBox="0 0 23 20" fill="none" xmlns="http://www.w3.org/2000/svg">
<g opacity="0.5">
<path d="M0.740737 10C0.740737 6.73265 3.39924 4.07415 6.66664 4.07415H14.6614L11.9603 6.77525C11.8155 6.92006 11.8155 7.15413 11.9603 7.29895C12.0325 7.37117 12.1274 7.40747 12.2222 7.40747C12.317 7.40747 12.4118 7.37117 12.484 7.29895L15.817 3.966C15.8514 3.93193 15.8784 3.89082 15.8973 3.84526C15.9347 3.75489 15.9347 3.65267 15.8973 3.5623C15.8784 3.51674 15.8514 3.476 15.817 3.44156L12.484 0.108611C12.3392 -0.0362035 12.1051 -0.0362035 11.9603 0.108611C11.8155 0.253425 11.8155 0.487498 11.9603 0.632312L14.6614 3.33341H6.66664C2.99073 3.33341 0 6.32414 0 10C0 11.7726 0.694812 13.4445 1.95629 14.7071C2.02851 14.7793 2.12369 14.8156 2.21851 14.8156C2.31332 14.8156 2.40814 14.7793 2.48036 14.7071C2.62517 14.5626 2.62517 14.3282 2.48036 14.1834C1.35851 13.0608 0.740737 11.5752 0.740737 10Z" fill="black"/>
<path d="M20.6269 5.6849C20.4943 5.52897 20.2599 5.51008 20.1051 5.64341C19.9491 5.77601 19.9306 6.00971 20.0636 6.16526C20.978 7.23748 21.4814 8.59933 21.4814 10.0001C21.4814 13.2675 18.8229 15.926 15.5555 15.926H6.81995L9.52105 13.2249C9.66586 13.08 9.66586 12.846 9.52105 12.7012C9.37624 12.5563 9.14216 12.5563 8.99735 12.7012L5.66403 16.0345C5.51922 16.1793 5.51922 16.4134 5.66403 16.5582L8.99735 19.8915C9.06957 19.9637 9.16438 20 9.2592 20C9.35401 20 9.44883 19.9637 9.52105 19.8915C9.66586 19.7467 9.66586 19.5126 9.52105 19.3678L6.81995 16.6667H15.5555C19.2314 16.6667 22.2221 13.676 22.2221 10.0001C22.2221 8.4234 21.6558 6.89045 20.6269 5.6849Z" fill="black"/>
</g>
</svg>
