<svg width="34" height="30" viewBox="0 0 34 30" fill="none" xmlns="http://www.w3.org/2000/svg">
<path d="M1.11111 15.0001C1.11111 10.099 5.09887 6.11122 9.99995 6.11122H21.9921L17.9405 10.1629C17.7232 10.3801 17.7232 10.7312 17.9405 10.9484C18.0488 11.0568 18.191 11.1112 18.3332 11.1112C18.4755 11.1112 18.6177 11.0568 18.726 10.9484L23.7254 5.949C23.7771 5.89789 23.8177 5.83622 23.846 5.76789C23.9021 5.63233 23.9021 5.479 23.846 5.34345C23.8177 5.27511 23.7771 5.214 23.7254 5.16234L18.726 0.162916C18.5088 -0.0543053 18.1577 -0.0543053 17.9405 0.162916C17.7232 0.380137 17.7232 0.731246 17.9405 0.948468L21.9921 5.00012H9.99995C4.48609 5.00012 0 9.48621 0 15.0001C0 17.6589 1.04222 20.1667 2.93443 22.0606C3.04276 22.1689 3.18554 22.2234 3.32776 22.2234C3.46998 22.2234 3.61221 22.1689 3.72054 22.0606C3.93776 21.8439 3.93776 21.4923 3.72054 21.275C2.03777 19.5912 1.11111 17.3628 1.11111 15.0001Z" fill="black"/>
<path d="M30.9404 8.52737C30.7415 8.29349 30.3898 8.26515 30.1576 8.46515C29.9237 8.66404 29.8959 9.01459 30.0954 9.24793C31.4671 10.8563 32.222 12.899 32.222 15.0001C32.222 19.9012 28.2343 23.889 23.3332 23.889H10.2299L14.2816 19.8373C14.4988 19.6201 14.4988 19.269 14.2816 19.0518C14.0644 18.8345 13.7132 18.8345 13.496 19.0518L8.49605 24.0517C8.27882 24.269 8.27882 24.6201 8.49605 24.8373L13.496 29.8373C13.6044 29.9456 13.7466 30.0001 13.8888 30.0001C14.031 30.0001 14.1732 29.9456 14.2816 29.8373C14.4988 29.6201 14.4988 29.2689 14.2816 29.0517L10.2299 25.0001H23.3332C28.8471 25.0001 33.3332 20.514 33.3332 15.0001C33.3332 12.6351 32.4837 10.3357 30.9404 8.52737Z" fill="black"/>
</svg>
