<svg width="9" height="13" viewBox="0 0 9 13" fill="none" xmlns="http://www.w3.org/2000/svg">
<path d="M8.26593 3.48706C8.26593 3.48706 8.19433 0.930078 8.19109 0.899301C8.18609 0.851873 8.17374 0.805 8.15395 0.760097C8.10353 0.645759 8.01159 0.557897 7.89508 0.512689L7.13746 0.218796C7.0209 0.173588 6.89377 0.176474 6.77946 0.226872C6.66512 0.277297 6.57726 0.369239 6.53205 0.48577L6.01214 1.8258C5.93283 1.80673 5.85252 1.79036 5.77129 1.77665V1.27132C5.77129 0.570302 5.20098 0 4.49997 0C3.79896 0 3.22863 0.570302 3.22863 1.27132V1.77668C3.14717 1.79042 3.06664 1.80684 2.98713 1.82597L2.4672 0.48577C2.42199 0.369239 2.33413 0.277297 2.21979 0.226872C2.10548 0.176447 1.97835 0.173561 1.86179 0.218796L1.10416 0.512689C0.987659 0.557897 0.895717 0.645732 0.845292 0.760097C0.826198 0.80339 0.814043 0.848515 0.808687 0.894222C0.804913 0.926442 0.733424 3.488 0.733424 3.488C0.411363 4.02736 0.225952 4.65733 0.225952 5.32987V12.2114C0.225952 12.6462 0.579678 13 1.0145 13H7.98542C8.42023 13 8.77396 12.6462 8.77396 12.2114V5.3299C8.77396 4.65694 8.58836 4.02661 8.26593 3.48706ZM7.83206 2.90318C7.74922 2.81241 7.66172 2.72599 7.57011 2.64406L7.80622 2.03538L7.83206 2.90318ZM6.92013 0.636352C6.93043 0.609821 6.96043 0.596639 6.98687 0.606907L7.7445 0.9008C7.76099 0.907183 7.76915 0.919171 7.77306 0.928052C7.777 0.93696 7.78033 0.951058 7.77392 0.967543L7.22854 2.37362C6.97761 2.1984 6.70356 2.05411 6.41177 1.94669L6.92013 0.636352ZM4.5 0.416279C4.92516 0.416279 5.27872 0.728238 5.34407 1.13528C5.11762 0.933935 4.82039 0.812271 4.49997 0.812271C4.18582 0.812271 3.88923 0.925638 3.65634 1.13275C3.72275 0.726962 4.0757 0.416279 4.5 0.416279ZM5.2773 1.728C5.24178 1.72697 3.75813 1.72697 3.72258 1.728C3.76446 1.6365 3.82219 1.55228 3.89537 1.47893C4.05686 1.31747 4.27157 1.22855 4.49994 1.22855C4.83976 1.22855 5.14087 1.43164 5.2773 1.728ZM1.22619 0.928052C1.23013 0.919144 1.23829 0.907183 1.25474 0.9008L2.01237 0.606907C2.03887 0.596611 2.06885 0.609848 2.07911 0.636352L2.58756 1.94694C2.29577 2.05439 2.02175 2.19873 1.77085 2.37401L1.2253 0.967543C1.21892 0.951058 1.22225 0.936988 1.22619 0.928052ZM1.19305 2.03544L1.4293 2.64451C1.33767 2.72652 1.25014 2.81299 1.16727 2.90382L1.19305 2.03544ZM8.35768 12.2115C8.35768 12.4167 8.19067 12.5837 7.98542 12.5837H1.01452C0.80927 12.5837 0.642259 12.4167 0.642259 12.2115V5.3299C0.642259 3.57239 2.07206 2.14259 3.82959 2.14259H5.1704C6.92787 2.14259 8.35771 3.57239 8.35771 5.3299V12.2115H8.35768Z" fill="black"/>
<path d="M1.67576 7.04148C1.33976 7.04148 1.06641 7.31484 1.06641 7.65083V11.573C1.06641 11.909 1.33976 12.1823 1.67576 12.1823H7.32419C7.66018 12.1823 7.93354 11.909 7.93354 11.573V7.65083C7.93354 7.31484 7.66018 7.04148 7.32419 7.04148H1.67576ZM7.32419 11.7661H1.67576C1.5693 11.7661 1.48269 11.6794 1.48269 11.573V8.95689H6.72228V9.4302H7.13856V8.95689H7.51726V11.573C7.51726 11.6794 7.43064 11.7661 7.32419 11.7661ZM7.51726 7.65083V8.54061H1.48269V7.65083C1.48269 7.54437 1.5693 7.45776 1.67576 7.45776H7.32419C7.43064 7.45776 7.51726 7.54437 7.51726 7.65083Z" fill="black"/>
<path d="M5.82112 2.99822H3.17883V4.18678H5.82112V2.99822ZM5.40484 3.7705H3.59511V3.4145H5.40484V3.7705Z" fill="black"/>
</svg>
