<svg width="15" height="15" viewBox="0 0 15 15" fill="none" xmlns="http://www.w3.org/2000/svg">
<g clip-path="url(#clip0)">
<path d="M14.6162 4.9735C14.3541 4.70215 13.999 4.55283 13.6166 4.55283H1.3831C1.00094 4.55283 0.645802 4.70233 0.383504 4.9735C0.124018 5.24172 -0.0121551 5.59522 0.000852834 5.97869L0.362761 12.7537C0.388777 13.4793 1.00903 14.0696 1.7455 14.0696H13.2381C13.9609 14.0696 14.5677 13.4993 14.62 12.7634L14.9992 5.96879C15.0117 5.5954 14.8757 5.24187 14.6162 4.9735ZM13.6344 12.7009C13.6191 12.9143 13.4451 13.0817 13.2381 13.0817H1.7455C1.53819 13.0817 1.35708 12.9152 1.3497 12.7096L0.987934 5.93589C0.984477 5.83232 1.02201 5.73453 1.09381 5.66026C1.16823 5.58321 1.27115 5.54073 1.38327 5.54073V5.5409H13.6166C13.7288 5.5409 13.8317 5.58338 13.9063 5.66044C13.9781 5.73453 14.0156 5.8325 14.0127 5.92502L13.6344 12.7009Z" fill="black"/>
<path d="M12.9415 2.06641H7.5153L6.20501 1.15375C6.04283 1.01116 5.82468 0.930326 5.59827 0.930326H2.02536C1.38981 0.930326 0.872803 1.45475 0.872803 2.09934V5.04659H1.86071V2.09934C1.86071 1.99774 1.93298 1.91823 2.02536 1.91823H5.57753C5.58857 1.92778 5.60026 1.93651 5.61227 1.94489L7.07766 2.96572C7.16066 3.02352 7.2591 3.05446 7.36003 3.05446H12.9415C13.0339 3.05446 13.1062 3.13398 13.1062 3.23558V5.04673H14.0941V3.2354C14.0941 2.59083 13.5769 2.06641 12.9415 2.06641Z" fill="black"/>
</g>
<defs>
<clipPath id="clip0">
<rect width="15" height="15" fill="white"/>
</clipPath>
</defs>
</svg>
