<svg width="37" height="30" viewBox="0 0 37 30" fill="none" xmlns="http://www.w3.org/2000/svg">
<path d="M9.76413 1.1358C13.6383 1.1358 17.5053 3.5706 18.3285 6.4038C18.9357 3.7062 22.8945 1.1628 26.8821 1.1628C29.9841 1.1628 33.1029 2.7012 34.6761 6.903C38.5431 17.2344 19.6761 27.1548 18.3279 28.3824C16.9797 26.8374 -1.88607 17.412 1.98333 6.909C3.53133 2.7072 6.65013 1.1352 9.76413 1.1358ZM9.76413 0H9.76293C5.67453 0 2.45433 2.3742 0.929127 6.513C-2.54367 15.939 10.0659 24.2004 15.4491 27.7266C16.3161 28.2948 17.2983 28.9386 17.4915 29.139L18.2439 30L19.0815 29.2248C19.2207 29.1024 19.8645 28.6902 20.4873 28.2918C25.6497 24.987 39.3621 16.2072 35.7279 6.501C34.1883 2.3862 30.9639 0.0264001 26.8827 0.0264001C23.4363 0.0264001 20.0271 1.6842 18.2955 3.9588C16.5063 1.65 13.1403 0.0006 9.76413 0Z" fill="black"/>
</svg>
