<svg width="13" height="13" viewBox="0 0 13 13" fill="none" xmlns="http://www.w3.org/2000/svg">
<path d="M8.16309 4.1022C8.31876 4.1022 8.47094 4.05603 8.60038 3.96954C8.72982 3.88305 8.8307 3.76013 8.89028 3.6163C8.94985 3.47247 8.96544 3.31421 8.93507 3.16153C8.9047 3.00884 8.82973 2.8686 8.71966 2.75852C8.60958 2.64844 8.46933 2.57347 8.31664 2.5431C8.16396 2.51273 8.0057 2.52832 7.86187 2.58789C7.71805 2.64747 7.59512 2.74835 7.50863 2.87779C7.42214 3.00723 7.37598 3.15941 7.37598 3.31509C7.37622 3.52377 7.45922 3.72383 7.60678 3.87139C7.75434 4.01895 7.95441 4.10195 8.16309 4.1022ZM8.16309 2.88345C8.24846 2.88345 8.33191 2.90876 8.40289 2.95619C8.47387 3.00362 8.5292 3.07103 8.56187 3.1499C8.59454 3.22878 8.60309 3.31557 8.58643 3.3993C8.56978 3.48303 8.52867 3.55994 8.4683 3.6203C8.40793 3.68067 8.33102 3.72178 8.24729 3.73843C8.16356 3.75509 8.07678 3.74654 7.9979 3.71387C7.91903 3.6812 7.85162 3.62588 7.80419 3.55489C7.75676 3.48391 7.73144 3.40046 7.73144 3.31509C7.73155 3.20064 7.77706 3.09091 7.85799 3.00999C7.93891 2.92906 8.04864 2.88355 8.16309 2.88345Z" fill="black"/>
<path d="M9.73303 5.47328C9.88871 5.47328 10.0409 5.42712 10.1703 5.34063C10.2998 5.25414 10.4006 5.13121 10.4602 4.98739C10.5198 4.84356 10.5354 4.6853 10.505 4.53262C10.4746 4.37993 10.3997 4.23968 10.2896 4.1296C10.1795 4.01952 10.0393 3.94456 9.88659 3.91419C9.7339 3.88382 9.57564 3.8994 9.43182 3.95898C9.28799 4.01855 9.16506 4.11944 9.07857 4.24888C8.99209 4.37832 8.94592 4.5305 8.94592 4.68617C8.94616 4.89485 9.02917 5.09492 9.17673 5.24248C9.32429 5.39003 9.52435 5.47304 9.73303 5.47328ZM9.73303 4.25453C9.8184 4.25453 9.90185 4.27985 9.97284 4.32728C10.0438 4.37471 10.0991 4.44212 10.1318 4.52099C10.1645 4.59986 10.173 4.68665 10.1564 4.77038C10.1397 4.85411 10.0986 4.93102 10.0382 4.99139C9.97788 5.05175 9.90097 5.09286 9.81724 5.10952C9.73351 5.12617 9.64672 5.11763 9.56785 5.08496C9.48898 5.05229 9.42156 4.99696 9.37414 4.92598C9.32671 4.855 9.30139 4.77154 9.30139 4.68617C9.3015 4.57173 9.34701 4.462 9.42793 4.38108C9.50886 4.30015 9.61859 4.25464 9.73303 4.25453Z" fill="black"/>
<path d="M7.68066 5.60025C7.68066 5.69566 7.70896 5.78893 7.76197 5.86827C7.81498 5.9476 7.89032 6.00944 7.97847 6.04595C8.06662 6.08246 8.16362 6.09202 8.2572 6.0734C8.35078 6.05479 8.43674 6.00884 8.50421 5.94137C8.57168 5.87391 8.61763 5.78795 8.63624 5.69437C8.65485 5.60079 8.6453 5.50379 8.60879 5.41564C8.57227 5.32748 8.51044 5.25214 8.43111 5.19913C8.35177 5.14612 8.2585 5.11783 8.16309 5.11783C8.03519 5.11799 7.91258 5.16887 7.82214 5.2593C7.7317 5.34974 7.68083 5.47235 7.68066 5.60025ZM8.29004 5.60025C8.29004 5.62536 8.28259 5.6499 8.26864 5.67078C8.25469 5.69166 8.23487 5.70793 8.21167 5.71754C8.18847 5.72715 8.16295 5.72966 8.13832 5.72476C8.11369 5.71986 8.09107 5.70777 8.07332 5.69002C8.05556 5.67226 8.04347 5.64964 8.03857 5.62502C8.03367 5.60039 8.03619 5.57486 8.0458 5.55167C8.05541 5.52847 8.07168 5.50864 8.09255 5.49469C8.11343 5.48074 8.13798 5.4733 8.16309 5.4733C8.19674 5.47335 8.229 5.48674 8.2528 5.51054C8.27659 5.53434 8.28999 5.5666 8.29004 5.60025Z" fill="black"/>
<path d="M2.47815 4.40689H4.68206C4.72919 4.40689 4.7744 4.38817 4.80773 4.35483C4.84107 4.3215 4.85979 4.27629 4.85979 4.22916C4.85979 4.18202 4.84107 4.13681 4.80773 4.10348C4.7744 4.07015 4.72919 4.05142 4.68206 4.05142H2.47815C2.43101 4.05142 2.3858 4.07015 2.35247 4.10348C2.31914 4.13681 2.30042 4.18202 2.30042 4.22916C2.30042 4.27629 2.31914 4.3215 2.35247 4.35483C2.3858 4.38817 2.43101 4.40689 2.47815 4.40689Z" fill="black"/>
<path d="M3.70074 6.65934C3.66788 6.62902 3.6248 6.61218 3.58008 6.61218C3.53537 6.61218 3.49229 6.62902 3.45943 6.65934C3.20552 6.89415 2.71904 7.50078 2.6969 8.11057C2.69578 8.12712 2.69568 8.14246 2.69568 8.15901C2.69568 8.39357 2.78886 8.61852 2.95472 8.78438C3.12057 8.95024 3.34553 9.04342 3.58008 9.04342C3.81464 9.04342 4.0396 8.95024 4.20545 8.78438C4.37131 8.61852 4.46449 8.39357 4.46449 8.15901C4.46449 8.14246 4.46449 8.12712 4.46358 8.11625C4.44113 7.50078 3.95475 6.89415 3.70074 6.65934ZM3.58008 8.68703C3.43995 8.68701 3.30555 8.63138 3.20639 8.53237C3.10722 8.43336 3.05139 8.29904 3.05115 8.15891C3.05115 8.15068 3.05115 8.14296 3.05186 8.12905C3.06598 7.74078 3.3473 7.30467 3.57998 7.04396C3.81276 7.30477 4.09409 7.74159 4.10811 8.13474C4.10862 8.14296 4.10811 8.15068 4.10811 8.15891C4.10787 8.29888 4.05216 8.43306 3.95319 8.53205C3.85422 8.63103 3.72006 8.68677 3.58008 8.68703Z" fill="black"/>
<path d="M12.04 7.87182C12.04 7.86765 12.041 7.86369 12.041 7.85963C12.04 7.66846 11.9763 7.48291 11.8596 7.33144C11.743 7.17998 11.5799 7.07097 11.3953 7.02113C11.3095 6.86401 11.1772 6.73731 11.0165 6.65844C10.8558 6.57956 10.6747 6.55239 10.4979 6.58065C10.4111 6.41682 10.2741 6.28509 10.107 6.20474C9.93993 6.1244 9.7515 6.09967 9.56933 6.13417C9.38716 6.16868 9.22082 6.2606 9.09468 6.39649C8.96854 6.53237 8.88922 6.70507 8.86834 6.8893C8.56679 7.00284 8.32225 7.23081 8.18787 7.52366H6.85953C6.79871 7.52409 6.73798 7.5285 6.67773 7.53686V4.53366C6.67733 4.16341 6.53007 3.80845 6.26827 3.54664C6.00646 3.28484 5.6515 3.13758 5.28125 3.13718H5.02531V2.69436C5.02531 2.64723 5.00659 2.60202 4.97326 2.56869C4.93992 2.53536 4.89472 2.51663 4.84758 2.51663H4.36719V1.47511C4.36716 1.42798 4.34843 1.38278 4.3151 1.34946C4.28177 1.31613 4.23658 1.2974 4.18945 1.29737H3.75781V0.837801H4.74896C4.92637 0.83749 5.10165 0.876492 5.26219 0.952004C5.42274 1.02752 5.56455 1.13766 5.67745 1.27452C5.70749 1.31088 5.75075 1.33382 5.79771 1.33829C5.84467 1.34276 5.89148 1.32838 5.92785 1.29834C5.96421 1.26829 5.98715 1.22503 5.99162 1.17807C5.99608 1.13111 5.98171 1.0843 5.95166 1.04793C5.80541 0.870683 5.6217 0.728033 5.41375 0.630237C5.2058 0.532442 4.97876 0.48193 4.74896 0.482333H2.57288C2.52574 0.482333 2.48054 0.501058 2.44721 0.53439C2.41387 0.567722 2.39515 0.612929 2.39515 0.660067C2.39515 0.707205 2.41387 0.752413 2.44721 0.785744C2.48054 0.819076 2.52574 0.837801 2.57288 0.837801H3.40234V1.29737H2.9707C2.92357 1.2974 2.87838 1.31613 2.84506 1.34946C2.81173 1.38278 2.793 1.42798 2.79297 1.47511V2.51663H2.31258C2.26544 2.51663 2.22023 2.53536 2.1869 2.56869C2.15357 2.60202 2.13484 2.64723 2.13484 2.69436V3.13718H1.87891C1.50866 3.13758 1.15369 3.28484 0.891888 3.54664C0.630084 3.80845 0.482825 4.16341 0.482422 4.53366V12.3398C0.482422 12.3869 0.501147 12.4321 0.534479 12.4654C0.567811 12.4988 0.613018 12.5175 0.660156 12.5175H6.5C6.53252 12.5174 6.56438 12.5082 6.59202 12.4911C6.68013 12.5085 6.76972 12.5173 6.85953 12.5175H11.1211C11.4913 12.5171 11.8463 12.3698 12.1081 12.108C12.3699 11.8462 12.5172 11.4913 12.5176 11.121V8.92015C12.5167 8.72156 12.4737 8.52541 12.3914 8.34468C12.3091 8.16396 12.1893 8.00278 12.04 7.87182ZM3.14844 1.65284H3.575C3.57663 1.65284 3.57815 1.65335 3.57987 1.65335C3.5816 1.65335 3.58313 1.65335 3.58475 1.65284H4.01131V2.51612H3.14844V1.65284ZM9.08609 7.19308C9.12596 7.18295 9.16108 7.1593 9.18545 7.12616C9.20983 7.09303 9.22195 7.05246 9.21974 7.01138L9.21842 6.98741C9.21845 6.86417 9.26287 6.74507 9.34353 6.6519C9.42419 6.55873 9.53571 6.49772 9.65768 6.48005C9.77964 6.46238 9.90389 6.48922 10.0077 6.55567C10.1115 6.62211 10.1879 6.72371 10.2229 6.84187C10.2298 6.86522 10.2414 6.88691 10.2571 6.90557C10.2727 6.92424 10.292 6.9395 10.3138 6.95039C10.3356 6.96128 10.3594 6.96759 10.3837 6.96891C10.408 6.97023 10.4323 6.96653 10.4551 6.95806C10.5799 6.91106 10.718 6.91469 10.8401 6.96819C10.9622 7.02168 11.0585 7.1208 11.1085 7.24437C11.1202 7.27298 11.1391 7.29805 11.1635 7.3171C11.1878 7.33614 11.2167 7.34849 11.2473 7.35294C11.3659 7.3702 11.4747 7.42852 11.5548 7.51773C11.6348 7.60695 11.6811 7.72141 11.6854 7.84119C11.6898 7.96097 11.652 8.07848 11.5786 8.17327C11.5052 8.26805 11.4009 8.33411 11.2839 8.35993C11.2458 8.36836 11.2116 8.38905 11.1864 8.41883C11.1613 8.44861 11.1466 8.48583 11.1447 8.52476C11.1377 8.66875 11.0857 8.80692 10.9961 8.91981C10.9064 9.0327 10.7836 9.11462 10.645 9.15404C10.5063 9.19346 10.3588 9.18839 10.2231 9.13954C10.0875 9.0907 9.97062 9.00053 9.88894 8.88176C9.86504 8.84722 9.82969 8.82225 9.78915 8.81126C9.74862 8.80028 9.7055 8.80399 9.66743 8.82173C9.55265 8.87593 9.42731 8.90406 9.30038 8.9041C9.08856 8.90422 8.88398 8.82696 8.72512 8.68684C8.56626 8.54672 8.46406 8.35339 8.43774 8.14321C8.41141 7.93303 8.46278 7.72046 8.58217 7.54549C8.70157 7.37052 8.88077 7.24519 9.08609 7.19308ZM10.8418 9.8337V10.2064C10.8416 10.4825 10.7319 10.7473 10.5367 10.9425C10.3416 11.1378 10.0769 11.2477 9.80078 11.248H8.17984C7.90384 11.2477 7.63923 11.1379 7.44406 10.9427C7.2489 10.7476 7.13912 10.4829 7.13883 10.2069V9.83421C7.13912 9.55821 7.2489 9.29359 7.44406 9.09843C7.63923 8.90326 7.90384 8.79349 8.17984 8.79319H8.34041C8.45476 8.93845 8.60055 9.05588 8.76682 9.13666C8.9331 9.21744 9.11552 9.25946 9.30038 9.25957C9.43159 9.25967 9.56195 9.2384 9.68632 9.1966C9.82148 9.34471 9.99655 9.45061 10.1905 9.50157C10.3844 9.55252 10.5889 9.54636 10.7794 9.48382C10.8205 9.5961 10.8416 9.71467 10.8418 9.83421V9.8337ZM5.46305 8.91964V9.67019H0.837891V5.98397H6.32227V7.63142C6.068 7.73767 5.8508 7.91668 5.69794 8.14596C5.54507 8.37524 5.46335 8.64458 5.46305 8.92015V8.91964ZM2.49031 2.8721H4.66984V3.13718H2.49031V2.8721ZM1.87891 3.49265H5.28125C5.55725 3.49294 5.82187 3.60271 6.01703 3.79788C6.2122 3.99304 6.32197 4.25766 6.32227 4.53366V5.62851H0.837891V4.53366C0.838186 4.25766 0.947959 3.99304 1.14312 3.79788C1.33829 3.60271 1.6029 3.49294 1.87891 3.49265ZM0.837891 12.162V10.0262H5.46305V11.121C5.46314 11.3178 5.50498 11.5124 5.58581 11.6918C5.66664 11.8713 5.78462 12.0315 5.93196 12.162H0.837891ZM12.1621 11.121C12.1618 11.397 12.052 11.6616 11.8569 11.8568C11.6617 12.052 11.3971 12.1617 11.1211 12.162H6.85953C6.58353 12.1617 6.31891 12.052 6.12375 11.8568C5.92858 11.6616 5.81881 11.397 5.81852 11.121V8.92015C5.81881 8.64414 5.92858 8.37953 6.12375 8.18436C6.31891 7.9892 6.58353 7.87943 6.85953 7.87913H8.0861C8.07926 7.93068 8.0757 7.98262 8.07544 8.03462C8.07556 8.17265 8.09919 8.30966 8.14531 8.43976C7.78138 8.44896 7.43541 8.59984 7.18104 8.86028C6.92667 9.12072 6.78398 9.47016 6.78336 9.83421V10.2069C6.78376 10.5772 6.93102 10.9322 7.19283 11.194C7.45463 11.4558 7.8096 11.603 8.17984 11.6034H9.80078C10.171 11.603 10.526 11.4558 10.7878 11.194C11.0496 10.9322 11.1969 10.5772 11.1973 10.2069V9.83421C11.1968 9.65673 11.1626 9.48095 11.0965 9.31624C11.3025 9.15687 11.4414 8.92614 11.4858 8.66949C11.6772 8.5937 11.8358 8.45283 11.9336 8.27167C12.0807 8.45602 12.1613 8.68468 12.1621 8.92055V11.121Z" fill="black"/>
</svg>
