<svg width="50" height="50" viewBox="0 0 50 50" fill="none" xmlns="http://www.w3.org/2000/svg">
<path d="M11.6667 32.9167C8.90923 32.9167 6.66675 35.1592 6.66675 37.9167C6.66675 40.6742 8.90923 42.9167 11.6667 42.9167C14.4243 42.9167 16.6667 40.6742 16.6667 37.9167C16.6667 35.1592 14.4242 32.9167 11.6667 32.9167ZM11.6667 41.25C9.82837 41.25 8.33345 39.755 8.33345 37.9167C8.33345 36.0783 9.82847 34.5834 11.6667 34.5834C13.505 34.5834 15 36.0784 15 37.9167C15 39.755 13.505 41.25 11.6667 41.25Z" fill="black"/>
<path d="M40 32.9167C37.2425 32.9167 35 35.1592 35 37.9167C35 40.6742 37.2425 42.9167 40 42.9167C42.7575 42.9167 45 40.6742 45 37.9167C45 35.1592 42.7575 32.9167 40 32.9167ZM40 41.25C38.1616 41.25 36.6667 39.755 36.6667 37.9167C36.6667 36.0783 38.1617 34.5834 40 34.5834C41.8384 34.5834 43.3333 36.0784 43.3333 37.9167C43.3333 39.755 41.8384 41.25 40 41.25Z" fill="black"/>
<path d="M49.8675 28.2992L42.3675 16.6325C42.2142 16.3941 41.95 16.25 41.6666 16.25H32.5C32.0392 16.25 31.6667 16.6233 31.6667 17.0833V37.9166C31.6667 38.3774 32.0392 38.7499 32.5 38.7499H35.8334V37.0832H33.3334V17.9167H41.2117L48.3333 28.995V37.0834H44.1666V38.75H49.1666C49.6275 38.75 49.9999 38.3775 49.9999 37.9167V28.75C50 28.5908 49.9542 28.4333 49.8675 28.2992Z" fill="black"/>
<path d="M36.6668 27.0833V21.25H43.3335V19.5833H35.8335C35.3727 19.5833 35.0002 19.9566 35.0002 20.4166V27.9166C35.0002 28.3774 35.3727 28.7499 35.8335 28.7499H48.3336V27.0832H36.6668V27.0833Z" fill="black"/>
<path d="M32.5 10.4167H0.833301C0.37334 10.4167 0 10.79 0 11.25V37.9167C0 38.3775 0.37334 38.75 0.833301 38.75H7.5V37.0833H1.6667V12.0833H31.6667V37.0833H15.8333V38.75H32.5C32.9608 38.75 33.3333 38.3775 33.3333 37.9167V11.25C33.3333 10.79 32.9608 10.4167 32.5 10.4167Z" fill="black"/>
<path d="M5.83325 33.75H0.833252V35.4167H5.83325V33.75Z" fill="black"/>
<path d="M31.6667 33.75H17.5V35.4167H31.6667V33.75Z" fill="black"/>
<path d="M49.1666 33.75H45.8333V35.4167H49.1666V33.75Z" fill="black"/>
<path d="M32.4999 13.75H3.33325V15.4167H32.4999V13.75Z" fill="black"/>
<path d="M12.5 37.0833H10.8333V38.75H12.5V37.0833Z" fill="black"/>
<path d="M40.8335 37.0833H39.1667V38.75H40.8335V37.0833Z" fill="black"/>
<path d="M15 7.08331H3.33325V8.75001H15V7.08331Z" fill="black"/>
<path d="M1.6667 7.08331H0V8.75001H1.6667V7.08331Z" fill="black"/>
</svg>
