<svg width="50" height="50" viewBox="0 0 50 50" fill="none" xmlns="http://www.w3.org/2000/svg">
<g clip-path="url(#clip0)">
<path d="M49.9846 22.1955V22.1951C49.9029 21.4162 49.4993 20.6983 48.8775 20.2226L46.0318 18.007L47.1014 14.4776C47.3295 13.7246 47.2349 12.9017 46.8416 12.2197C46.4479 11.538 45.7826 11.0447 45.0163 10.8655L41.4362 10.0297L40.9792 6.38202C40.8811 5.60077 40.46 4.88742 39.8237 4.42584C39.1866 3.96235 38.3775 3.78192 37.6051 3.93069L33.9944 4.62306L32.0928 1.47631C31.336 0.223937 29.7468 -0.249087 28.3971 0.374999C28.3021 0.418868 28.2106 0.471511 28.1308 0.527969L24.9971 2.71075L21.98 0.609222C21.3342 0.159849 20.5228 -0.00380155 19.753 0.159468C18.9832 0.322738 18.308 0.803391 17.9009 1.47707L16.0001 4.62344L12.3891 3.93069C11.6158 3.78268 10.8075 3.96312 10.1716 4.42546C9.53451 4.88818 9.11337 5.60153 9.01571 6.38202L8.55871 10.03L4.77223 10.9139L4.59446 10.9719L4.52885 11.0005C3.15327 11.6021 2.46509 13.0646 2.8931 14.4776L3.96237 18.007L0.994522 20.3156L0.822478 20.4652L0.774032 20.5182C-0.221989 21.6062 -0.260899 23.2518 0.681334 24.352L3.00487 27.1306L1.12155 30.5482L1.0464 30.7191L1.02466 30.7828C0.555067 32.1863 1.19479 33.7114 2.5124 34.3297L5.84035 35.8915L5.52869 39.5544C5.46193 40.3391 5.72591 41.1245 6.25234 41.7089C6.77877 42.2937 7.53217 42.6382 8.31953 42.6542L11.995 42.7274L13.2004 46.2C13.4583 46.9438 14.0187 47.5542 14.7374 47.8739C15.4561 48.1939 16.2843 48.2023 17.0106 47.8968L20.3984 46.4689L23.0577 49.3067L23.1969 49.4307L23.2507 49.4707C23.776 49.8587 24.3898 50.0486 24.9978 50.0486C25.7672 50.0486 26.5271 49.7442 27.0829 49.151L29.5968 46.4689L32.9851 47.8971C33.7099 48.2023 34.5376 48.1939 35.2563 47.8743C35.9758 47.5542 36.5362 46.9438 36.794 46.2004L37.9999 42.7274L41.8878 42.65L42.0725 42.6298L42.1388 42.6164C43.5884 42.3208 44.589 41.0043 44.4658 39.5548L44.1545 35.8915L47.4829 34.3297C48.1951 33.9956 48.7432 33.3745 48.9866 32.6257C49.2296 31.8773 49.1514 31.0525 48.7715 30.3632L46.99 27.1306L49.3139 24.352C49.8217 23.7588 50.0662 22.9737 49.9846 22.1955ZM44.2186 25.8741C43.7582 26.4177 43.6796 27.1993 44.0241 27.8238L46.1653 31.7094L42.1488 33.5943C41.4976 33.9002 41.1012 34.5872 41.1619 35.304L41.5376 39.7245L37.1019 39.813C36.3828 39.8275 35.7408 40.2937 35.5051 40.9734L34.0501 45.1647L29.9623 43.4416C29.2993 43.1623 28.5234 43.3267 28.0309 43.852L24.9971 47.0892L21.9632 43.8516C21.631 43.4969 21.169 43.3069 20.6998 43.3069C20.4743 43.3069 20.2474 43.3508 20.0326 43.4416L15.944 45.1647L14.4894 40.9746C14.2541 40.2944 13.6121 39.8275 12.8922 39.813L8.45609 39.7245L8.83184 35.304C8.89288 34.5872 8.49615 33.9002 7.84498 33.5943L3.82885 31.7094L5.97005 27.8241C6.3149 27.1989 6.23593 26.4177 5.77512 25.8737L2.95681 22.5034L6.40988 19.8171C6.97522 19.381 7.21555 18.6318 7.00803 17.949L5.72171 13.7032L10.0426 12.6938C10.7426 12.5302 11.2733 11.9412 11.3633 11.2271L11.9149 6.82491L16.2728 7.66072C16.9793 7.79576 17.7033 7.47303 18.0756 6.85772L20.3698 3.06056L24.0102 5.59581C24.6007 6.00704 25.3942 6.00742 25.9843 5.59581L29.6247 3.06017L31.9192 6.85657C32.2908 7.47265 33.0163 7.79576 33.7228 7.66033L38.08 6.82453L38.6316 11.2263C38.7209 11.9401 39.2515 12.5298 39.9526 12.6938L44.2732 13.7028L42.9865 17.9486C42.7793 18.633 43.02 19.3818 43.5854 19.8174L47.0369 22.5049L44.2186 25.8741Z" fill="black"/>
<path d="M25.1527 12.6251C18.2874 12.6251 12.7019 18.2102 12.7019 25.0759C12.7019 31.9413 18.2874 37.5268 25.1527 37.5268C32.0184 37.5268 37.6039 31.9413 37.6039 25.0759C37.6039 18.2102 32.0181 12.6251 25.1527 12.6251ZM25.1527 34.5948C19.9041 34.5948 15.6335 30.3246 15.6335 25.0759C15.6335 19.8269 19.9041 15.5567 25.1527 15.5567C30.4018 15.5567 34.672 19.8269 34.672 25.0759C34.672 30.3246 30.4018 34.5948 25.1527 34.5948Z" fill="black"/>
<path d="M28.7317 21.2101L22.9482 26.9932L21.3788 25.4235C20.8062 24.8513 19.8781 24.8513 19.3059 25.4235C18.7333 25.9961 18.7333 26.9242 19.3059 27.4968L21.9117 30.1026C22.1978 30.3891 22.5732 30.5321 22.9482 30.5321C23.3232 30.5321 23.6985 30.3891 23.9846 30.1026L30.8046 23.283C31.3768 22.7104 31.3768 21.7823 30.8046 21.2101C30.232 20.6375 29.3039 20.6375 28.7317 21.2101Z" fill="black"/>
</g>
<defs>
<clipPath id="clip0">
<rect width="50" height="50" fill="white"/>
</clipPath>
</defs>
</svg>
