<svg width="50" height="50" viewBox="0 0 50 50" fill="none" xmlns="http://www.w3.org/2000/svg">
<g clip-path="url(#clip0)">
<path d="M41.6668 36.0299L39.5444 34.7583C38.8974 34.3713 38.1572 34.1671 37.4033 34.1667H34.2091C33.5552 34.1655 32.9041 34.2497 32.2718 34.4165L22.6478 36.9999C21.5956 37.2905 20.7504 38.0742 20.3818 39.1016L11.9166 34.5219C11.2302 34.1313 10.4265 33.9986 9.65097 34.1476C9.35841 34.1992 9.0748 34.2924 8.80828 34.4242C8.20647 34.7123 7.70721 35.1778 7.3768 35.7577C7.0879 36.2626 6.93613 36.8343 6.93613 37.4158C6.92718 38.6031 7.55625 39.7034 8.58326 40.2983L23.755 49.3758C24.4142 49.784 25.1734 50 25.9486 50H37.6901C38.2146 50.0004 38.7342 49.9011 39.2217 49.7083L41.6668 48.7427V50H50.0001V33.3333H41.6668V36.0299ZM38.6093 48.1584C38.3176 48.2735 38.0063 48.3329 37.6926 48.3334H25.9486C25.479 48.3329 25.0188 48.2007 24.6209 47.9517L9.4284 38.8635C8.91204 38.5653 8.59588 38.0127 8.59995 37.4166C8.60117 37.1244 8.67807 36.8372 8.82334 36.5833C8.98935 36.2956 9.23919 36.0649 9.53908 35.9225C9.67132 35.8582 9.81129 35.8126 9.95574 35.7874C10.0611 35.7678 10.1681 35.7577 10.2752 35.7577C10.5616 35.7568 10.8432 35.8317 11.0918 35.9741L20.2711 40.9343C20.2817 40.9851 20.2817 41.0352 20.2951 41.086C20.6898 42.5407 22.0094 43.551 23.5169 43.5527C23.9808 43.5104 24.4402 43.4282 24.8902 43.3077L33.5483 40.9908L33.1186 39.3807L24.4886 41.6874C24.1086 41.7749 23.6183 41.875 23.5169 41.8836C22.7642 41.8848 22.1042 41.3819 21.906 40.6559C21.8792 40.555 21.8633 40.4517 21.8576 40.3475C21.8576 40.3475 21.8511 40.1457 21.8576 40.0749C21.9211 39.3779 22.4094 38.7927 23.0836 38.6052L32.7035 36.0315C33.1947 35.9001 33.7009 35.8333 34.2091 35.8333H37.4033C37.8557 35.8333 38.2997 35.9562 38.6874 36.1886L41.6668 37.9724V46.9499L38.6093 48.1584ZM43.3334 35H48.3334V48.3334H43.3334V35Z" fill="black"/>
<path d="M34.3701 6.66639L29.8999 2.19658C28.4965 0.785044 26.5869 -0.00597123 24.5968 -0.000274619H14.1199C13.4733 0.000539183 12.8357 0.151499 12.2567 0.439585L10.389 1.37383C10.0146 1.56222 9.5988 1.65215 9.18009 1.63547L8.33333 1.60576V-0.000274619H0V18.333H8.33333V15.833H9.75016L10.2543 16.1663C11.665 17.103 13.3077 17.632 15 17.6938V28.333H50V6.66639H34.3701ZM6.66667 16.6664H1.66667V1.66639H6.66667V16.6664ZM11.1768 14.7796L10.2498 14.1664H8.33333V3.27324L9.11906 3.30132C9.81689 3.32614 10.5094 3.17599 11.134 2.86471L13.0001 1.93047C13.3476 1.75672 13.7313 1.66639 14.1199 1.66639H24.5968C26.1446 1.66192 27.6302 2.27715 28.7215 3.37456L32.0133 6.66639H25.1367L23.114 4.64409L21.936 5.82207L27.8227 11.7091C28.4766 12.3602 28.4786 13.4181 27.8276 14.0724C27.1761 14.7263 26.1182 14.7283 25.4643 14.0773L20.5477 9.16069L19.9642 9.66077C18.3533 11.0288 15.9985 11.0638 14.3473 9.74378L13.8643 9.35234L12.8141 10.6471L13.3024 11.043C13.8131 11.4511 14.3864 11.7742 15 11.9996V16.0263C13.6361 15.9657 12.314 15.5348 11.1768 14.7796ZM23.031 13.9996L24.2883 15.2573C25.5937 16.5431 27.6892 16.5451 28.9966 15.2614C27.7734 17.1555 28.256 19.6762 30.0924 20.9844C31.9287 22.2926 34.469 21.9252 35.8594 20.1507C37.2498 18.3758 36.9987 15.8212 35.2889 14.3515C33.5795 12.8818 31.016 13.0165 29.4702 14.6571C30.0395 13.7631 30.1412 12.6491 29.7432 11.6664H40.9025C41.261 13.7631 42.9032 15.4054 45 15.7639V19.2356C42.9032 19.594 41.261 21.2363 40.9025 23.333H24.0975C23.739 21.2363 22.0968 19.594 20 19.2356V15.7639C21.191 15.5633 22.2681 14.9362 23.031 13.9996ZM30 17.4997C30 16.1191 31.1194 14.9997 32.5 14.9997C33.8806 14.9997 35 16.1191 35 17.4997C35 18.8803 33.8806 19.9997 32.5 19.9997C31.1194 19.9997 30 18.8803 30 17.4997ZM48.3333 26.6664H16.6667V12.3488C17.9879 12.448 19.305 12.1111 20.4167 11.3905L21.8384 12.8122C21.213 13.6618 20.2218 14.1643 19.1667 14.1664H18.3333V20.833H19.1667C21.0075 20.833 22.5 22.3256 22.5 24.1664V24.9997H42.5V24.1664C42.5 22.3256 43.9925 20.833 45.8333 20.833H46.6667V14.1664H45.8333C43.9925 14.1664 42.5 12.6739 42.5 10.8331V9.99972H28.4701L26.8034 8.33305H48.3333V26.6664Z" fill="black"/>
</g>
<defs>
<clipPath id="clip0">
<rect width="50" height="50" fill="white"/>
</clipPath>
</defs>
</svg>
