<svg width="50" height="50" viewBox="0 0 50 50" fill="none" xmlns="http://www.w3.org/2000/svg">
<path d="M39.2712 7.65093C38.5236 6.79693 37.458 6.32655 36.2708 6.32655H7.57012L7.28125 4.16079C6.96992 1.82767 5.3456 0 3.58315 0H1.47429C0.821797 0 0.292969 0.528828 0.292969 1.18133C0.292969 1.83382 0.821797 2.36265 1.47429 2.36265H3.58315C3.96215 2.36265 4.76478 3.16405 4.93921 4.47304L8.32075 29.8352C8.46965 30.9532 9.04401 31.9998 9.938 32.7824C10.601 33.3629 11.3845 33.749 12.2053 33.9105C11.8709 34.5255 11.6808 35.23 11.6808 35.9778C11.6808 38.3737 13.63 40.3226 16.0255 40.3226C18.4211 40.3226 20.3703 38.3737 20.3703 35.9778C20.3703 35.2641 20.1962 34.5907 19.8897 33.996H26.08C25.7736 34.5907 25.5995 35.2641 25.5995 35.9778C25.5995 38.3737 27.5487 40.3226 29.9442 40.3226C32.3398 40.3226 34.289 38.3737 34.289 35.9778C34.289 35.2641 34.1149 34.5907 33.8085 33.996H36.9036C37.5558 33.996 38.0849 33.4669 38.0849 32.8147C38.0849 32.1622 37.5558 31.6334 36.9036 31.6334H13.0731C11.9189 31.6334 10.8151 30.6668 10.6625 29.5227L10.4155 27.6692H19.6098C19.6101 27.6692 19.6104 27.6695 19.6107 27.6695C19.611 27.6695 19.6113 27.6692 19.6119 27.6692H27.2014C27.2017 27.6692 27.202 27.6695 27.2026 27.6695C27.2029 27.6695 27.2029 27.6692 27.2032 27.6692H33.7402C34.868 27.6692 35.9813 27.2382 36.8753 26.4558C37.7693 25.6732 38.3437 24.6263 38.4925 23.5084L40.187 10.7999C40.3439 9.62319 40.0187 8.50493 39.2712 7.65093ZM18.0076 35.9778C18.0076 37.0709 17.1186 37.9599 16.0255 37.9599C14.9328 37.9599 14.0434 37.0709 14.0434 35.9778C14.0434 34.8851 14.9328 33.996 16.0255 33.996C17.1186 33.996 18.0076 34.8851 18.0076 35.9778ZM31.9263 35.9778C31.9263 37.0709 31.0373 37.9599 29.9442 37.9599C28.8512 37.9599 27.9621 37.0709 27.9621 35.9778C27.9621 34.8851 28.8512 33.996 29.9442 33.996C31.0373 33.996 31.9263 34.8851 31.9263 35.9778ZM37.4933 9.20726C37.7859 9.54136 37.9108 9.99574 37.845 10.4873L37.1346 15.8165H29.0967L29.5717 8.6892H36.2708C36.767 8.6892 37.2011 8.87317 37.4933 9.20726ZM20.717 25.3065L20.2417 18.1792H26.5713L26.096 25.3065H20.717ZM20.0842 15.8165L19.6092 8.6892H27.2038L26.7288 15.8165H20.0842ZM17.2413 8.6892L17.7163 15.8165H8.83512L7.88483 8.6892H17.2413ZM9.15014 18.1792H17.8738L18.3491 25.3065H10.1004L9.15014 18.1792ZM33.7402 25.3065H28.4639L28.9392 18.1792H36.8196L36.1508 23.1961C35.9982 24.3402 34.8941 25.3065 33.7402 25.3065Z" fill="black"/>
</svg>
