<svg width="20" height="20" viewBox="0 0 20 20" fill="none" xmlns="http://www.w3.org/2000/svg">
<path d="M9.99993 17L9.67993 16.64C9.47993 16.44 4.79993 10.92 4.79993 7.60002C4.79993 4.72002 7.11993 2.40002 9.99993 2.40002C12.8799 2.40002 15.1999 4.72002 15.1999 7.60002C15.1999 10.92 10.5199 16.44 10.3199 16.68L9.99993 17ZM9.99993 3.20002C7.55993 3.20002 5.59993 5.16002 5.59993 7.60002C5.59993 10.16 8.95993 14.48 9.99993 15.76C11.0399 14.48 14.3999 10.16 14.3999 7.60002C14.3999 5.16002 12.4399 3.20002 9.99993 3.20002Z" fill="white"/>
<path d="M10 9.59997C8.88 9.59997 8 8.71997 8 7.59997C8 6.47998 8.88 5.59998 10 5.59998C11.12 5.59998 12 6.47998 12 7.59997C12 8.71997 11.12 9.59997 10 9.59997ZM10 6.39998C9.32 6.39998 8.8 6.91998 8.8 7.59997C8.8 8.27997 9.32 8.79997 10 8.79997C10.68 8.79997 11.2 8.27997 11.2 7.59997C11.2 6.91998 10.68 6.39998 10 6.39998Z" fill="white"/>
</svg>
