<svg width="141" height="36" viewBox="0 0 141 36" fill="none" xmlns="http://www.w3.org/2000/svg">
<path d="M27.304 27.224H10.504L7.192 35H0.76L15.88 1.4H22.024L37.192 35H30.664L27.304 27.224ZM25.24 22.328L18.904 7.64L12.616 22.328H25.24ZM51.8811 35.48C49.2891 35.48 46.7771 35.112 44.3451 34.376C41.9451 33.64 40.0411 32.664 38.6331 31.448L40.7931 26.6C42.1691 27.688 43.8491 28.584 45.8331 29.288C47.8491 29.96 49.8651 30.296 51.8811 30.296C54.3771 30.296 56.2331 29.896 57.4491 29.096C58.6971 28.296 59.3211 27.24 59.3211 25.928C59.3211 24.968 58.9691 24.184 58.2651 23.576C57.5931 22.936 56.7291 22.44 55.6731 22.088C54.6171 21.736 53.1771 21.336 51.3531 20.888C48.7931 20.28 46.7131 19.672 45.1131 19.064C43.5451 18.456 42.1851 17.512 41.0331 16.232C39.9131 14.92 39.3531 13.16 39.3531 10.952C39.3531 9.096 39.8491 7.416 40.8411 5.912C41.8651 4.376 43.3851 3.16 45.4011 2.264C47.4491 1.368 49.9451 0.919998 52.8891 0.919998C54.9371 0.919998 56.9531 1.176 58.9371 1.688C60.9211 2.2 62.6331 2.936 64.0731 3.896L62.1051 8.744C60.6331 7.88 59.0971 7.224 57.4971 6.776C55.8971 6.328 54.3451 6.104 52.8411 6.104C50.3771 6.104 48.5371 6.52 47.3211 7.352C46.1371 8.184 45.5451 9.288 45.5451 10.664C45.5451 11.624 45.8811 12.408 46.5531 13.016C47.2571 13.624 48.1371 14.104 49.1931 14.456C50.2491 14.808 51.6891 15.208 53.5131 15.656C56.0091 16.232 58.0571 16.84 59.6571 17.48C61.2571 18.088 62.6171 19.032 63.7371 20.312C64.8891 21.592 65.4651 23.32 65.4651 25.496C65.4651 27.352 64.9531 29.032 63.9291 30.536C62.9371 32.04 61.4171 33.24 59.3691 34.136C57.3211 35.032 54.8251 35.48 51.8811 35.48ZM96.8526 29.768V35H71.6526V1.4H96.1806V6.632H77.8926V15.368H94.1166V20.504H77.8926V29.768H96.8526ZM134.673 35L134.625 12.728L123.585 31.16H120.801L109.761 13.016V35H103.809V1.4H108.945L122.289 23.672L135.393 1.4H140.529L140.577 35H134.673Z" fill="#0467AD"/>
</svg>
