<svg width="11" height="13" viewBox="0 0 11 13" fill="none" xmlns="http://www.w3.org/2000/svg">
<path d="M7.36623 2.27366H1.32281C0.755744 2.27366 0.295166 2.73424 0.295166 3.30131V11.9724C0.295166 12.5395 0.755744 13.0001 1.32281 13.0001H7.36623C7.9333 13.0001 8.39388 12.5395 8.39388 11.9724V3.30131C8.39121 2.73424 7.93064 2.27366 7.36623 2.27366ZM7.67239 11.9697C7.67239 12.1401 7.53395 12.2786 7.36357 12.2786H1.32015C1.14976 12.2786 1.01132 12.1401 1.01132 11.9697V3.30131C1.01132 3.13092 1.14976 2.99248 1.32015 2.99248H7.36357C7.53395 2.99248 7.67239 3.13092 7.67239 3.30131V11.9697Z" fill="black"/>
<path d="M9.67714 0H3.63373C3.06666 0 2.60608 0.460577 2.60608 1.02765C2.60608 1.22732 2.76582 1.38706 2.96549 1.38706C3.16516 1.38706 3.3249 1.22732 3.3249 1.02765C3.3249 0.85726 3.46334 0.71882 3.63373 0.71882H9.67714C9.84753 0.71882 9.98597 0.85726 9.98597 1.02765V9.69875C9.98597 9.86914 9.84753 10.0076 9.67714 10.0076C9.47747 10.0076 9.31773 10.1673 9.31773 10.367C9.31773 10.5667 9.47747 10.7264 9.67714 10.7264C10.2442 10.7264 10.7048 10.2658 10.7048 9.69875V1.02765C10.7048 0.460577 10.2442 0 9.67714 0Z" fill="black"/>
</svg>
