<svg width="19" height="19" viewBox="0 0 19 19" fill="none" xmlns="http://www.w3.org/2000/svg">
<path d="M4.22004 13.9502H3.85785C3.36682 13.9502 2.96723 14.3498 2.96723 14.8408V15.1377C2.96723 15.3018 3.09993 15.4345 3.2641 15.4345H9.19982C9.364 15.4345 9.4967 15.3018 9.4967 15.1377V14.8408C9.4967 14.3498 9.0971 13.9502 8.60607 13.9502H8.24389L8.09575 13.3576H11.5724C12.0635 13.3576 12.4631 12.958 12.4631 12.467V4.45609C12.4631 3.96506 12.0635 3.56547 11.5724 3.56547H0.891479C0.400448 3.56547 0.000854492 3.96506 0.000854492 4.45609V12.467C0.000854492 12.958 0.400448 13.3576 0.891479 13.3576H4.36818L4.22004 13.9502ZM3.85785 14.5439H8.60607C8.76995 14.5439 8.90295 14.6769 8.90295 14.8408H3.56098C3.56098 14.6769 3.69398 14.5439 3.85785 14.5439ZM7.63232 13.9502H4.8316L4.97974 13.3576H7.48418L7.63232 13.9502ZM0.891479 4.15922H11.5727C11.7366 4.15922 11.8696 4.29222 11.8696 4.45609V11.5763H0.594604V4.45609C0.594604 4.29222 0.727605 4.15922 0.891479 4.15922ZM0.594604 12.467V12.1701H6.2379C6.07403 12.1701 5.94281 12.3028 5.94281 12.467C5.94281 12.6311 6.077 12.7638 6.24117 12.7638C6.40504 12.7638 6.53804 12.6311 6.53804 12.467C6.53804 12.3028 6.40504 12.1701 6.24117 12.1701H11.8696V12.467C11.8696 12.6308 11.7366 12.7638 11.5727 12.7638H6.24087H0.891479C0.727605 12.7638 0.594604 12.6308 0.594604 12.467Z" fill="black"/>
<path d="M18.1085 3.56547H13.9519C13.4609 3.56547 13.0613 3.96506 13.0613 4.45609V14.5439C13.0613 15.0349 13.4609 15.4345 13.9519 15.4345H18.1085C18.5995 15.4345 18.9991 15.0349 18.9991 14.5439V4.45609C18.9991 3.96476 18.5995 3.56547 18.1085 3.56547ZM13.655 5.34553H18.4053V5.64181H13.655V5.34553ZM13.9519 4.15922H18.1085C18.2723 4.15922 18.4053 4.29222 18.4053 4.45609V4.75178H13.655V4.45609C13.655 4.29222 13.788 4.15922 13.9519 4.15922ZM18.1085 14.8408H13.9519C13.788 14.8408 13.655 14.7078 13.655 14.5439V6.23556H18.4053V14.5439C18.4053 14.7078 18.2723 14.8408 18.1085 14.8408Z" fill="black"/>
<path d="M16.0304 9.79818C16.5214 9.79818 16.921 9.39858 16.921 8.90755C16.921 8.41652 16.5214 8.01692 16.0304 8.01692C15.5394 8.01692 15.1398 8.41652 15.1398 8.90755C15.1398 9.39858 15.5394 9.79818 16.0304 9.79818ZM16.0304 8.61067C16.1943 8.61067 16.3273 8.74367 16.3273 8.90755C16.3273 9.07142 16.1943 9.20442 16.0304 9.20442C15.8665 9.20442 15.7335 9.07142 15.7335 8.90755C15.7335 8.74367 15.8665 8.61067 16.0304 8.61067Z" fill="black"/>
<path d="M17.2179 11.58H14.8429C14.6787 11.58 14.546 11.7127 14.546 11.8769C14.546 12.0411 14.6787 12.1738 14.8429 12.1738H17.2179C17.3821 12.1738 17.5148 12.0411 17.5148 11.8769C17.5148 11.7127 17.3821 11.58 17.2179 11.58Z" fill="black"/>
<path d="M17.2179 12.4706H14.8429C14.6787 12.4706 14.546 12.6033 14.546 12.7675C14.546 12.9317 14.6787 13.0644 14.8429 13.0644H17.2179C17.3821 13.0644 17.5148 12.9317 17.5148 12.7675C17.5148 12.6033 17.3821 12.4706 17.2179 12.4706Z" fill="black"/>
<path d="M17.2179 13.3613H14.8429C14.6787 13.3613 14.546 13.494 14.546 13.6581C14.546 13.8223 14.6787 13.955 14.8429 13.955H17.2179C17.3821 13.955 17.5148 13.8223 17.5148 13.6581C17.5148 13.494 17.3821 13.3613 17.2179 13.3613Z" fill="black"/>
</svg>
