<svg width="50" height="49" viewBox="0 0 50 49" fill="none" xmlns="http://www.w3.org/2000/svg">
<g clip-path="url(#clip0)">
<path d="M49.0481 24.7597C49.0481 11.4799 38.2803 0.721191 25.0096 0.721191C11.7298 0.721191 0.97113 11.4799 0.97113 24.7597C0.97113 36.7549 9.75869 46.7008 21.2536 48.5022V31.7098H15.1493V24.7612H21.2536V19.4622C21.2536 13.439 24.8368 10.1127 30.3296 10.1127C32.9603 10.1127 35.7142 10.5815 35.7142 10.5815V16.4964H32.6779C29.6971 16.4964 28.7656 18.3519 28.7656 20.2524V24.7597H35.4318L34.3606 31.7083H28.7656V48.5006C40.2515 46.6993 49.0481 36.7534 49.0481 24.7582V24.7597Z" fill="#0467AD"/>
</g>
<defs>
<clipPath id="clip0">
<rect x="0.97113" y="0.721191" width="48.0769" height="48.0769" fill="white"/>
</clipPath>
</defs>
</svg>
