<svg width="33" height="32" viewBox="0 0 33 32" fill="none" xmlns="http://www.w3.org/2000/svg">
<path d="M28.8608 24.3333H9.9719L4.41634 1H1.08301M5.52745 5.44444H32.1941L28.8608 19.8889H8.86079L5.52745 5.44444Z" stroke="black" stroke-linecap="round" stroke-linejoin="round"/>
<path d="M26.6386 31.0001C27.8659 31.0001 28.8608 30.0052 28.8608 28.7779C28.8608 27.5506 27.8659 26.5557 26.6386 26.5557C25.4113 26.5557 24.4164 27.5506 24.4164 28.7779C24.4164 30.0052 25.4113 31.0001 26.6386 31.0001Z" stroke="black" stroke-linecap="round" stroke-linejoin="round"/>
<path d="M12.1941 31.0001C13.4214 31.0001 14.4163 30.0052 14.4163 28.7779C14.4163 27.5506 13.4214 26.5557 12.1941 26.5557C10.9668 26.5557 9.97189 27.5506 9.97189 28.7779C9.97189 30.0052 10.9668 31.0001 12.1941 31.0001Z" stroke="black" stroke-linecap="round" stroke-linejoin="round"/>
</svg>
