<svg width="25" height="15" viewBox="0 0 25 15" fill="none" xmlns="http://www.w3.org/2000/svg">
<path d="M24.4268 1.00557C24.6015 0.425432 24.4268 0 23.6009 0H20.8649C20.1687 0 19.8506 0.368043 19.6759 0.772266C19.6759 0.772266 18.2849 4.16449 16.3136 6.36402C15.6774 7.00404 15.3867 7.20615 15.0398 7.20615C14.8664 7.20615 14.6144 7.00404 14.6144 6.4239V1.00557C14.6144 0.309405 14.4135 0 13.8334 0H9.53417C9.10001 0 8.83801 0.321881 8.83801 0.628792C8.83801 1.28753 9.82362 1.43973 9.92467 3.29616V7.32342C9.92467 8.20548 9.76623 8.36642 9.4169 8.36642C8.48993 8.36642 6.23427 4.96171 4.89559 1.0642C4.63484 0.30691 4.3716 0.00124811 3.67294 0.00124811H0.938197C0.15595 0.00124811 0 0.369291 0 0.773514C0 1.49962 0.926968 5.09271 4.31795 9.84482C6.5786 13.0898 9.76124 14.849 12.6607 14.849C14.3986 14.849 14.6132 14.4585 14.6132 13.7848V11.332C14.6132 10.551 14.7791 10.3938 15.3293 10.3938C15.7335 10.3938 16.4297 10.5984 18.0528 12.1616C19.9067 14.0156 20.2136 14.8477 21.2554 14.8477H23.9901C24.7711 14.8477 25.1616 14.4572 24.9371 13.6862C24.6913 12.9189 23.8055 11.8023 22.6303 10.4811C21.9915 9.72755 21.0371 8.91661 20.7464 8.51114C20.3409 7.98839 20.4582 7.75759 20.7464 7.29348C20.7476 7.29473 24.08 2.60125 24.4268 1.00557Z" fill="white"/>
</svg>
