<svg width="13" height="13" viewBox="0 0 13 13" fill="none" xmlns="http://www.w3.org/2000/svg">
<g clip-path="url(#clip0)">
<path d="M12.4224 0.578709C11.6509 -0.192961 10.4016 -0.193089 9.62986 0.578709C9.52836 0.680201 6.6723 3.53637 6.60858 3.60006L5.05127 2.04276C5.05119 2.04268 5.05112 2.04258 5.05104 2.0425C5.05096 2.04242 5.05086 2.04235 5.05079 2.04227L3.14939 0.140879C3.00011 -0.00840377 2.75803 -0.00840377 2.60872 0.140879L0.142515 2.60708C-0.00679244 2.75637 -0.00679244 2.99845 0.142515 3.14776L3.6017 6.60694L1.26497 8.94367C1.22575 8.98289 1.19236 9.03471 1.17314 9.0915L0.0221618 12.4943C-0.07798 12.7902 0.204145 13.0814 0.506839 12.979L3.90967 11.828C3.96406 11.8096 4.0169 11.7768 4.05755 11.7362L6.39425 9.39947L9.85341 12.8586C10.0027 13.0079 10.2448 13.0079 10.3941 12.8586L12.8603 10.3924C13.0096 10.2431 13.0096 10.0011 12.8603 9.85175L10.9588 7.95025C10.9587 7.9502 10.9587 7.95018 10.9587 7.95013C10.9586 7.95007 10.9586 7.95005 10.9585 7.95L9.4011 6.39256C9.46475 6.32892 12.3213 3.4724 12.4224 3.37128C13.2046 2.58911 13.1825 1.33855 12.4224 0.578709ZM10.1237 12.0476L6.935 8.8589L8.86056 6.93336L10.1476 8.22045L9.551 8.81707C9.40169 8.96635 9.40169 9.20841 9.551 9.35774C9.70025 9.50705 9.94234 9.50708 10.0917 9.35774L10.6883 8.76112L12.0493 10.1221L10.1237 12.0476ZM9.16766 2.12233L9.75301 2.70768L2.66135 9.79937L2.076 9.21402C2.42044 8.86955 8.93743 2.35256 9.16766 2.12233ZM10.1706 1.11938C10.643 0.647016 11.4101 0.648494 11.8811 1.11877C11.8814 1.119 11.8815 1.11926 11.8818 1.11948C12.3509 1.58849 12.3557 2.35654 11.8818 2.83051L11.4195 3.29281L10.5648 2.43812C10.5645 2.43787 10.5643 2.43759 10.5641 2.43733C10.5638 2.43708 10.5635 2.43687 10.5633 2.43662L9.70831 1.58166L10.1706 1.11938ZM3.20203 10.34L10.2937 3.24836L10.8788 3.83346L3.78712 10.9251L3.20203 10.34ZM3.08154 11.3009L0.994192 12.0069L1.70023 9.9196L3.08154 11.3009ZM0.953539 2.87741L2.87907 0.951876L4.24002 2.31283L3.6434 2.90947C3.49409 3.05878 3.49409 3.30084 3.6434 3.45014C3.79265 3.59945 4.03474 3.59948 4.18407 3.45014L4.78069 2.8535L6.06793 4.14074L4.1424 6.06627L0.953539 2.87741Z" fill="black"/>
</g>
<defs>
<clipPath id="clip0">
<rect width="13" height="13" fill="white"/>
</clipPath>
</defs>
</svg>
