<svg width="13" height="13" viewBox="0 0 13 13" fill="none" xmlns="http://www.w3.org/2000/svg">
<path d="M2.7849 0H10.215C10.8693 0 11.4015 0.532264 11.4015 1.18645V11.8135C11.4015 12.4677 10.8692 13 10.215 13H2.78493C2.13069 13 1.5984 12.4677 1.5984 11.8135V1.18645C1.59842 0.532264 2.13066 0 2.7849 0ZM2.02872 11.8135C2.02872 12.2305 2.36791 12.5697 2.7849 12.5697H10.215C10.632 12.5697 10.9712 12.2305 10.9712 11.8135V1.18645C10.9712 0.769514 10.632 0.430295 10.215 0.430295H2.7849C2.36796 0.430295 2.02872 0.769488 2.02872 1.18645V11.8135Z" fill="black"/>
<path d="M2.96108 1.14743H10.0389C10.1577 1.14743 10.254 1.24374 10.254 1.36259V4.21015C10.254 4.329 10.1577 4.42531 10.0389 4.42531H2.96113C2.84228 4.42531 2.74597 4.32898 2.74594 4.21015V1.36259C2.74594 1.24374 2.84228 1.14743 2.96108 1.14743ZM3.17624 3.99499H9.82371V1.57775H3.17626V3.99499H3.17624Z" fill="black"/>
<path d="M9.37933 5.32834H9.6553C10.056 5.32834 10.3821 5.65438 10.3821 6.05512V6.33109C10.3821 6.73182 10.056 7.05786 9.6553 7.05786H9.37933C8.97859 7.05786 8.6526 6.73182 8.65255 6.33109V6.05512C8.65257 5.65438 8.97859 5.32834 9.37933 5.32834ZM9.08287 6.33109C9.08287 6.49455 9.21586 6.62755 9.37933 6.62755H9.6553C9.81876 6.62755 9.95176 6.49455 9.95176 6.33109V6.05512C9.95176 5.89165 9.81876 5.75866 9.6553 5.75866H9.37933C9.21586 5.75866 9.08287 5.89165 9.08287 6.05512V6.33109Z" fill="black"/>
<path d="M7.36778 5.32834H7.64375C8.04447 5.32834 8.37048 5.65438 8.37048 6.05512V6.33109C8.37048 6.73182 8.04447 7.05786 7.64375 7.05786H7.36778C6.96704 7.05786 6.64105 6.73182 6.641 6.33109V6.05512C6.64103 5.65438 6.96704 5.32834 7.36778 5.32834ZM7.07137 6.33109C7.07137 6.49455 7.20437 6.62755 7.36783 6.62755H7.6438C7.80727 6.62755 7.94024 6.49455 7.94024 6.33109V6.05512C7.94024 5.89165 7.80727 5.75866 7.6438 5.75866H7.36783C7.20437 5.75866 7.07137 5.89165 7.07137 6.05512V6.33109Z" fill="black"/>
<path d="M5.35631 5.32834H5.63228C6.03299 5.32834 6.35901 5.65438 6.35901 6.05512V6.33109C6.35901 6.73182 6.03299 7.05786 5.63228 7.05786H5.35631C4.95557 7.05786 4.62958 6.73182 4.62958 6.33109V6.05512C4.62955 5.65438 4.95557 5.32834 5.35631 5.32834ZM5.0599 6.33109C5.0599 6.49455 5.19287 6.62755 5.35633 6.62755H5.6323C5.79577 6.62755 5.92874 6.49455 5.92874 6.33109V6.05512C5.92874 5.89165 5.79577 5.75866 5.6323 5.75866H5.35633C5.19287 5.75866 5.0599 5.89165 5.0599 6.05512V6.33109Z" fill="black"/>
<path d="M3.34466 5.32834H3.62063C4.02137 5.32834 4.34741 5.65438 4.34741 6.05512V6.33109C4.34741 6.73182 4.02137 7.05786 3.62063 7.05786H3.34466C2.94392 7.05786 2.61793 6.73182 2.61788 6.33109V6.05512C2.61788 5.65438 2.94392 5.32834 3.34466 5.32834ZM3.0482 6.33109C3.0482 6.49455 3.1812 6.62755 3.34466 6.62755H3.62063C3.7841 6.62755 3.91709 6.49455 3.91709 6.33109V6.05512C3.91709 5.89165 3.7841 5.75866 3.62063 5.75866H3.34466C3.1812 5.75866 3.0482 5.89165 3.0482 6.05512V6.33109Z" fill="black"/>
<path d="M9.37933 7.49371H9.6553C10.056 7.49371 10.3821 7.81976 10.3821 8.2205V8.49647C10.3821 8.89721 10.056 9.22325 9.6553 9.22325H9.37933C8.97859 9.22325 8.6526 8.89721 8.65255 8.49647V8.2205C8.65257 7.81976 8.97859 7.49371 9.37933 7.49371ZM9.08287 8.49647C9.08287 8.65993 9.21586 8.79293 9.37933 8.79293H9.6553C9.81876 8.79293 9.95176 8.65993 9.95176 8.49647V8.2205C9.95176 8.05703 9.81876 7.92403 9.6553 7.92403H9.37933C9.21586 7.92403 9.08287 8.05703 9.08287 8.2205V8.49647Z" fill="black"/>
<path d="M7.36778 7.49371H7.64375C8.04447 7.49371 8.37048 7.81976 8.37048 8.2205V8.49647C8.37048 8.89721 8.04447 9.22325 7.64375 9.22325H7.36778C6.96704 9.22325 6.64105 8.89721 6.641 8.49647V8.2205C6.64103 7.81976 6.96704 7.49371 7.36778 7.49371ZM7.07137 8.49647C7.07137 8.65993 7.20437 8.79293 7.36783 8.79293H7.6438C7.80727 8.79293 7.94024 8.65993 7.94024 8.49647V8.2205C7.94024 8.05703 7.80727 7.92403 7.6438 7.92403H7.36783C7.20437 7.92403 7.07137 8.05703 7.07137 8.2205V8.49647Z" fill="black"/>
<path d="M5.35631 7.49371H5.63228C6.03299 7.49371 6.35901 7.81976 6.35901 8.2205V8.49647C6.35901 8.89721 6.03299 9.22325 5.63228 9.22325H5.35631C4.95557 9.22325 4.62958 8.89721 4.62958 8.49647V8.2205C4.62955 7.81976 4.95557 7.49371 5.35631 7.49371ZM5.0599 8.49647C5.0599 8.65993 5.19287 8.79293 5.35633 8.79293H5.6323C5.79577 8.79293 5.92874 8.65993 5.92874 8.49647V8.2205C5.92874 8.05703 5.79577 7.92403 5.6323 7.92403H5.35633C5.19287 7.92403 5.0599 8.05703 5.0599 8.2205V8.49647Z" fill="black"/>
<path d="M9.37933 9.65926H9.6553C10.056 9.65926 10.3821 9.98527 10.3821 10.386V10.662C10.3821 11.0627 10.056 11.3887 9.6553 11.3887H9.37933C8.97859 11.3887 8.6526 11.0627 8.65255 10.662V10.386C8.65257 9.98525 8.97859 9.65926 9.37933 9.65926ZM9.08287 10.662C9.08287 10.8254 9.21586 10.9584 9.37933 10.9584H9.6553C9.81876 10.9584 9.95176 10.8254 9.95176 10.662V10.386C9.95176 10.2225 9.81876 10.0896 9.6553 10.0896H9.37933C9.21586 10.0896 9.08287 10.2225 9.08287 10.386V10.662Z" fill="black"/>
<path d="M7.36778 9.65926H7.64375C8.04447 9.65926 8.37048 9.98527 8.37048 10.386V10.662C8.37048 11.0627 8.04447 11.3887 7.64375 11.3887H7.36778C6.96704 11.3887 6.64105 11.0627 6.641 10.662V10.386C6.64103 9.98525 6.96704 9.65926 7.36778 9.65926ZM7.07137 10.662C7.07137 10.8254 7.20437 10.9584 7.36783 10.9584H7.6438C7.80727 10.9584 7.94024 10.8254 7.94024 10.662V10.386C7.94024 10.2225 7.80727 10.0896 7.6438 10.0896H7.36783C7.20437 10.0896 7.07137 10.2225 7.07137 10.386V10.662Z" fill="black"/>
<path d="M5.35631 9.65926H5.63228C6.03299 9.65926 6.35901 9.98527 6.35901 10.386V10.662C6.35901 11.0627 6.03299 11.3887 5.63228 11.3887H5.35631C4.95557 11.3887 4.62958 11.0627 4.62958 10.662V10.386C4.62955 9.98525 4.95557 9.65926 5.35631 9.65926ZM5.0599 10.662C5.0599 10.8254 5.19287 10.9584 5.35633 10.9584H5.6323C5.79577 10.9584 5.92874 10.8254 5.92874 10.662V10.386C5.92874 10.2225 5.79577 10.0896 5.6323 10.0896H5.35633C5.19287 10.0896 5.0599 10.2225 5.0599 10.386V10.662Z" fill="black"/>
<path d="M3.34466 7.49374H3.62063C4.02137 7.49374 4.34741 7.81978 4.34741 8.22053V10.662C4.34741 11.0627 4.02137 11.3887 3.62063 11.3887H3.34466C2.94392 11.3887 2.61793 11.0627 2.61788 10.662V8.22053C2.61788 7.81978 2.94392 7.49374 3.34466 7.49374ZM3.0482 10.662C3.0482 10.8255 3.1812 10.9584 3.34466 10.9584H3.62063C3.7841 10.9584 3.91709 10.8255 3.91709 10.662V8.22055C3.91709 8.05709 3.7841 7.92409 3.62063 7.92409H3.34466C3.1812 7.92409 3.0482 8.05709 3.0482 8.22055V10.662Z" fill="black"/>
</svg>
