<svg width="20" height="19" viewBox="0 0 20 19" fill="none" xmlns="http://www.w3.org/2000/svg">
<path d="M9.04356 9.42089L0.190711 17.8168C-0.0552365 18.05 -0.0552365 18.4279 0.190711 18.6611C0.313528 18.7779 0.474784 18.836 0.635728 18.836C0.796984 18.836 0.957928 18.7779 1.08075 18.6611L10.0002 10.2022L18.9196 18.6611C19.0427 18.7779 19.2036 18.836 19.3646 18.836C19.5255 18.836 19.6868 18.7779 19.8096 18.6611C20.0555 18.4279 20.0555 18.05 19.8096 17.8168L10.9571 9.42089L19.8155 1.0191C20.0615 0.785852 20.0615 0.407967 19.8155 0.174716C19.5696 -0.0582387 19.1711 -0.0582387 18.9255 0.174716L10.0005 8.63963L1.0745 0.175013C0.828548 -0.0579423 0.430407 -0.0579423 0.18446 0.175013C-0.0614868 0.408264 -0.0614868 0.786149 0.18446 1.0194L9.04356 9.42089Z" fill="#242424"/>
</svg>
