<svg width="15" height="13" viewBox="0 0 15 13" fill="none" xmlns="http://www.w3.org/2000/svg">
<path d="M0.229813 6.2706L14.7702 6.27059C14.897 6.27059 15 6.37355 15 6.50041C15 6.62727 14.897 6.73022 14.7702 6.73022L0.229813 6.73023C0.102955 6.73023 -1.91635e-06 6.62727 -1.92744e-06 6.50041C-1.93853e-06 6.37355 0.102955 6.2706 0.229813 6.2706Z" fill="#242424"/>
<path d="M9.00781 0.508562C9.06664 0.508562 9.12548 0.531084 9.17052 0.575668L14.9329 6.3385C14.9756 6.3817 15 6.44008 15 6.50121C15 6.56234 14.9756 6.62071 14.9329 6.66392L9.17006 12.424C9.08043 12.5136 8.93473 12.5136 8.8451 12.424C8.75548 12.3344 8.75548 12.1887 8.8451 12.099L14.4452 6.50121L8.8451 0.901085C8.75548 0.811457 8.75548 0.665756 8.8451 0.576128C8.89015 0.531084 8.94898 0.508562 9.00781 0.508562Z" fill="#242424"/>
</svg>
