<svg width="15" height="13" viewBox="0 0 15 13" fill="none" xmlns="http://www.w3.org/2000/svg">
<path d="M14.7702 6.7294H0.229815C0.102957 6.7294 0 6.62645 0 6.49959C0 6.37273 0.102957 6.26978 0.229815 6.26978H14.7702C14.897 6.26978 15 6.37273 15 6.49959C15 6.62645 14.897 6.7294 14.7702 6.7294Z" fill="#242424"/>
<path d="M5.99219 12.4914C5.93335 12.4914 5.87452 12.4689 5.82948 12.4243L0.0671059 6.6615C0.0243603 6.61829 0 6.55992 0 6.49879C0 6.43766 0.0243603 6.37929 0.0671059 6.33608L5.82994 0.57601C5.91957 0.486382 6.06527 0.486382 6.1549 0.57601C6.24452 0.665637 6.24452 0.81134 6.1549 0.900968L0.554773 6.49879L6.1549 12.0989C6.24452 12.1885 6.24452 12.3342 6.1549 12.4239C6.10985 12.4689 6.05102 12.4914 5.99219 12.4914Z" fill="#242424"/>
</svg>
