<svg width="19" height="13" viewBox="0 0 19 13" fill="none" xmlns="http://www.w3.org/2000/svg">
<path d="M14.3776 3.39113C10.045 3.39113 10.0394 7.70732 10.0394 7.72952C10.0394 7.72952 9.74263 12.0511 14.3776 12.0511C14.3776 12.0511 18.2429 12.2709 18.2429 9.04347H16.2581C16.2581 9.04347 16.3239 10.2585 14.4436 10.2585C14.4436 10.2585 12.4588 10.3906 12.4588 8.29558H18.309C18.309 8.29558 18.9523 3.39113 14.3776 3.39113ZM12.4366 6.78349C12.4366 6.78349 12.6786 5.046 14.4217 5.046C16.1701 5.046 16.1426 6.78349 16.1426 6.78349H12.4366ZM7.47758 5.67303C7.47758 5.67303 9.19849 5.54655 9.19849 3.52322C9.19849 1.5055 7.79096 0.515625 6.004 0.515625H0.125977V11.8144H6.00346C6.00346 11.8144 9.59396 11.9246 9.59396 8.47714C9.59423 8.47714 9.74825 5.67303 7.47758 5.67303ZM2.71591 2.52238H6.00373C6.00373 2.52238 6.80108 2.52238 6.80108 3.69889C6.80108 4.87541 6.33369 5.046 5.80024 5.046H2.71591V2.52238ZM5.83902 9.80767H2.71591V6.78349H6.00373C6.00373 6.78349 7.19709 6.77253 7.19147 8.33943C7.19147 9.65927 6.30641 9.7967 5.83902 9.80767ZM11.9473 1.18089V2.57211H16.61V1.18089H11.9473Z" fill="white"/>
</svg>
