<svg width="18" height="18" viewBox="0 0 18 18" fill="none" xmlns="http://www.w3.org/2000/svg">
<path d="M13.0325 0H4.96721C2.22829 0 0 2.2284 0 4.96732V13.0326C0 15.7716 2.22829 17.9999 4.96721 17.9999H13.0325C15.7716 17.9999 17.9999 15.7715 17.9999 13.0326V4.96732C18 2.2284 15.7716 0 13.0325 0ZM16.403 13.0326C16.403 14.891 14.891 16.4029 13.0326 16.4029H4.96721C3.1089 16.403 1.59704 14.891 1.59704 13.0326V4.96732C1.59704 3.10901 3.1089 1.59704 4.96721 1.59704H13.0325C14.8909 1.59704 16.4029 3.10901 16.4029 4.96732V13.0326H16.403Z" fill="white"/>
<path d="M8.99993 4.36206C6.44244 4.36206 4.36182 6.44268 4.36182 9.00018C4.36182 11.5576 6.44244 13.6381 8.99993 13.6381C11.5574 13.6381 13.6381 11.5576 13.6381 9.00018C13.6381 6.44268 11.5574 4.36206 8.99993 4.36206ZM8.99993 12.0409C7.32315 12.0409 5.95885 10.6769 5.95885 9.00007C5.95885 7.32318 7.32304 5.95899 8.99993 5.95899C10.6768 5.95899 12.041 7.32318 12.041 9.00007C12.041 10.6769 10.6767 12.0409 8.99993 12.0409Z" fill="white"/>
<path d="M13.8328 3.00793C13.5251 3.00793 13.2228 3.1325 13.0055 3.35077C12.7871 3.56796 12.6616 3.87033 12.6616 4.1791C12.6616 4.4869 12.7873 4.78916 13.0055 5.00743C13.2227 5.22462 13.5251 5.35026 13.8328 5.35026C14.1415 5.35026 14.4428 5.22462 14.6611 5.00743C14.8794 4.78916 15.0039 4.48679 15.0039 4.1791C15.0039 3.87033 14.8794 3.56796 14.6611 3.35077C14.4439 3.1325 14.1415 3.00793 13.8328 3.00793Z" fill="white"/>
</svg>
