<svg width="83" height="84" fill="none" xmlns="http://www.w3.org/2000/svg"><path d="M75.913 65.386l-7.085-7.085c-2.834 4.858-7.085 8.907-11.741 11.539-2.834 1.62-6.074 2.834-9.312 3.441a30.9 30.9 0 01-6.073.608c-7.895 0-15.386-3.037-21.256-8.3l-.203-.203-.202-.202-.202-.203-.203-.202c-.405-.405-.81-.81-1.214-1.417l-.203.203c0-.203-.202-.203-.202-.405-.405-.405-.81-.81-1.012-1.215-.203-.202-.203-.202-.203-.405l-.202-.202-.405-.405v-.203l-.203-.202c0-.203-.202-.203-.202-.405v-.405c-.81-.405-1.215-1.012-1.62-1.62l-7.085 7.086a43.685 43.685 0 005.466 6.68l.81.608c7.692 7.085 17.611 11.134 28.138 11.134 4.656 0 9.312-.81 13.563-2.227 3.037-1.013 6.073-2.43 8.705-4.251 5.06-3.24 8.907-7.086 12.146-11.742z" fill="#00AFAA"/><path d="M48.382 23.887L30.162 42.31 19.84 31.985l-9.515 9.11-.607.607v-1.013c.202-8.3 3.644-16.194 9.717-22.065 6.073-5.87 13.968-9.11 22.268-9.11 17.611 0 31.984 14.373 31.984 32.188 0 2.024-.202 4.048-.607 6.275v.405L48.382 23.887zM41.499 0C18.624 0 0 18.624 0 41.904c0 3.036.405 5.87 1.012 8.907l.405 1.822c.607 2.43 1.417 4.454 2.227 6.275l.81 1.822 14.98-15.182 3.644 3.441-8.908 9.11c.405.607.608 1.012 1.013 1.62v.404c0 .203.202.203.202.405l.203.203v.202c.404 0 .607.202.607.202l.202.203c0 .202.203.202.203.405.404.404.607.81 1.012 1.214.405.405.607.405.607.608l.203.202c.607.607 1.012 1.012 1.214 1.417l.203.203.202.202.203.202.202.203 27.936-28.139 20.446 20.446 6.883 7.085.405-.607c1.619-2.43 3.036-5.06 4.048-7.895l.405-1.012C82.19 51.418 83 46.56 83 41.904A41.388 41.388 0 0041.498 0z" fill="#006072"/></svg>