<svg width="512" height="112" fill="none" xmlns="http://www.w3.org/2000/svg"><path d="M252 46.2c-1.2-2.7-2.5-5-4.6-7.4-3.7-3.7-8.3-5.6-13.7-5.6-5.4 0-9.9 1.9-13.7 5.6-2.1 2.1-3.7 4.6-4.6 7.4H252zm-3.7 19.4h15.3c-1.5 3.5-3.7 7-6.8 9.9-6.4 6.4-13.9 9.5-22.8 9.5s-16.6-3.3-22.8-9.5c-6.2-6.2-9.5-13.9-9.5-22.8s3.3-16.6 9.5-22.8c6.2-6.2 13.9-9.5 22.8-9.5s16.6 3.3 22.8 9.5c6.2 6.2 9.5 13.9 9.5 22.8 0 2.1-.2 4.3-.6 6.4h-50.3c1.2 2.7 2.5 5 4.6 7.4 3.7 3.7 8.3 5.6 13.7 5.6 5.4 0 9.9-1.9 13.7-5.6.3-.5.5-.7.9-.9zm-103.9-13c0 5.4 1.9 9.9 5.6 13.7 3.7 3.7 8.3 5.6 13.7 5.6 5.4 0 9.9-1.9 13.7-5.6 3.7-3.7 5.6-8.3 5.6-13.7 0-5.4-1.9-9.9-5.6-13.7-3.7-3.7-8.3-5.6-13.7-5.6-5.4 0-9.9 1.9-13.7 5.6-3.7 3.8-5.6 8.3-5.6 13.7zm51.8 0v25.7c0 8.9-3.3 16.6-9.5 22.8-6.2 6.2-13.9 9.5-22.8 9.5v-13c5.4 0 9.9-1.9 13.7-5.6 3.7-3.7 5.6-8.3 5.6-13.7-5.6 4.3-12.2 6.4-19.4 6.4-8.9 0-16.6-3.3-22.8-9.5-6.2-6.2-9.5-13.9-9.5-22.8s3.3-16.6 9.5-22.8c6.2-6.2 13.9-9.5 22.8-9.5s16.6 3.3 22.8 9.5c6.5 6.5 9.6 14.1 9.6 23zm75.1-45.7h13v13.4h19.4v13h-19.4v19.4c0 5.4 1.9 9.9 5.6 13.7 3.7 3.7 8.3 5.6 13.7 5.6v13c-8.9 0-16.6-3.3-22.8-9.5-6.2-6.2-9.5-13.9-9.5-22.8V6.9zM101.4 87.1l-9.5-9.5c-3.7 6.4-9.5 11.8-15.7 15.3-3.7 2.1-8.1 3.7-12.4 4.6-2.7.6-5.4.8-8.1.8-10.5 0-20.5-4.1-28.3-11l-.2-.2-.2-.2-.2-.2-.2-.2c-.6-.6-1.2-1.2-1.5-1.9l-.2.2c0-.2-.2-.2-.2-.6-.6-.6-1.2-1.2-1.4-1.5-.2-.2-.2-.2-.2-.6l-.1-.3-.6-.6V81l-.6-.6c0-.2-.2-.2-.2-.6v-.4c-1.2-.6-1.5-1.4-2.1-2.1L10 86.9c2.1 3.3 4.6 6.2 7.4 8.9l1.2.8c10.3 9.5 23.4 14.7 37.4 14.7 6.2 0 12.4-1.2 18-2.9 4.1-1.4 8.1-3.3 11.6-5.6 6.3-4.5 11.5-9.5 15.8-15.7z" fill="#00AFAA"/><path d="M330 38.9c-3.7 3.7-5.6 8.3-5.6 13.7 0 5.4 1.9 9.9 5.6 13.7 3.7 3.7 8.3 5.6 13.7 5.6 5.4 0 9.9-1.9 13.7-5.6 3.7-3.7 5.6-8.3 5.6-13.7 0-5.4-1.9-9.9-5.6-13.7-3.7-3.7-8.3-5.6-13.7-5.6-5.4 0-10 1.9-13.7 5.6zm-18.6-32h13v19.6c5.6-4.3 12.2-6.4 19.4-6.4 8.9 0 16.6 3.3 22.8 9.5 6.2 6.2 9.5 13.9 9.5 22.8s-3.3 16.6-9.5 22.8c-6.2 6.2-13.9 9.5-22.8 9.5s-16.6-3.3-22.8-9.5c-6.2-6.2-9.5-13.9-9.5-22.8V6.9h-.1zM431 46.2c-1.2-2.7-2.5-5-4.6-7.4-3.7-3.7-8.3-5.6-13.7-5.6-5.4 0-9.9 1.9-13.7 5.6-2.1 2.1-3.7 4.6-4.6 7.4H431zm-3.6 19.4h15.3c-1.5 3.5-3.7 7-6.8 9.9-6.4 6.4-13.9 9.5-22.8 9.5s-16.6-3.3-22.8-9.5c-6.2-6.2-9.5-13.9-9.5-22.8s3.3-16.6 9.5-22.8c6.2-6.2 13.9-9.5 22.8-9.5s16.6 3.3 22.8 9.5c6.2 6.2 9.5 13.9 9.5 22.8 0 2.1-.2 4.3-.6 6.4h-49.9c1.2 2.7 2.5 5 4.6 7.4 3.7 3.7 8.3 5.6 13.7 5.6 5.4 0 9.9-1.9 13.7-5.6-.1-.5.3-.7.5-.9zM459.7 52c-1.2-.8-2.1-1.9-3.5-2.9-6.4-6.2-9.5-13.9-9.5-22.8v-6.4h13v6.4c0 5.4 1.9 9.9 5.6 13.7 3.7 3.7 8.3 5.6 13.7 5.6 5.4 0 9.9-1.9 13.7-5.6 3.7-3.7 5.6-8.3 5.6-13.7v-6.4h13v6.4c0 8.9-3.3 16.5-9.5 22.8-1.2 1.2-2.1 2.1-3.5 2.9 1.2.8 2.5 1.9 3.5 2.9 6.2 6.4 9.5 13.9 9.5 22.8v6.4h-13v-6.4c0-5.4-1.9-9.9-5.6-13.7-3.7-3.7-8.3-5.6-13.7-5.6-5.4 0-9.9 1.9-13.7 5.6-3.7 3.7-5.6 8.3-5.6 13.7v6.4h-12.6v-6.4c0-8.9 3.3-16.6 9.5-22.8.9-.9 1.9-1.7 3.1-2.9zM64.8 31.9L40.6 56.3 26.9 42.7 14.3 54.9l-.8.8v-1.4c.2-11 4.8-21.5 13-29.2 8.2-7.7 18.6-12.2 29.6-12.2 23.4 0 42.6 19.2 42.6 42.8 0 2.7-.2 5.4-.8 8.3v.4L64.8 31.9zM55.7.1C25.3.1.5 24.9.5 55.9c0 4.1.6 7.7 1.4 11.8l.6 2.3c.8 3.3 1.9 6 2.9 8.3l1.2 2.5 19.9-20.1 4.8 4.6-11.8 12.3c.6.8.8 1.4 1.4 2.1v.4c0 .2.2.2.2.6l.2.2v.2c.6 0 .8.2.8.2l.2.2c0 .2.2.2.2.6.6.6.8 1.2 1.4 1.5.6.6.8.6.8.8l.2.2c.8.8 1.4 1.4 1.5 1.9l.2.2.2.2.2.2.2.2 37.7-36.8L92 77.6l9.1 9.5.6-.8c2.1-3.3 4.1-6.8 5.4-10.5l.6-1.4c2.1-6 3.3-12.4 3.3-18.6C111.1 24.9 86.3.1 55.7.1z" fill="#fff"/></svg>