<svg width="16" height="31" fill="none" xmlns="http://www.w3.org/2000/svg"><path d="M.032 7.257v-7.2C.032.04.008 0 .056 0c.017.016.025.04.04.056l.662.662c.508.491 1 1 1.508 1.491.475.46.943.927 1.41 1.395.484.484.984.968 1.476 1.451.468.46.936.928 1.403 1.395.299.29.589.597.895.88.202.185.395.394.589.588.467.46.927.919 1.387 1.379.233.233.475.467.717.701.258.25.508.508.766.758.46.46.92.927 1.387 1.379.298.29.58.596.895.879.201.185.387.387.58.58.468.452.928.92 1.387 1.379l.508.508v.08c-.145.13-.274.275-.427.396-.17.137-.306.306-.46.46-.475.467-.943.934-1.41 1.41-.444.444-.888.871-1.323 1.33-.072.081-.17.13-.25.21-.387.395-.782.774-1.169 1.177-.129.137-.274.267-.411.395-.387.387-.766.774-1.153 1.154-.234.225-.46.467-.702.685-.266.234-.508.508-.766.758-.467.46-.927.927-1.395 1.395-.491.483-.975.983-1.475 1.459-.476.451-.935.927-1.403 1.395-.427.427-.863.863-1.282 1.306-.17.177-.363.339-.54.516-.282.282-.565.556-.839.847-.161.17-.338.33-.508.492-.048.048-.088.064-.153.048V23.77c.145-.113.282-.242.42-.371.12-.113.225-.234.346-.355.347-.347.685-.702 1.04-1.032.13-.121.242-.25.371-.38.468-.467.927-.934 1.411-1.386.379-.355.726-.734 1.097-1.088.112-.105.217-.226.33-.34.363-.362.718-.733 1.097-1.08.12-.112.225-.233.338-.346.186-.186.371-.387.573-.557.185-.153.347-.346.532-.516.113-.096.21-.21.306-.314.137-.145.283-.282.42-.427.056-.057.056-.09-.016-.13a.323.323 0 01-.097-.08l-.476-.476c-.468-.467-.935-.943-1.411-1.41-.476-.476-.96-.952-1.435-1.436-.04-.04-.097-.064-.145-.113l-1.347-1.346c-.46-.46-.919-.92-1.379-1.371-.21-.21-.41-.42-.628-.613-.283-.258-.54-.532-.807-.798a6.492 6.492 0 00-.508-.548z" fill="#dadada"/></svg>