<svg width="28" height="28" fill="none" xmlns="http://www.w3.org/2000/svg"><path d="M6.373 2.729c.442.017.846.137 1.203.404.425.313.855.614 1.285.928.06.043.107.051.176.013a9.272 9.272 0 011.366-.572c.078-.026.095-.077.108-.142.09-.528.184-1.052.266-1.581.146-.928.834-1.603 1.766-1.719.056-.008.116-.004.176-.004h2.501c.86 0 1.663.614 1.874 1.448.129.503.198 1.014.266 1.525.039.284.13.447.426.525.412.107.795.3 1.177.49.073.034.125.025.19-.018.45-.326.902-.653 1.361-.97a1.99 1.99 0 012.544.231c.567.568 1.135 1.139 1.706 1.706.391.387.58.864.589 1.401.009.43-.125.83-.378 1.186-.314.438-.623.877-.941 1.315-.052.073-.056.125-.017.206.214.43.4.873.55 1.332.025.082.064.12.154.138.576.094 1.152.176 1.72.305.85.19 1.348.743 1.525 1.59a1.3 1.3 0 01.025.284c0 .816-.008 1.632 0 2.445a1.99 1.99 0 01-1.65 2.002c-.55.095-1.096.185-1.646.275-.073.013-.107.039-.128.107a9.797 9.797 0 01-.568 1.371c-.038.073-.021.13.022.19.318.442.631.889.95 1.331a2.014 2.014 0 01-.198 2.557c-.576.585-1.16 1.17-1.745 1.745a2.014 2.014 0 01-2.557.193c-.442-.318-.89-.631-1.332-.954-.064-.047-.116-.051-.189-.017-.438.22-.893.404-1.362.559-.073.026-.099.064-.112.137-.098.58-.18 1.165-.305 1.74-.18.847-.872 1.449-1.727 1.543-.06.009-.125.005-.185.005-.808 0-1.616-.005-2.424 0a1.984 1.984 0 01-1.98-1.62c-.1-.555-.19-1.11-.28-1.668-.013-.073-.043-.116-.111-.142-.452-.15-.894-.33-1.324-.541-.06-.03-.103-.021-.159.017-.46.327-.92.658-1.38.98a2.009 2.009 0 01-2.548-.206 236.78 236.78 0 01-1.736-1.736 2.017 2.017 0 01-.189-2.579c.314-.434.623-.868.941-1.302.048-.064.052-.116.013-.184a9.637 9.637 0 01-.567-1.358c-.021-.065-.052-.1-.129-.112-.541-.09-1.083-.185-1.624-.275-.933-.163-1.56-.808-1.693-1.749-.009-.06-.009-.125-.009-.185 0-.8.009-1.603-.004-2.402-.017-1.01.687-1.843 1.616-2.01.55-.1 1.104-.19 1.654-.284.077-.013.116-.048.137-.117.15-.476.336-.936.563-1.383.03-.065.018-.108-.021-.16-.318-.446-.636-.893-.958-1.34a1.95 1.95 0 01-.383-1.237c.017-.499.18-.95.537-1.311a119.41 119.41 0 011.81-1.805c.373-.374.846-.524 1.362-.541zM14.02 25.82h.907c.155 0 .155 0 .176-.15.116-.696.232-1.392.353-2.084.081-.477.36-.778.833-.902.202-.052.4-.117.593-.181a10.097 10.097 0 001.685-.77c.408-.227.816-.206 1.203.065.58.409 1.156.821 1.732 1.238.081.06.129.056.197-.017.439-.447.881-.89 1.328-1.328.06-.06.069-.103.017-.172-.408-.567-.807-1.139-1.216-1.706-.3-.421-.326-.85-.068-1.298a9.168 9.168 0 00.932-2.243c.125-.468.425-.739.898-.82.692-.12 1.384-.233 2.076-.349.159-.025.159-.025.159-.18V13.11c0-.155 0-.155-.16-.181-.691-.116-1.383-.232-2.075-.352-.443-.078-.756-.323-.877-.765a10.055 10.055 0 00-.98-2.364c-.223-.39-.201-.795.057-1.164.416-.597.842-1.186 1.267-1.78.048-.068.043-.107-.017-.162-.442-.439-.885-.877-1.32-1.32-.08-.081-.132-.086-.223-.021-.567.412-1.138.825-1.71 1.229-.395.283-.812.288-1.229.051a9.298 9.298 0 00-2.325-.954c-.434-.111-.713-.382-.799-.816a72.287 72.287 0 01-.37-2.149c-.016-.107-.05-.146-.167-.146-.614.005-1.229.005-1.843 0-.108 0-.146.035-.164.138-.116.7-.232 1.396-.352 2.097-.082.477-.357.786-.825.91-.103.027-.202.057-.305.087a9.138 9.138 0 00-1.934.855c-.27.159-.554.223-.868.137-.163-.043-.3-.12-.438-.214-.554-.396-1.108-.79-1.658-1.186-.082-.06-.133-.065-.21.012-.439.443-.877.886-1.32 1.32-.068.068-.068.116-.013.189.426.593.856 1.186 1.272 1.787.254.37.271.77.052 1.156a9.179 9.179 0 00-.933 2.273c-.128.503-.45.778-.953.86-.684.111-1.371.232-2.054.344-.078.013-.117.038-.117.124.005.64.005 1.28 0 1.921 0 .073.026.099.1.112.377.06.751.124 1.13.193.373.065.747.12 1.117.198.412.09.674.356.786.765.082.288.168.571.275.85.19.503.426.98.692 1.444.236.409.228.825-.043 1.216-.408.585-.825 1.165-1.242 1.74-.056.078-.051.125.017.19.443.438.885.876 1.32 1.319.077.082.124.073.206.013.588-.421 1.177-.847 1.77-1.26.378-.266.787-.27 1.186-.046a9.543 9.543 0 002.278.928c.094.026.184.064.27.116.327.202.464.511.52.876.103.67.224 1.341.331 2.011.013.09.052.12.142.116.31.01.619.013.932.013z" fill="#006072"/><path d="M20.23 14.013a6.194 6.194 0 01-6.243 6.205 6.182 6.182 0 01-6.17-6.257 6.188 6.188 0 016.286-6.157 6.195 6.195 0 016.128 6.209zm-2.174 0c.013-2.217-1.822-4.018-3.992-4.04-2.208-.017-4.069 1.771-4.073 4.023a4.042 4.042 0 004.026 4.048 4.038 4.038 0 004.04-4.031z" fill="#006072"/></svg>