<svg width="23" height="29" fill="none" xmlns="http://www.w3.org/2000/svg"><path d="M23.043 4.083v17.003c-.06.16-.114.32-.238.443-.372.38-.74.766-1.116 1.145-.684.691-1.372 1.379-2.052 2.073-.425.433-.837.883-1.269 1.308a69.103 69.103 0 00-1.602 1.62c-.262.272-.556.517-.786.822a.382.382 0 01-.114.081 1.15 1.15 0 01-.62.16c-3.615-.004-7.233 0-10.848-.004-.191 0-.383-.003-.567-.039-1.035-.188-1.928-.634-2.637-1.428-.74-.822-1.159-1.786-1.159-2.899C.028 17.83.032 11.291.028 4.748c0-.807.227-1.551.624-2.246.383-.66.91-1.19 1.57-1.577A4.474 4.474 0 014.104.308h14.91c.283.029.563.078.835.16.844.259 1.567.702 2.141 1.375.308.361.57.758.744 1.208.131.337.227.68.308 1.032zM2.296 14.537v9.547c0 .284.011.564.1.83.308.921 1.12 1.556 2.108 1.556 3.137-.004 6.27 0 9.406 0 .24 0 .24 0 .24-.234 0-1.255-.003-2.506.004-3.76.004-.39.082-.78.26-1.12.559-1.06 1.434-1.634 2.657-1.63h3.441c.308 0 .308 0 .308-.302V13.78c0-2.956-.003-5.911 0-8.867 0-.67-.19-1.251-.683-1.73a2.101 2.101 0 00-1.482-.613 9484.64 9484.64 0 00-14.193 0c-.72 0-1.287.337-1.719.897-.333.436-.45.936-.45 1.478.003 3.196.003 6.397.003 9.593z" fill="#006072"/><path d="M17.351 15.196c-.021.536-.22 1.003-.72 1.276-.45.248-.946.326-1.46.238-.414-.075-.754-.291-1.084-.532-.209-.152-.407-.319-.606-.482-.064-.053-.124-.07-.202-.039-.89.323-1.793.596-2.676.936-.226.088-.446.191-.673.28-.092.035-.135.099-.18.184-.401.762-.727 1.566-1.227 2.272a1.564 1.564 0 01-2.57.053c-.28-.394-.322-.83-.223-1.3.178-.816.727-1.309 1.4-1.713.436-.262.872-.517 1.326-.747a.382.382 0 00.173-.178c.32-.627.596-1.268.805-1.942.188-.61.411-1.208.613-1.814.064-.192.11-.386.17-.578.028-.092-.014-.163-.05-.237a6.425 6.425 0 01-.57-1.489c-.156-.659-.145-1.31.124-1.942.191-.45.493-.783.989-.907.397-.1.74.01 1.052.248.43.33.546.805.631 1.304.114.652-.057 1.269-.177 1.896-.043.223-.089.447-.135.666a.328.328 0 00.036.23c.513.919 1.063 1.815 1.7 2.652.086.113.178.138.313.117a5.576 5.576 0 011.924.042c.705.138 1.247.713 1.29 1.379.007.035.007.07.007.127zm-6.429-.598c.376-.128.716-.249 1.063-.359.132-.042.121-.092.054-.187-.181-.252-.348-.514-.525-.77-.025-.035-.039-.088-.113-.095l-.479 1.41z" fill="#006072"/></svg>