<svg width="28" height="24" fill="none" xmlns="http://www.w3.org/2000/svg"><g clip-path="url(#clip0)" fill="#006072"><path d="M0 .667C.05.556.086.444.167.348a.837.837 0 01.84-.334 9.117 9.117 0 012.03.577c.755.319 1.423.77 2 1.347a7.777 7.777 0 011.266 1.686c.147.263.304.521.425.79.046.096.112.106.203.106h19.218c.314 0 .567.111.755.364.07.097.111.193.111.314v1.266c0 .101-.02.192-.08.268-.527.664-.856 1.428-1.17 2.203-.203.506-.37 1.027-.547 1.544-.213.612-.415 1.235-.643 1.843a13.08 13.08 0 01-.517 1.195 4.484 4.484 0 01-.648.946 6.248 6.248 0 01-1.468 1.215c-.44.269-.906.486-1.387.669-.79.298-1.61.496-2.445.607-.552.076-1.104.132-1.666.147a14.35 14.35 0 01-1.98-.096 11.748 11.748 0 01-1.827-.345 9.837 9.837 0 01-2.127-.84 6.526 6.526 0 01-1.751-1.377 4.41 4.41 0 01-.866-1.413c-.289-.77-.572-1.539-.856-2.308-.243-.663-.47-1.327-.729-1.985a29.99 29.99 0 00-.86-2.04 15.083 15.083 0 00-.755-1.413c-.45-.708-.982-1.346-1.696-1.812a5.49 5.49 0 00-1.488-.674c-.284-.08-.567-.126-.85-.207-.3-.086-.507-.263-.608-.557-.01-.025-.026-.046-.036-.066C0 1.533 0 1.098 0 .667zm16.074 6.47H8.065c-.157 0-.157.005-.101.152l.486 1.286c.126.334.243.674.37 1.013.197.536.41 1.068.592 1.61a3.55 3.55 0 00.926 1.478c.42.4.917.699 1.438.942.45.207.917.37 1.402.496a11.812 11.812 0 003.534.344c.416-.02.82-.076 1.23-.126a8.72 8.72 0 001.97-.502c.663-.248 1.296-.572 1.838-1.048a3.25 3.25 0 00.825-1.083c.218-.47.395-.952.567-1.443.35-.987.658-1.99 1.043-2.962.06-.152.06-.152-.106-.152-2.678-.005-5.341-.005-8.005-.005zm-9.209 13.27a3.14 3.14 0 013.154-3.164 3.154 3.154 0 013.154 3.316 3.15 3.15 0 01-3.184 3.002 3.142 3.142 0 01-3.124-3.154zm12.384-.01c-.015-1.727 1.387-3.15 3.149-3.154a3.146 3.146 0 013.16 3.27 3.157 3.157 0 01-3.18 3.048c-1.727-.005-3.154-1.438-3.13-3.164z"/></g><defs><clipPath id="clip0"><path fill="#fff" d="M0 0h28v24H0z"/></clipPath></defs></svg>