<svg width="23" height="22" fill="none" xmlns="http://www.w3.org/2000/svg"><path d="M.02 7.594c.02-.246.035-.493.064-.737C.26 5.414.71 4.074 1.642 2.932 2.56 1.8 3.758 1.139 5.194.907a7.061 7.061 0 012.893.118c.948.239 1.79.684 2.52 1.337.311.278.584.59.833.92.082.107.084.11.165-.008.481-.691 1.106-1.22 1.826-1.642.757-.44 1.575-.68 2.444-.777a6.985 6.985 0 012.329.117c1.737.388 3.001 1.4 3.853 2.949.498.904.764 1.876.895 2.893.268 2.073-.254 3.968-1.295 5.744-.61 1.041-1.354 1.98-2.18 2.855-1.57 1.67-3.37 3.054-5.29 4.294-.763.493-1.55.948-2.352 1.376a.635.635 0 01-.63 0 31.725 31.725 0 01-5.495-3.662c-1.364-1.127-2.608-2.37-3.642-3.81-.783-1.089-1.405-2.264-1.764-3.568A7.678 7.678 0 01.03 8.346c0-.036-.009-.07-.013-.106.002-.215.002-.43.002-.646zm6.3-5.284a5.114 5.114 0 00-.722.048c-1.455.194-2.563.912-3.305 2.182-.426.728-.663 1.518-.778 2.346-.1.723-.098 1.445.033 2.166.202 1.096.659 2.087 1.245 3.023.809 1.29 1.829 2.402 2.944 3.432.93.859 1.922 1.641 2.958 2.367a26.632 26.632 0 002.678 1.67c.098.053.175.058.278.005a22.535 22.535 0 001.989-1.192 29.205 29.205 0 003.324-2.542c.883-.787 1.711-1.625 2.446-2.553.72-.912 1.338-1.886 1.747-2.982.292-.78.46-1.585.445-2.42a7.719 7.719 0 00-.07-.94c-.13-.987-.425-1.913-1.002-2.736-.56-.8-1.3-1.362-2.24-1.652a5.59 5.59 0 00-2.614-.148c-1.472.254-2.577 1.027-3.286 2.355-.093.177-.148.371-.239.548a.694.694 0 01-1.182.11c-.072-.093-.11-.203-.153-.309a4.313 4.313 0 00-1.82-2.108c-.804-.484-1.687-.67-2.675-.67z" fill="#006072"/></svg>