<svg width="32" height="19" fill="none" xmlns="http://www.w3.org/2000/svg"><g clip-path="url(#clip0)" fill="#006072"><path d="M15.843 18.994c-1.431.03-2.755-.202-4.062-.564a15.27 15.27 0 01-2.511-.95 18.683 18.683 0 01-2.809-1.645 25.082 25.082 0 01-2.036-1.597 29.074 29.074 0 01-1.093-1.003 30.83 30.83 0 01-.872-.89 38.077 38.077 0 01-1.235-1.36c-.28-.297-.547-.594-.76-.927-.19-.303-.19-.641-.054-.968.13-.308.35-.558.57-.807.285-.32.558-.647.85-.962.171-.196.355-.38.54-.564.237-.244.474-.481.718-.719a25.8 25.8 0 014.358-3.373 19.328 19.328 0 013.42-1.656A15.984 15.984 0 0114.008.19c.908-.143 1.817-.19 2.737-.16.552.017 1.104.089 1.65.166.974.142 1.925.392 2.857.712.582.202 1.152.452 1.704.719.748.362 1.46.778 2.15 1.229.706.463 1.383.968 2.036 1.508.475.392.926.808 1.371 1.223.41.386.802.79 1.188 1.194.356.368.694.754 1.033 1.146.255.296.505.593.742.908.238.315.303.659.184 1.033-.071.226-.22.404-.362.582a20.58 20.58 0 01-1.146 1.336c-.362.392-.724.784-1.122 1.146-.368.332-.725.683-1.105 1.01-.463.403-.95.777-1.442 1.145a21.548 21.548 0 01-2.53 1.657c-.902.498-1.834.938-2.808 1.282-.95.339-1.918.6-2.91.766-.807.149-1.632.232-2.392.202zM16.02 2.21c-.499-.03-1.099.035-1.698.124-.76.113-1.508.303-2.239.547-.772.26-1.514.576-2.244.938-.855.427-1.669.938-2.452 1.49-.6.422-1.17.873-1.728 1.348-.339.285-.671.576-.992.885-.6.587-1.187 1.181-1.733 1.816-.101.113-.101.173-.006.291.397.475.819.933 1.252 1.378.416.421.832.837 1.271 1.235.41.374.843.736 1.277 1.08.587.47 1.205.903 1.84 1.3a15.98 15.98 0 001.995 1.052c.594.261 1.2.48 1.829.653.505.137 1.01.261 1.526.338.362.054.724.09 1.086.12.297.023.594.023.891.029.25 0 .505-.012.754-.03a12.5 12.5 0 001.063-.107c.736-.113 1.46-.279 2.167-.516a17.007 17.007 0 002.916-1.289c.79-.44 1.543-.926 2.268-1.466a26.885 26.885 0 002.79-2.4c.457-.45.885-.925 1.306-1.4.072-.078.078-.137 0-.22-.314-.338-.611-.689-.926-1.021a35.837 35.837 0 00-1.502-1.502 17.72 17.72 0 00-1.087-.945 18.865 18.865 0 00-1.894-1.383 17.238 17.238 0 00-2.404-1.277 13.526 13.526 0 00-1.894-.665c-1.081-.285-2.197-.415-3.432-.403z"/><path d="M15.742 13.187c-.73-.006-1.52-.314-2.215-.896-.736-.618-1.158-1.408-1.288-2.352-.155-1.128.172-2.113.908-2.968.635-.743 1.46-1.146 2.428-1.26.143-.017.28-.035.422-.011.433.071.665.327.724.772.018.154.036.309.066.463.16.831.89 1.55 1.722 1.698.19.036.386.024.575.071.369.09.612.38.612.76 0 .612-.142 1.188-.433 1.722a3.772 3.772 0 01-1.651 1.615c-.528.261-1.098.386-1.87.386z"/></g><defs><clipPath id="clip0"><path fill="#fff" d="M0 0h32v19H0z"/></clipPath></defs></svg>