<svg width="176" height="39" fill="none" xmlns="http://www.w3.org/2000/svg"><path d="M86.624 16.334c-.367-.918-.826-1.743-1.56-2.477-1.285-1.285-2.845-1.928-4.68-1.928-1.836 0-3.396.643-4.68 1.928-.735.734-1.285 1.56-1.56 2.477h12.48zm-1.285 6.607h5.23c-.55 1.193-1.284 2.386-2.294 3.396-2.202 2.202-4.772 3.211-7.8 3.211-3.028 0-5.69-1.1-7.8-3.211-2.11-2.111-3.212-4.772-3.212-7.8 0-3.029 1.102-5.69 3.212-7.8 2.11-2.111 4.772-3.212 7.8-3.212 3.029 0 5.69 1.1 7.8 3.211 2.11 2.111 3.212 4.772 3.212 7.8 0 .735-.092 1.469-.183 2.203h-17.16c.367.918.825 1.743 1.56 2.477 1.284 1.285 2.844 1.927 4.68 1.927 1.835 0 3.395-.642 4.68-1.927l.275-.275zm-35.421-4.404c0 1.835.642 3.395 1.927 4.68 1.284 1.284 2.844 1.927 4.68 1.927 1.835 0 3.395-.643 4.68-1.927 1.284-1.285 1.927-2.845 1.927-4.68 0-1.836-.643-3.396-1.927-4.68-1.285-1.285-2.845-1.928-4.68-1.928-1.836 0-3.396.643-4.68 1.928-1.285 1.284-1.927 2.844-1.927 4.68zm17.71 0v8.809c0 3.028-1.1 5.69-3.212 7.8-2.11 2.11-4.771 3.212-7.8 3.212v-4.405c1.836 0 3.396-.642 4.68-1.927 1.285-1.285 1.928-2.845 1.928-4.68-1.927 1.468-4.13 2.202-6.607 2.202-3.029 0-5.69-1.1-7.8-3.211-2.111-2.111-3.212-4.772-3.212-7.8 0-3.029 1.1-5.69 3.212-7.8 2.11-2.111 4.771-3.212 7.8-3.212 3.028 0 5.689 1.1 7.8 3.211 2.11 2.203 3.211 4.772 3.211 7.8zM93.23 2.936h4.405v4.589h6.607v4.404h-6.607v6.607c0 1.836.643 3.396 1.927 4.68 1.285 1.285 2.845 1.928 4.68 1.928v4.404c-3.028 0-5.69-1.1-7.8-3.211-2.11-2.111-3.211-4.772-3.211-7.8v-15.6zM35.235 30.282l-3.212-3.211c-1.284 2.202-3.211 4.037-5.322 5.23a13.759 13.759 0 01-4.221 1.56c-.918.184-1.835.276-2.753.276-3.579 0-6.974-1.377-9.635-3.763L10 30.282l-.092-.091-.092-.092-.091-.092c-.184-.184-.367-.367-.55-.642l-.093.091c0-.091-.091-.091-.091-.183-.184-.184-.367-.367-.46-.55-.091-.092-.091-.092-.091-.184l-.092-.092-.183-.183v-.092l-.092-.092c0-.092-.092-.092-.092-.183v-.184c-.367-.184-.55-.459-.734-.734L4.035 30.19a19.803 19.803 0 002.478 3.028l.367.275c3.487 3.212 7.984 5.047 12.755 5.047 2.11 0 4.221-.367 6.148-1.01 1.377-.458 2.753-1.1 3.946-1.926 2.294-1.468 4.038-3.212 5.506-5.323z" fill="#00AFAA"/><path d="M113.235 13.857c-1.284 1.284-1.927 2.844-1.927 4.68 0 1.835.643 3.395 1.927 4.68 1.285 1.284 2.845 1.927 4.68 1.927 1.836 0 3.396-.643 4.68-1.927 1.285-1.285 1.927-2.845 1.927-4.68 0-1.836-.642-3.396-1.927-4.68-1.284-1.285-2.844-1.928-4.68-1.928-1.835 0-3.395.643-4.68 1.928zm-6.331-10.92h4.404v6.698c1.927-1.468 4.13-2.202 6.607-2.202 3.029 0 5.69 1.101 7.8 3.212 2.111 2.11 3.212 4.771 3.212 7.8 0 3.028-1.101 5.69-3.212 7.8-2.11 2.11-4.771 3.211-7.8 3.211-3.028 0-5.689-1.1-7.8-3.211-2.11-2.11-3.211-4.772-3.211-7.8V2.936zm40.835 13.397c-.367-.918-.826-1.743-1.56-2.477-1.285-1.285-2.845-1.928-4.68-1.928-1.835 0-3.395.643-4.68 1.928-.734.734-1.285 1.56-1.56 2.477h12.48zm-1.285 6.607h5.231c-.551 1.193-1.285 2.386-2.294 3.396-2.203 2.202-4.772 3.211-7.8 3.211-3.029 0-5.69-1.1-7.8-3.211-2.111-2.111-3.212-4.772-3.212-7.8 0-3.029 1.101-5.69 3.212-7.8 2.11-2.111 4.771-3.212 7.8-3.212 3.028 0 5.689 1.1 7.8 3.211 2.11 2.111 3.211 4.772 3.211 7.8 0 .735-.091 1.469-.183 2.203h-17.068c.367.918.825 1.743 1.56 2.477 1.284 1.285 2.844 1.927 4.68 1.927 1.835 0 3.395-.642 4.68-1.927 0-.091.091-.183.183-.275zm11.012-4.588c-.367-.275-.734-.642-1.193-1.01-2.202-2.11-3.212-4.771-3.212-7.8V7.342h4.405v2.203c0 1.835.642 3.395 1.927 4.68 1.285 1.284 2.845 1.927 4.68 1.927 1.835 0 3.395-.643 4.68-1.928 1.285-1.284 1.927-2.844 1.927-4.68V7.342h4.405v2.203c0 3.028-1.101 5.597-3.212 7.8-.367.367-.734.734-1.193 1.009.367.275.826.642 1.193 1.01 2.111 2.202 3.212 4.771 3.212 7.8v2.202h-4.405v-2.203c0-1.835-.642-3.395-1.927-4.68-1.285-1.284-2.845-1.927-4.68-1.927-1.835 0-3.395.643-4.68 1.927-1.285 1.285-1.927 2.845-1.927 4.68v2.203h-4.313v-2.203c0-3.028 1.101-5.689 3.212-7.8.367-.367.734-.642 1.101-1.009zM22.755 11.47l-8.258 8.351-4.68-4.68-4.313 4.13-.276.275v-.459A14.368 14.368 0 019.633 9.085c2.753-2.661 6.332-4.13 10.094-4.13 7.984 0 14.499 6.516 14.499 14.59 0 .918-.092 1.836-.275 2.846v.183L22.755 11.471zM19.635.643C9.265.642.824 9.085.824 19.638c0 1.376.183 2.66.458 4.037l.184.826c.275 1.101.642 2.019 1.01 2.845l.366.826 6.79-6.883 1.653 1.56-4.038 4.13c.184.275.275.459.459.734v.183c0 .092.092.092.092.184l.091.092v.091c.184 0 .276.092.276.092l.091.092c0 .092.092.092.092.184.184.183.276.367.46.55.183.184.274.184.274.275l.092.092c.275.276.459.46.55.643l.092.091.092.092.092.092.092.092 12.663-12.756 9.268 9.269 3.12 3.211.184-.275c.734-1.101 1.377-2.294 1.835-3.579l.184-.459a18.77 18.77 0 001.101-6.331A18.762 18.762 0 0019.635.642z" fill="#006072"/></svg>