<svg width="10" height="20" fill="none" xmlns="http://www.w3.org/2000/svg"><path d="M.02 4.632V.036C.02.026.006 0 .037 0c.01.01.015.026.026.036l.422.422c.324.314.638.638.962.952.304.294.602.592.9.89.31.31.629.618.943.927.298.293.597.592.895.89.19.186.376.381.572.561.128.119.252.253.375.376.299.293.592.587.885.88.15.15.304.299.459.448.164.16.324.324.488.484.294.293.587.592.886.88.19.185.37.38.571.56.129.12.247.248.37.371.299.289.592.587.886.88l.324.325v.051c-.093.082-.175.175-.273.252-.108.088-.195.196-.293.294-.304.298-.602.597-.9.9-.284.283-.567.556-.845.85-.046.051-.108.082-.16.133-.246.252-.499.494-.746.752-.082.087-.175.17-.262.252-.247.247-.49.494-.736.736-.15.144-.293.298-.448.437-.17.15-.324.325-.489.484-.298.293-.592.592-.89.89-.314.31-.623.628-.942.932-.304.288-.597.592-.896.89a41.8 41.8 0 00-.818.834c-.108.114-.231.216-.345.33-.18.18-.36.355-.535.54-.103.108-.216.211-.324.314-.031.03-.057.041-.098.03v-4.61c.093-.073.18-.155.268-.237.077-.072.144-.15.22-.227.222-.221.438-.447.665-.659.082-.077.154-.16.237-.242.298-.298.591-.597.9-.885.242-.226.463-.468.7-.694.072-.067.14-.145.211-.217.232-.231.458-.468.7-.69.077-.071.144-.149.216-.22.119-.119.237-.248.366-.356.118-.098.221-.221.34-.33.071-.06.133-.133.195-.2.088-.092.18-.18.268-.273.036-.036.036-.056-.01-.082a.206.206 0 01-.062-.051l-.304-.304c-.299-.299-.597-.602-.9-.9-.304-.304-.613-.608-.917-.917-.026-.026-.062-.041-.092-.072l-.86-.86c-.293-.293-.587-.586-.88-.874-.134-.134-.263-.268-.402-.391-.18-.165-.344-.34-.514-.51a4.145 4.145 0 00-.324-.35z" fill="#9C9EA1"/></svg>