<svg width="156" height="29" fill="none" xmlns="http://www.w3.org/2000/svg"><path d="M155.928 3.456c-.086.374-.115.777-.287 1.123-.317.634-.778 1.037-1.527 1.065-.749 0-1.267-.374-1.584-1.065-.288-.662-.345-1.354-.316-2.074a4.89 4.89 0 01.259-1.295c.345-.893 1.18-1.325 2.102-1.066.576.173.922.605 1.123 1.123.144.317.173.691.23 1.037v1.152zm-2.908-.547v.432c.029.403.086.806.288 1.18.345.605 1.094.634 1.497.058a1.84 1.84 0 00.231-.547c.144-.634.144-1.267.057-1.9a2.173 2.173 0 00-.316-1.009.88.88 0 00-.922-.345c-.432.115-.605.432-.72.806-.115.403-.144.835-.115 1.325zM41.685 11.26c.317.144.547.346.778.547 1.036.864 1.987 1.843 2.764 2.938.95 1.325 1.613 2.764 1.786 4.406.144 1.267-.087 2.477-.605 3.657-.49 1.095-1.18 2.045-2.016 2.909-.893.95-1.9 1.757-2.966 2.477-.086.057-.173.144-.26-.03-.546-.892-1.324-1.526-2.188-2.044-1.555-.95-3.225-1.497-4.982-1.872a29.68 29.68 0 00-3.571-.547c-1.21-.115-2.39-.144-3.6-.173-1.094-.028-2.188.03-3.283.058a87.938 87.938 0 00-4.752.374 71.917 71.917 0 00-7.458 1.239 48.457 48.457 0 00-5.414 1.497c-1.901.634-3.744 1.354-5.53 2.275-.173.087-.201.087-.201-.115-.03-1.123.086-2.218.259-3.312a26.332 26.332 0 011.699-6.105 27.235 27.235 0 014.003-6.768c2.333-2.88 5.155-5.183 8.351-7.055 2.247-1.296 4.608-2.333 7.085-3.168 2.65-.922 5.356-1.526 8.121-2.016.691-.115 1.382-.202 2.074-.317.057 0 .115-.029.201.029-.23.115-.432.23-.662.346-2.247 1.238-4.349 2.678-6.134 4.55-1.037 1.094-1.93 2.304-2.506 3.715-.345.892-.547 1.843-.518 2.822.029 1.21.346 2.304.921 3.37a9.126 9.126 0 003.6 3.714c.893.519 1.872.835 2.851 1.123a21.83 21.83 0 003.312.692c1.613.172 3.225.115 4.78-.375 1.556-.49 2.88-1.353 3.744-2.793a6.385 6.385 0 00.893-2.765 5.848 5.848 0 00-.201-2.332 4.232 4.232 0 00-.23-.634c-.058-.144-.087-.23-.145-.317zm104.481.806h3.196c.26 0 .26 0 .144.26-.288.604-.547 1.21-.864 1.785-.201.375-.547.634-.921.807-.518.259-1.094.345-1.67.345-.576.029-1.152 0-1.728 0-1.066.029-2.131.058-3.168.23a11.67 11.67 0 00-3.226 1.008c-.892.432-1.67.95-2.361 1.67-.691.72-1.267 1.556-1.497 2.564-.173.749-.116 1.469.431 2.073.26.288.548.49.893.663.72.345 1.527.518 2.304.633 1.008.116 2.016.087 3.024 0 .777-.086 1.555-.23 2.304-.49.115-.028.173-.086.23-.2l.605-1.556c.058-.144.029-.173-.144-.173h-3.225c-.231 0-.26 0-.144-.23.374-.864.72-1.728 1.094-2.592.057-.144.144-.202.288-.202h7.689c.173 0 .202.03.144.202-.922 2.246-1.872 4.521-2.793 6.768a.565.565 0 01-.26.259 11.526 11.526 0 01-3.34 1.037c-1.239.201-2.477.403-3.744.46a26.303 26.303 0 01-3.369-.029c-1.383-.086-2.736-.23-4.032-.748-1.325-.519-2.448-1.267-3.226-2.506a3.458 3.458 0 01-.518-1.67c-.115-1.584.432-2.995 1.267-4.32.95-1.469 2.275-2.563 3.744-3.456a16.981 16.981 0 016.076-2.217 29.91 29.91 0 013.6-.375c1.21 0 2.304.03 3.197 0zm-16.041.317c-.029.058-.057.144-.086.202-.979 2.505-1.987 4.982-2.967 7.488l-2.937 7.43c-.115.259-.115.259-.317.086-2.908-2.246-5.788-4.493-8.697-6.739-.403-.317-.777-.605-1.181-.922-.144-.115-.201-.086-.259.087-.72 1.785-1.468 3.57-2.188 5.356-.49 1.239-1.44 1.872-2.765 1.872h-2.938c-.23 0-.259-.028-.144-.23 1.44-3.542 2.909-7.113 4.349-10.655a239.93 239.93 0 011.67-4.061c.087-.23.087-.23.288-.087 1.872 1.556 3.744 3.082 5.587 4.637 1.325 1.094 2.621 2.189 3.946 3.283.259.202.259.202.374-.086.806-1.987 1.641-3.946 2.419-5.933.49-1.18 1.382-1.728 2.621-1.785 1.008-.058 1.987 0 2.995 0 .115-.03.201-.087.23.057zm-45.905 6.48c.49-.346.98-.691 1.44-1.037 2.045-1.44 4.06-2.88 6.106-4.32l1.555-1.123a.502.502 0 01.345-.115h6.278c.058 0 .116 0 .173.029 0 .086-.086.115-.144.144-2.448 1.641-4.867 3.283-7.315 4.924-1.123.75-2.246 1.527-3.369 2.276-.144.086-.173.144-.029.259 1.584 1.41 3.168 2.85 4.752 4.262 1.066.95 2.131 1.9 3.168 2.85.028.03.115.058.086.116-.029.058-.086.029-.144.029H90.7a.37.37 0 01-.288-.115c-1.555-1.67-3.139-3.312-4.694-4.982l-1.843-1.93c-.173-.173-.173-.173-.26.058-.575 1.41-1.122 2.793-1.698 4.204-.202.49-.346 1.008-.634 1.44-.518.864-1.325 1.296-2.304 1.325-1.037.029-2.102 0-3.139 0-.23 0-.23 0-.144-.23 1.152-2.794 2.275-5.587 3.427-8.38.605-1.498 1.239-2.996 1.843-4.522.403-1.008 1.152-1.498 2.16-1.728.288-.058.547-.087.835-.087h2.592c.26 0 .26 0 .173.26-.806 2.016-1.642 4.031-2.448 6.076a2.086 2.086 0 01-.086.23c0 .087 0 .087.029.087zm-30.382-6.566h2.563c.173 0 .26.057.288.23.691 2.275 1.383 4.58 2.074 6.854.115.432.115.432.432.116a449.055 449.055 0 013.801-3.773 116.11 116.11 0 011.93-1.9c1.036-.98 2.303-1.498 3.743-1.527h3.398c.058 0 .145-.029.173.029.03.086-.057.115-.115.144l-5.702 5.615-4.579 4.493-4.752 4.665c-.345.346-.69.663-1.008.98-.115.115-.144.115-.201-.058-.634-2.102-1.296-4.205-1.93-6.278-.576-1.814-1.123-3.658-1.67-5.472-.403-1.296-.806-2.62-1.21-3.916-.057-.23-.057-.23.173-.23.864.028 1.728.028 2.592.028zm45.905 14.918h-1.584c-.23 0-.26 0-.144-.23.72-1.786 1.469-3.6 2.217-5.386.749-1.843 1.527-3.715 2.275-5.558.26-.634.548-1.296.807-1.93.432-1.094 1.267-1.641 2.39-1.785.72-.087 1.411-.03 2.131-.03h1.181c.144 0 .173.03.115.174-1.037 2.534-2.045 5.068-3.081 7.603-.692 1.727-1.411 3.455-2.103 5.183-.259.634-.633 1.18-1.238 1.555-.432.26-.893.404-1.411.404-.518.028-1.037 0-1.555 0zm-29.979 0H68.15c-.202 0-.23-.03-.144-.23 1.037-2.506 2.045-5.012 3.081-7.546.72-1.757 1.47-3.542 2.16-5.299.432-1.123 1.267-1.7 2.42-1.843.72-.087 1.44-.029 2.16-.029h1.094c.172 0 .23.029.144.202a849.274 849.274 0 00-3.168 7.862c-.691 1.728-1.383 3.484-2.103 5.183-.46 1.095-1.353 1.613-2.534 1.67-.49.058-.979.03-1.497.03zM63.342 3.024l-.519 1.641-.259.778c-.029.115-.115.173-.23.173-.663-.03-.49.086-.692-.49l-.777-2.419c-.058-.173-.144-.23-.317-.202-.259.058-.518.03-.777.058-.432.029-.75.317-.836.749-.086.49-.028.95-.057 1.44 0 .086.057.115.144.115h.49c.115 0 .172.029.172.173 0 .633.058.518-.49.547h-1.583c-.173 0-.26-.058-.26-.26 0-.546-.028-.46.461-.46.288 0 .288 0 .288-.288V2.707c0-.173-.057-.26-.23-.23h-.029c-.547 0-.49.086-.49-.519 0-.115.058-.172.173-.172h1.008c.116 0 .173.057.173.172v.576c.087-.144.173-.259.26-.374.345-.403.806-.49 1.266-.432.404.058.835.029 1.239.029.46 0 .403 0 .403.403 0 .288 0 .288-.288.317-.115 0-.144.057-.115.172.201.663.403 1.296.633 1.988.173-.548.317-1.037.49-1.527.057-.144.086-.317.144-.46.029-.116.029-.202-.115-.173-.202.028-.23-.087-.23-.26.028-.49-.058-.46.431-.46h1.181c.173 0 .23.057.23.23v.23c.03.173-.028.288-.23.26-.086 0-.173 0-.115.115.201.662.403 1.325.604 1.958.087-.029.087-.086.087-.144.173-.576.374-1.152.547-1.728.058-.23.058-.23-.173-.23-.259 0-.259 0-.259-.288 0-.432-.086-.432.432-.432h1.066c.144 0 .23.058.201.23v.087c0 .432 0 .403-.374.403-.144 0-.202.086-.23.201-.289.893-.577 1.757-.836 2.65-.057.23-.172.317-.403.288-.46-.029-.403.057-.547-.403-.23-.72-.46-1.469-.691-2.189.057.029.057.029.029.029zM51.534 4.205c.03-.058.03-.144.03-.202V1.152c0-.26 0-.26-.26-.26-.547 0-.46.087-.46-.489 0-.173.057-.201.2-.201h1.815c.144 0 .202.057.202.201 0 .605.086.49-.49.49-.288 0-.288 0-.288.317v4.147c0 .287 0 .287-.288.287-.72 0-.518.116-.864-.49-.691-1.266-1.411-2.505-2.102-3.772l-.087-.172c-.086.057-.057.144-.057.201v3.197c0 .201.057.259.259.259.576 0 .46-.058.49.49 0 .201-.058.259-.23.259h-1.758c-.172 0-.23-.058-.23-.23.029-.577-.086-.49.49-.49.288 0 .288 0 .288-.288V1.152c0-.202-.058-.26-.23-.23h-.317c-.173.028-.23-.058-.23-.23 0-.52-.059-.462.46-.462h1.152c.173 0 .259.058.345.202.663 1.21 1.354 2.448 2.045 3.657.058 0 .058.087.115.116zm22.261.892a1.85 1.85 0 01-1.267.576c-.864.03-1.555-.49-1.785-1.324-.23-.807.029-1.7.633-2.19.634-.517 1.44-.546 2.131-.086.087.058.173.116.23.173.058 0 .058-.029.058-.057 0-.375.03-.375.375-.375h.864c.144 0 .201.058.23.23 0 .605 0 .49-.46.49-.173 0-.231.058-.231.23 0 .922-.029 1.815 0 2.736.029 1.037-.662 1.67-1.584 1.815-.633.086-1.21 0-1.757-.375-.115-.086-.144-.144-.028-.259v-.029c.115-.115.201-.288.345-.345.144-.087.26.115.403.173.432.201.864.201 1.267.028.346-.144.576-.432.576-.835v-.576zm-2.303-1.353v.115c.057.432.201.806.633 1.008.432.173.835.144 1.21-.115.547-.403.633-1.267.23-1.815-.26-.345-.605-.46-1.008-.432-.691 0-1.094.692-1.066 1.239zm30.958.921c.201-.604.374-1.152.547-1.699 0-.057.029-.086.029-.144.086-.259.086-.259-.173-.317h-.029c-.173-.144-.057-.345-.086-.518-.029-.115.057-.173.173-.173h1.526c.115 0 .173.058.144.173v.288c.029.173-.029.26-.23.26-.116 0-.144.057-.116.143.202.663.404 1.296.634 2.016.115-.374.23-.72.345-1.037.087-.316.202-.633.288-.921.058-.144.029-.202-.144-.202-.316 0-.316 0-.316-.317v-.172c0-.144.057-.202.172-.202h1.354c.115 0 .173.058.173.173v.115c0 .374.029.403-.375.403-.144 0-.201.087-.23.202-.288.893-.576 1.785-.835 2.678-.058.202-.144.26-.346.26-.518-.03-.432.086-.576-.433-.201-.69-.432-1.353-.633-2.016 0-.057-.029-.086-.058-.172-.057.172-.086.288-.144.403-.201.662-.432 1.325-.633 2.016-.058.172-.144.23-.317.23-.576-.029-.461.086-.634-.49-.259-.806-.518-1.612-.748-2.447-.058-.173-.116-.23-.288-.23-.202.028-.231-.058-.231-.26.029-.49-.057-.46.432-.46h.979c.144 0 .202.057.202.2v.174c0 .288 0 .316-.288.316-.087 0-.144.03-.115.144.115.634.316 1.296.547 2.016zm44.349-1.612c-.288.316-.604.49-1.008.547-.777.086-1.382-.317-1.612-1.037-.202-.662-.115-1.296.317-1.872.633-.835 1.929-.777 2.563.087.288.403.432.892.489 1.382.087.777.058 1.526-.23 2.275-.202.518-.519.922-1.037 1.094-1.066.403-2.102-.288-2.131-1.44 0-.115.029-.144.144-.144h.115c.403 0 .403 0 .547.375.202.547.663.806 1.152.605a.953.953 0 00.461-.432c.144-.346.259-1.008.23-1.44zm-1.152-.202c.404 0 1.152-.46 1.124-.72-.087-.662-.317-1.325-.98-1.325-.547 0-.95.404-.979 1.008 0 .634.288 1.008.835 1.037zm4.205 2.707h-1.469c-.23 0-.259-.029-.23-.26.086-1.036.662-1.756 1.469-2.36l.691-.519c.345-.288.547-.605.432-1.065-.087-.404-.461-.634-.864-.605-.547.057-.749.288-.807.893V1.9c0 .288 0 .288-.288.288h-.057c-.432 0-.461-.03-.403-.432.029-.403.115-.778.374-1.095.374-.49.893-.604 1.498-.576a1.3 1.3 0 01.46.087 1.448 1.448 0 01.634 2.39c-.288.317-.662.547-1.008.806-.288.202-.576.404-.806.663l-.26.345c-.057.116-.172.26-.115.375.058.115.231.057.346.057h1.382c.144 0 .202-.057.202-.201 0-.288 0-.576.029-.864 0-.115.057-.173.201-.173.605 0 .49-.058.49.46 0 .433-.029.865-.029 1.268 0 .144-.058.23-.202.201-.662.058-1.152.058-1.67.058zm-22.981-3.369c.201-.116.403-.23.576-.317.259-.115.547-.173.835-.115.49.086.778.46.778 1.036v1.815c0 .173.028.259.23.259.432 0 .403-.058.403.403 0 .26 0 .288-.288.288h-.921c-.173 0-.26-.058-.231-.23V3.081c0-.576-.23-.748-.806-.547-.029 0-.029.03-.058.03-.547.23-.576.258-.576.863v1.21c0 .144.029.201.202.201.461 0 .432-.115.432.46 0 .174-.087.231-.231.231h-1.612c-.144 0-.231-.057-.231-.23 0-.46-.028-.49.461-.49.144 0 .202-.057.202-.201V2.649c0-.172-.058-.201-.202-.201-.489 0-.432.057-.432-.46 0-.174.058-.231.231-.231h.892c.317 0 .317 0 .317.288 0 .057 0 .086.029.144zM84.422 4.118c-.029-.374.029-.835-.029-1.296-.057-.317-.201-.432-.518-.374a1.896 1.896 0 00-.806.374.262.262 0 00-.116.23v1.613c0 .144.058.173.173.173.49 0 .49.029.46.49 0 .144-.057.201-.2.201h-1.642c-.144 0-.23-.057-.202-.23V5.27c0-.518-.029-.432.432-.432.144 0 .202-.057.202-.201V2.678c0-.144-.058-.201-.202-.201-.46 0-.432.086-.432-.461 0-.173.058-.23.23-.23h.95c.174 0 .289.028.26.259-.029.144.029.172.173.086.317-.23.662-.374 1.065-.374.548 0 .95.374 1.008.921.058.634.03 1.296.03 1.93 0 .259 0 .259.258.259.404 0 .346-.029.346.374 0 .346 0 .346-.346.346h-.864c-.172 0-.23-.058-.23-.23V4.118zm24.594-.259h-1.325c-.23 0-.23 0-.173.23.202.692.836 1.008 1.584.807.259-.087.519-.202.691-.432.087-.115.173-.115.288-.058a.986.986 0 00.26.115c.259.116.259.116.086.346-.864 1.065-2.765 1.008-3.513-.144a2.01 2.01 0 01.028-2.189 1.996 1.996 0 012.074-.806c.806.201 1.296.72 1.469 1.526.028.115.057.26.057.375.029.144-.029.23-.201.23h-1.325zm-.374-.576h.979c.115 0 .144-.029.115-.144-.144-.46-.634-.806-1.123-.806-.519 0-.922.288-1.095.777-.057.144-.028.202.116.202.374-.029.691-.029 1.008-.029zm-39.915.576h-1.325c-.173 0-.201.029-.173.202.23.835 1.152 1.152 1.93.69.144-.086.26-.143.345-.287.087-.115.173-.115.288-.058a.986.986 0 00.26.115c.23.116.259.116.086.317-.547.634-1.238.864-2.045.749-.806-.115-1.41-.547-1.67-1.354-.374-1.123.288-2.246 1.498-2.534 1.065-.23 2.073.403 2.332 1.584.115.576.115.576-.46.576h-1.066zm-.374-.576h.979c.086 0 .172 0 .144-.144-.115-.432-.634-.806-1.095-.806-.518 0-.95.288-1.094.777-.029.144 0 .173.144.173h.922zm67.791.576h-1.325c-.23 0-.23 0-.173.23.202.778.98 1.037 1.757.75.202-.087.403-.202.547-.404.029-.029.058-.086.116-.086.201.057.403.144.576.259.057.057-.029.115-.058.173-.317.403-.691.662-1.181.748-.749.173-1.411.058-2.016-.432-1.065-.892-.777-2.736.49-3.283 1.296-.547 2.592.202 2.765 1.613.057.403.057.403-.346.403-.346.029-.749.029-1.152.029zm-.374-.576h.979c.144 0 .173-.029.144-.173-.144-.432-.634-.777-1.123-.777-.519 0-.893.288-1.066.777-.058.144-.029.202.144.202.288-.029.605-.029.922-.029zm-82.594.374c0-1.123.835-1.958 1.987-1.958 1.037 0 1.958.72 1.958 2.016 0 1.094-.864 1.958-1.987 1.958-1.123-.029-1.958-.864-1.958-2.016zm.835 0c0 .72.432 1.239 1.066 1.268.633.028 1.295-.49 1.18-1.383-.086-.691-.576-1.094-1.267-1.065-.518 0-.98.547-.98 1.18zm44.292.058c0 1.123-.864 1.958-2.016 1.958-1.094 0-1.93-.864-1.9-2.016 0-1.152.863-1.958 2.044-1.958 1.094 0 1.9.864 1.872 2.016zm-.835-.029c.028-.921-.807-1.497-1.584-1.152-.749.346-.922 1.469-.317 2.045.346.346.778.403 1.238.23.403-.172.663-.604.663-1.123zm-16.703.087v.864c0 .144.057.201.201.201.461 0 .403-.057.403.432 0 .26 0 .26-.259.26h-.806c-.173 0-.26-.058-.23-.26 0-.057.028-.115-.03-.144-.057-.029-.086.029-.143.058-.375.259-.807.432-1.296.345-.547-.115-.95-.547-.98-1.036-.028-.605.289-1.066.865-1.239.46-.144.892-.086 1.324.115.144.058.173.058.173-.086v-.288c-.029-.374-.26-.634-.633-.662-.346-.03-.663.028-.893.345-.029.03-.058.087-.087.058-.201-.058-.403-.087-.604-.173-.087-.029-.03-.115 0-.173.144-.23.345-.403.576-.518a2.249 2.249 0 011.67-.115c.518.144.749.518.777 1.094 0 .317-.028.634-.028.922zm-1.7 1.21c.26 0 .519-.087.75-.26.316-.23.287-.547-.058-.72a1.37 1.37 0 00-.605-.202c-.403-.057-.749.202-.778.548-.028.403.202.633.692.633zm14.889-1.297c0 1.123-.835 1.958-1.958 1.958-1.094.03-1.987-.892-1.958-2.015.029-1.124.835-1.93 1.987-1.93 1.123 0 1.93.835 1.93 1.987zm-3.081-.029v.173c.057.749.806 1.267 1.526.98.576-.231.864-.865.691-1.498-.115-.403-.345-.72-.748-.864-.778-.202-1.47.374-1.47 1.21zm22.607 1.469c-.144.087-.26.173-.404.26-.604.374-1.411.258-1.814-.26-.547-.72-.173-1.67.72-1.9.403-.116.778-.03 1.152.143.202.087.202.087.202-.144 0-.345.028-.69-.375-.835-.317-.115-.835-.115-1.094.26-.058.086-.115.115-.23.086-.116-.029-.26-.058-.375-.087-.201-.057-.23-.086-.086-.259.288-.403.691-.605 1.18-.662.346-.029.663-.029 1.008.086.49.144.778.519.778 1.037v1.814c0 .173.058.23.23.23.461 0 .432-.057.432.433 0 .201-.057.288-.259.259h-.777c-.26 0-.26 0-.26-.26-.028-.086-.028-.114-.028-.2zm-1.037-.144c.259 0 .489-.086.691-.23.202-.115.259-.26.259-.49-.029-.201-.144-.259-.288-.317a2.007 2.007 0 00-.547-.172c-.403-.058-.749.23-.777.576-.029.403.23.633.662.633zm7.487-.086v-.432c0-.058 0-.115.029-.144.144-.144.317-.058.49-.087.086 0 .173.03.201.144.116.404.346.576.749.576.202 0 .403 0 .605-.086.144-.086.259-.202.23-.374 0-.173-.115-.26-.259-.317-.288-.087-.576-.115-.864-.173a1.906 1.906 0 01-.749-.317c-.633-.46-.576-1.382.144-1.756.461-.26.951-.23 1.44-.058.087.029.144.029.231-.029.173-.086.374-.057.576-.029.057 0 .086.087.086.144v1.037c-.144.173-.345.058-.518.086-.087.03-.173 0-.173-.115-.029-.259-.202-.374-.432-.46-.23-.116-.49-.116-.749-.03-.173.058-.288.173-.288.375s.144.288.317.317c.317.086.662.115.979.173.605.115.951.46 1.037.95.086.518-.173.98-.662 1.18-.519.202-1.037.231-1.527 0-.086-.028-.144-.086-.201.03-.029.057-.548.057-.605.028-.058-.029-.058-.086-.058-.144-.029-.172-.029-.345-.029-.49zm13.449-2.362v.519c0 .057 0 .115-.028.144-.116.144-.663.028-.72-.144-.202-.605-.836-.836-1.383-.548a.798.798 0 00-.432.432c-.23.519-.23 1.037.087 1.527.403.633 1.382.633 1.814 0 .173-.26.173-.26.432-.115.403.172.403.201.144.547-.49.662-1.152.864-1.93.748-.806-.144-1.295-.662-1.497-1.44-.173-.748-.029-1.41.518-1.987a1.791 1.791 0 012.103-.288c.057.03.144.116.172-.028 0-.087.087-.087.144-.087.519-.057.576-.028.576.49v.23zM88.742 5.558h-.807c-.144 0-.201-.058-.201-.201V5.24c0-.374 0-.374.374-.403.115 0 .144-.057.144-.173V2.621c0-.144-.057-.173-.173-.173-.431 0-.374.029-.374-.403 0-.288 0-.288.288-.288.173 0 .26-.058.23-.26 0-.23 0-.46.03-.69a.948.948 0 01.863-.778c.547-.029.893.201 1.066.662.057.144.028.26-.144.26-.087 0-.173.028-.23.028-.145.029-.26.029-.289-.173a.217.217 0 00-.201-.144c-.115 0-.173.058-.202.173-.086.26-.057.547-.057.835 0 .058.057.087.086.087h.115c.432 0 .518.115.432.576-.029.115-.086.115-.173.115-.144.029-.316-.058-.432.057-.086.116-.028.288-.028.461v1.67c0 .173.057.23.23.202h.029c.547 0 .49-.115.49.519 0 .143-.058.172-.174.172-.345.03-.633.03-.892.03zm53.507-3.024v2.103c0 .172.029.23.231.23.518 0 .46-.086.46.49 0 .172-.057.23-.23.23h-1.757c-.172 0-.23-.058-.23-.23 0-.548-.029-.461.432-.461.288 0 .288 0 .288-.288V1.152c0-.26 0-.26-.259-.288-.49 0-.461.115-.461-.518 0-.116.058-.202.173-.202h1.152c.172 0 .172.086.172.23.029.72.029 1.44.029 2.16zm-26.005-.029c.202-.316.403-.547.749-.69.259-.116.547-.087.835-.087.058 0 .087.029.115.115v.087c.029.575.029.575-.547.575-.547.03-.893.317-.95.864-.058.432-.029.836-.029 1.268 0 .144.058.201.202.172h.518c.173.144.058.375.086.548.029.115-.057.143-.144.143h-2.044c-.231-.115-.087-.345-.115-.49-.029-.114.028-.2.172-.2h.375c.115 0 .173-.058.173-.173V2.62c0-.116-.058-.173-.173-.173h-.403c-.058 0-.144 0-.144-.087v-.518c0-.086.086-.086.172-.086h1.008c.115 0 .173.057.173.173-.058.23-.029.403-.029.575zM99.916 1.18v.058c0 .173-.058.375.028.49.116.115.317.029.461.058.115 0 .173.057.173.172 0 .634.029.519-.461.519-.173 0-.23.057-.23.23v1.814c0 .288.144.404.432.346.259-.058.259-.058.259.202 0 .46-.058.547-.518.518-.548 0-.922-.173-.95-.922V2.707c0-.173-.03-.26-.231-.23-.202.028-.288-.058-.26-.26v-.144c0-.287 0-.287.289-.287.144 0 .23-.058.201-.202-.057-.26.058-.46.288-.605.144-.086.23-.201.375-.317.028-.028.057-.086.115-.057.029.029.029.086.029.115v.46zm24.709 2.16v1.325c0 .144.057.202.201.202.403 0 .375-.058.375.374 0 .288 0 .288-.288.288h-1.44c-.173 0-.26-.057-.231-.23V5.24c0-.374 0-.374.375-.374.172 0 .23-.058.23-.23v-1.93c0-.173-.058-.23-.23-.23-.375 0-.375 0-.375-.404 0-.287 0-.287.317-.316h.806c.202 0 .288.057.26.259V3.34zm-47.921 0v1.325c0 .144.058.202.202.202.432 0 .403-.058.403.403 0 .202-.058.288-.26.26-.489-.03-1.007 0-1.497 0-.144 0-.23-.058-.202-.202V5.27c0-.46-.028-.403.375-.403.144 0 .202-.058.202-.202V2.707c0-.144-.058-.202-.202-.202-.403 0-.374.03-.374-.374 0-.317 0-.317.316-.317h.835c.173 0 .23.058.23.23-.057.404-.028.836-.028 1.297zm75.423 8.698c.922 0 1.613.72 1.613 1.67 0 .893-.72 1.613-1.642 1.613a1.66 1.66 0 01-1.641-1.642c.029-.95.72-1.641 1.67-1.641zm1.325 1.641c0-.748-.547-1.325-1.296-1.325s-1.354.577-1.354 1.325c0 .72.605 1.325 1.325 1.354a1.386 1.386 0 001.325-1.354zM124.653.547c0 .26-.201.46-.432.46a.454.454 0 01-.46-.46c0-.23.23-.46.489-.46.231.028.403.23.403.46zM76.3.086c.26 0 .462.202.462.461 0 .23-.23.46-.461.46-.23.001-.46-.23-.46-.489 0-.23.2-.432.46-.432z" fill="#000"/><path d="M151.926 12.815h.374c.259.03.432.144.461.375a.449.449 0 01-.26.518c-.115.058-.115.115-.028.23.115.144.23.346.345.49.058.086.029.144-.086.144-.144 0-.259 0-.317-.144-.058-.144-.144-.26-.23-.403a.448.448 0 00-.231-.173c-.144-.029-.23 0-.23.173v.374c0 .115-.058.173-.144.173-.115 0-.173-.029-.173-.144v-1.469c0-.086.058-.144.144-.144h.375zm.115.72h.144c.028 0 .057 0 .086-.028.144-.058.173-.202.115-.317-.057-.115-.547-.202-.633-.087-.029.03-.029.058-.029.058-.086.288 0 .374.317.374z" fill="#000"/></svg>