<svg width="179" height="17" fill="none" xmlns="http://www.w3.org/2000/svg"><path d="M173.332 17.152h-28.939c-1.372-1.224-1.641-2.536-.895-4.326 1.611-4.087 2.984-8.264 4.475-12.381 10.084 0 20.197 0 30.281.03.358 0 1.194-.477 1.044.567-.477 2.744-2.267 3.132-4.743 3.043-5.698-.18-11.426-.06-17.154-.06-.836 0-1.522.09-1.88 1.044-.835 2.447-1.76 4.863-2.685 7.28-.328.865-.06 1.163.835 1.163 2.178-.03 4.386 0 6.564 0 .746 0 1.491.03 2.237-.03.836-.06 1.999-1.521 1.761-2.357-.239-.925-1.074-.417-1.641-.447-1.432-.09-2.894 0-4.326-.03-.537 0-1.134.06-.985-.865.269-1.85 1.194-2.745 3.073-2.745 5.012-.03 10.024 0 15.066-.03 1.163 0 1.521.299 1.074 1.492-1.104 2.834-2.118 5.758-3.162 8.652zM82.937.445h13.425c-.328.418-.776.597-1.224.806-2.744 1.253-5.519 2.506-8.263 3.759-2.685 1.223-5.37 2.476-8.324 3.818 1.223.836 2.238 1.522 3.222 2.238 2.834 2.088 5.937 3.788 8.622 6.086H76.97a865.261 865.261 0 01-8.562-5.848c-.716-.477-1.164-.626-1.492.388-.596 1.82-1.253 3.64-1.91 5.46h-8.054c-.567-.985-1.7-1.76-1.164-3.163C57.518 9.485 59.19 4.95 60.86.445h10.143a337.85 337.85 0 00-1.76 5.042c-.12.328-.328.686.03.955.269.208.567.03.835-.09 4.266-1.969 8.563-3.938 12.829-5.907zm29.535 0h29.535c.656.895 1.76 1.67 1.282 2.954-1.67 4.594-3.192 9.248-5.161 13.753h-9.845c.149-.537.269-1.074.448-1.582 1.223-3.37 2.386-6.742 3.669-10.083.507-1.283.12-1.522-1.104-1.492-2.685.06-5.37.09-8.055 0-1.342-.06-1.909.507-2.356 1.7-1.343 3.85-2.835 7.638-4.267 11.457h-7.756c-1.313-1.253-1.611-2.566-.895-4.386 1.641-4.057 3.252-8.114 4.505-12.321zM8.353.445c2.536.835 4.207 2.566 5.49 4.863 2.267 4.027 4.922 7.757 7.04 11.844h-10.74c-1.79-3.55-4.027-6.832-6.086-10.233C2.834 4.949 1.82 2.832.298 1.042.12.296.656.445 1.044.445h7.31zm32.519 16.707c1.76-4.953 3.55-9.935 5.31-14.887.209-.597.447-1.193.656-1.82h7.757c1.343 1.134 1.79 2.357 1.074 4.177-1.67 4.117-3.133 8.353-4.654 12.53H40.872zm62.053 0H92.782c.03-.239 0-.508.09-.716 1.938-5.34 3.907-10.65 5.876-15.991h7.757c1.372 1.283 1.641 2.625.865 4.475-1.611 4.028-2.983 8.145-4.445 12.232zM42.96.445c-.12.537-.597.776-.985 1.074-4.922 3.67-9.874 7.339-14.767 11.068-.895.686-1.283.507-1.82-.358-2.566-4.117-2.446-4.803 1.492-7.756 1.79-1.343 3.55-2.685 5.34-4.028h10.74z" fill="#000"/></svg>