<svg width="90" height="33" fill="none" xmlns="http://www.w3.org/2000/svg"><path d="M.106 8.53c.16-.809.08-1.63.16-2.44.132-1.246.172-2.493.251-3.74.013-.171 0-.344.212-.53.438.584.876 1.167 1.3 1.75.464.624.941 1.247 1.392 1.897.173.239.332.292.61.16 2.255-1.115 4.562-1.22 6.936-.452.358.12.968-.278.994-.65.013-.265-.225-.225-.371-.265-2.095-.69-4.204-.623-6.312-.026-.173.053-.345.159-.57.093 0-.212.185-.226.305-.292C7.015 3.001 9.15 2.43 11.39 2.245c.663-.053 1.313-.12 1.976-.093.318.013.517-.133.702-.371.305-.425.624-.836.955-1.234.093-.106.146-.331.345-.251.16.053.106.238.12.37.04.399.092.796.092 1.194 0 .345.133.464.49.517 4.894.717 8.753 3.037 11.352 7.294 1.247 2.055 1.883 4.31 2.069 6.71.278 3.633-.53 6.988-2.546 10.011-2.387 3.594-5.756 5.716-9.986 6.485-.358.066-.716.133-1.074.186h-3.554c-.119-.027-.238-.067-.344-.08-3.713-.517-6.91-2.055-9.455-4.84-.146-.16-.358-.292-.372-.544.2-.132.372 0 .544.053.862.239 1.724.425 2.613.385 1.856-.093 3.248-.889 4.11-2.573.332-.636.557-1.313.77-1.989.517-1.697 1.378-3.182 2.731-4.363.743-.65 1.445-1.352 2.175-2.028 2.188-2.096 2.692-4.615 1.883-7.466-.279-.968-.716-1.87-1.432-2.613.398 1.618.596 3.236.557 4.894-.027 1.26-.398 2.387-1.167 3.381-.77 1.008-1.75 1.79-2.679 2.626-1.313 1.18-2.374 2.52-2.997 4.203-.252.69-.371 1.406-.69 2.082-.304.65-.808.928-1.498.928-.73 0-1.22-.344-1.458-1.034-.133-.411-.279-.822-.372-1.246-.45-2.056-1.432-3.78-3.156-5.066-.955-.716-1.498-1.724-1.724-2.89-.106-.505-.185-1.022-.278-1.539.013-1.618.013-3.21.013-4.814zm5.424 7.32c-.332-.57-.81-.915-1.353-1.193-.199-.093-.411-.265-.61-.04-.212.225-.384.49-.384.822 0 .133.119.226.238.226.703.026 1.406.119 2.109.185zm76.965 9.959v4.137c0 .743-.266 1.366-.85 1.83-.662.53-1.418.637-2.2.305-.889-.384-1.313-1.1-1.366-2.055-.027-.743-.014-1.499-.014-2.241 0-2.506-.013-5.013 0-7.506.014-1.498 1.008-2.466 2.427-2.373.77.053 1.273.49 1.684 1.087 1.088 1.591 2.148 3.196 3.236 4.8.08.12.132.292.358.358v-2.453c0-.557-.013-1.114 0-1.67.026-1.22.994-2.149 2.24-2.136 1.155.014 2.083.955 2.096 2.162.013 3.289 0 6.577 0 9.853 0 1.166-.517 1.936-1.498 2.24-.982.306-1.936-.053-2.573-.994-1.074-1.604-2.122-3.222-3.196-4.827-.066-.133-.159-.265-.344-.517zm-46.453 1.684v2.533c-.013 1.3-.98 2.294-2.214 2.294-1.22 0-2.201-.968-2.201-2.254-.014-3.302-.014-6.604 0-9.92 0-1.206.848-2.187 2.055-2.214 1.71-.053 3.448-.159 5.158.08 2.215.291 3.82 1.71 4.244 3.673.41 1.883-.318 3.66-1.95 4.68-.344.226-.304.372-.106.638.451.596.902 1.193 1.327 1.816.994 1.472.238 3.223-1.499 3.461-.955.133-1.684-.305-2.215-1.087-.782-1.127-1.551-2.268-2.333-3.395-.067-.053-.12-.12-.266-.305zm1.075-3.647c.265 0 .517.027.782 0a.909.909 0 00.822-.848c.027-.49-.186-.836-.676-.968-.557-.16-1.127-.08-1.698-.093-.225 0-.305.133-.305.331v.518c.014 1.206-.145 1.06 1.075 1.06zM67.63 25.08v-4.8c0-1.46.914-2.374 2.386-2.374 1.896 0 3.793-.014 5.689 0 1.1.013 1.896.756 2.069 1.843.146.915-.478 1.896-1.38 2.214-.291.107-.61.146-.928.146-.954-.013-1.91.013-2.864-.013-.411-.013-.544.146-.544.557 0 .398.186.504.544.504.73-.013 1.459-.013 2.188 0 1.06.026 1.697.464 1.976 1.313a1.787 1.787 0 01-1.658 2.347c-.848.026-1.71.026-2.559 0-.464-.014-.504.238-.49.583 0 .358-.014.663.49.65.902-.027 1.803-.013 2.718 0 .557.013 1.114.08 1.592.411.742.517 1.087 1.406.862 2.228-.252.888-.968 1.525-1.883 1.538-2.109.027-4.217.04-6.312 0-1.035-.013-1.87-1.02-1.883-2.201-.027-1.644-.014-3.289-.014-4.946zm-6.843-10.065c0 1.114-.703 2.015-1.658 2.201-1.087.226-2.082-.292-2.506-1.3a2.91 2.91 0 01-.16-.437c-.092-.345-.29-.45-.649-.45-1.154.012-2.294.026-3.448 0-.424-.014-.636.132-.742.543-.239.888-.796 1.512-1.737 1.657-1.711.279-3.05-1.246-2.454-2.877.517-1.42 1.167-2.798 1.75-4.177.704-1.631 1.393-3.262 2.096-4.893a8.29 8.29 0 01.504-1.035c.544-.955 1.405-1.392 2.466-1.352 1.061.04 1.843.596 2.268 1.578.981 2.267 1.936 4.535 2.904 6.816.398.941.796 1.896 1.193 2.837.133.305.2.624.173.889zM54.13 8.888c-.04-.013-.08-.013-.12-.026-.278.782-.556 1.565-.848 2.334-.08.239.013.318.239.318.437 0 .875-.013 1.3 0 .33.013.33-.146.238-.398-.265-.73-.544-1.472-.809-2.228z" fill="#000"/><path d="M42.991 30.04c-.053-.385.12-.77.292-1.154 1.26-2.958 2.532-5.915 3.792-8.872.385-.915.902-1.684 1.923-1.989 1.313-.385 2.56.146 3.156 1.445.809 1.764 1.552 3.568 2.307 5.358.57 1.339 1.14 2.692 1.711 4.03.226.531.411 1.062.279 1.672-.226.981-.929 1.63-1.897 1.75-.928.12-1.922-.358-2.214-1.286-.265-.862-.756-1.008-1.525-.955-.915.066-1.843.027-2.758 0-.412-.013-.624.12-.743.53-.265.889-.809 1.525-1.79 1.671-1.393.226-2.533-.756-2.533-2.2zm6.79-6.14c-.04.013-.093.013-.133.026-.252.73-.517 1.472-.783 2.201-.106.279-.066.438.279.438h1.247c.185 0 .318-.053.238-.279-.278-.795-.557-1.59-.848-2.387zm10.886 1.644c.637-1.645 1.207-3.156 1.79-4.668.2-.53.398-1.074.61-1.605.398-1.007 1.393-1.538 2.44-1.339 1.061.2 1.738 1.035 1.751 2.148 0 .372-.04.73-.186 1.075a2591.01 2591.01 0 00-3.673 9.03c-.464 1.127-1.114 1.99-2.466 2.095-1.287.106-2.347-.45-2.851-1.644a851.295 851.295 0 01-3.899-9.561c-.398-1.008-.106-2.122.65-2.705.769-.597 1.843-.597 2.678-.014.385.279.597.677.756 1.101.716 1.87 1.446 3.726 2.175 5.596.053.12.12.239.225.49zM31.613 10.002V5.15c0-1.392.902-2.28 2.281-2.294h5.636c1.167 0 2.055.809 2.135 1.923.08 1.087-.703 2.042-1.843 2.214-1.035.146-2.082.066-3.13.053-.477 0-.676.133-.676.65 0 .504.199.623.65.61.769-.027 1.525-.013 2.294 0 1.18.013 2.029.835 2.015 1.923-.013 1.114-.822 1.87-2.002 1.883-.796 0-1.605.013-2.4 0-.398-.014-.557.12-.544.53.027.77.013 1.525 0 2.294-.013 1.353-.955 2.308-2.254 2.294-1.26-.013-2.175-.981-2.175-2.307 0-1.644.013-3.275.013-4.92zm39.57.04c0-1.631-.026-3.275 0-4.906.027-1.75 1.684-2.785 3.222-2.042.81.397 1.194 1.074 1.194 1.975v7.307c0 .703 0 .703.73.703.875 0 1.736-.014 2.612 0 1.127.013 2.002.809 2.081 1.856.093 1.18-.623 2.109-1.816 2.268-1.247.172-2.506.053-3.753.066-.769.013-1.525.066-2.294-.053-1.233-.186-1.976-1.034-1.99-2.28.014-1.618.014-3.263.014-4.894zm-10.038 0V5.19c0-1.366.888-2.32 2.135-2.334 1.313 0 2.28.941 2.28 2.32.014 2.308 0 4.628 0 6.936 0 1.1-.079.954.995.968h2.294A2.054 2.054 0 0170.88 15c.079 1.022-.677 2.003-1.698 2.189a7.74 7.74 0 01-1.353.092c-1.604-.04-3.196.093-4.8-.08-1.114-.119-1.896-.994-1.91-2.12.027-1.659.04-3.356.027-5.04z" fill="#000"/><path d="M47.407 9.06c-.053 1.128.08 2.52-.066 3.913-.292 2.572-2.162 4.336-4.774 4.442-1.313.053-2.6-.093-3.78-.756-1.047-.583-1.59-1.618-1.326-2.572.358-1.366 1.645-1.976 2.944-1.393.411.186.796.438 1.247.517.915.146 1.273-.146 1.273-1.06.013-2.188 0-4.376 0-6.578 0-.901.172-1.724.994-2.28 1.34-.916 3.09-.226 3.422 1.365.053.265.08.557.08.822-.014 1.101-.014 2.215-.014 3.58zm10.86-5.953c0 .504-.464.941-.994.941-.464 0-.876-.437-.889-.915 0-.477.451-.941.928-.941.504-.027.955.424.955.915zM53.03 17.243c.477 0 .914.45.914.941 0 .49-.424.902-.941.902-.53 0-.915-.385-.928-.915 0-.517.41-.928.954-.928zM51.703 3.147c-.013.477-.477.901-.968.888-.517-.013-.888-.438-.862-.968.027-.49.425-.902.902-.902a.978.978 0 01.928.982zm-5.291 15.939c-.49-.027-.915-.49-.888-.981a.914.914 0 01.994-.85c.465.04.876.492.862.942 0 .478-.477.915-.968.889z" fill="#000"/></svg>