<svg width="177" height="32" fill="none" xmlns="http://www.w3.org/2000/svg"><path d="M.026.152h27.928c.21 0 .342.078.316.315v30.765H.315c-.21 0-.262-.052-.262-.262C.026 20.67.026 10.398.026.152zm1.314 15.5v13.873c0 .42 0 .42.42.42h24.75c.42 0 .42 0 .42-.42V1.807c0-.42 0-.42-.42-.42H1.786c-.447 0-.447 0-.447.446v13.82zm157.479-.945c.473-.605.972-1.235 1.445-1.84 1.655-2.075 3.284-4.15 4.939-6.252a.678.678 0 01.578-.263h5.045c.105 0 .236-.053.289.053.052.13-.079.21-.158.289-2.102 2.68-4.177 5.36-6.279 8.039-.184.236-.158.394 0 .63 2.207 3.127 4.388 6.253 6.594 9.38.053.079.158.131.106.236-.053.105-.184.053-.263.053h-6.069c-.21 0-.315-.053-.447-.236l-4.414-6.385c-.446-.63-.867-1.26-1.313-1.891-.027-.053-.053-.132-.158-.132-.053.105-.026.237-.026.342v7.882c0 .42 0 .42-.394.42h-9.327c-.237 0-.368-.079-.447-.315-1.524-4.125-3.074-8.25-4.598-12.349-.026-.078-.026-.184-.131-.236-.105.131-.131.289-.21.447-1.445 4.046-2.969 8.092-4.493 12.111-.079.237-.21.342-.473.342-1.602-.026-3.205 0-4.781 0-.368 0-.368 0-.237-.342 1.235-3.074 2.444-6.174 3.678-9.248 1.156-2.89 2.286-5.78 3.416-8.67.131-.315.289-.446.63-.42 1.708.026 3.416.026 5.124 0 .262 0 .394.079.499.342a3778.042 3778.042 0 006.121 15.37c0 .025.027.052.079.078V6.826c0-.473 0-.473.473-.473h4.755c.395 0 .395 0 .395.394v7.934c.026 0 .052.027.052.027zm-85.413-2.575c-.42 1.103-.814 2.18-1.235 3.258-1.156 3.1-2.338 6.174-3.494 9.274-.105.29-.263.368-.552.368H53.124c-.447 0-.447 0-.447-.42V6.799c0-.42 0-.42.42-.42h4.782c.42 0 .42 0 .42.42v13.74c0 .42 0 .42.42.42h5.544c.29 0 .42-.104.526-.367 1.839-4.624 3.678-9.274 5.49-13.898.106-.237.211-.316.474-.316h5.254c.263 0 .394.079.473.316 2.391 5.99 4.756 11.98 7.146 17.97.027.053.027.105.053.131.079.184.052.29-.158.263h-4.86c-.29 0-.42-.079-.5-.341-1.55-4.099-3.1-8.224-4.65-12.322.027-.08.027-.184-.105-.263zm-25.248 2.654c.762.341 1.445.683 2.05 1.208.971.867 1.418 1.97 1.523 3.232.105 1.655-.263 3.152-1.419 4.387-.893.92-1.996 1.419-3.257 1.419-3.81.026-7.646 0-11.455.026-.263 0-.342-.079-.342-.341V6.72c0-.263.079-.368.342-.368 3.389 0 6.752 0 10.141.026 1.261 0 2.47.263 3.468 1.051.972.762 1.445 1.813 1.55 3.021a4.122 4.122 0 01-.315 2.102c-.342.815-.946 1.42-1.708 1.892-.184.105-.341.21-.578.341zm-7.304 4.624v1.918c0 .262.079.341.342.341.998-.026 1.97 0 2.969 0 1.103 0 2.075-.946 2.128-2.023.078-1.182-.736-2.233-1.892-2.338-1.103-.132-2.233-.026-3.337-.053-.21 0-.21.132-.21.29.026.577 0 1.234 0 1.865zm0-7.62v1.734c0 .237.079.316.316.316h2.732c1.05 0 1.918-.867 1.97-1.944.053-1.051-.709-1.97-1.76-2.076-1.025-.105-2.023-.026-3.048-.053-.21 0-.21.106-.21.263.026.578 0 1.156 0 1.76zm63.738 4.625v8.197c0 .42 0 .42-.42.42h-4.86c-.395 0-.395 0-.395-.394V6.772c0-.42 0-.42.42-.42h4.861c.394 0 .394 0 .394.42v8.014c.289-.342.499-.631.736-.92 1.865-2.39 3.757-4.782 5.622-7.172.184-.237.368-.342.683-.342 1.682.026 3.363 0 5.045 0 .105 0 .236-.053.289.053.052.105-.079.183-.132.262-1.97 2.549-3.967 5.07-5.964 7.62-.184.236-.499.446-.499.735-.026.263.289.5.447.736 2.023 2.89 4.046 5.753 6.069 8.643.079.105.157.21.21.316.052.079.184.157.105.289-.053.078-.184.052-.289.052h-3.153c-.893 0-1.813-.026-2.706 0-.315 0-.499-.079-.683-.341l-3.704-5.36c-.683-.972-1.367-1.97-2.05-2.942h-.026zm-7.094 5.753v1.76c0 .184-.052.29-.236.368-1.314.605-2.68.999-4.125 1.078a13.113 13.113 0 01-4.282-.395c-3.074-.788-5.097-2.68-6.017-5.727-.735-2.47-.788-4.966.079-7.409.814-2.312 2.417-3.888 4.65-4.834 1.918-.841 3.941-1.025 6.017-.788 1.26.157 2.47.473 3.625.998.184.079.263.21.263.394v3.468c0 .342-.026.342-.341.184-1.235-.63-2.523-1.077-3.915-.998-2.732.131-4.782 1.76-5.228 4.545-.29 1.813.184 3.468 1.47 4.834.815.867 1.84 1.314 2.996 1.498 1.55.262 2.969-.132 4.361-.762.657-.316.657-.316.657.42.026.473.026.92.026 1.366zm34.26-1.13v3.652c0 .368-.026.394-.394.394h-5.202c-.315 0-.368-.105-.368-.394v-7.198a1.18 1.18 0 00-.184-.657c-2.101-3.337-4.177-6.7-6.253-10.063-.026-.052-.052-.105-.105-.157-.105-.158-.079-.263.132-.263h4.965c.368 0 .552.105.762.42 1.13 1.813 2.312 3.626 3.468 5.439.21.315.21.315.421 0 1.182-1.84 2.364-3.705 3.546-5.544.132-.184.263-.289.5-.289h5.018c.105 0 .21-.052.289.053.078.105-.053.21-.105.289-2.076 3.363-4.178 6.7-6.253 10.036a1.256 1.256 0 00-.211.736c-.026 1.182-.026 2.364-.026 3.546z" fill="#000"/><path d="M177.026 9.295c0 1.707-1.366 3.047-3.1 3.047-1.655 0-2.995-1.366-2.995-3.074a3.095 3.095 0 013.074-3.074c1.629 0 3.021 1.42 3.021 3.1zm-.473 0c.027-1.472-1.129-2.628-2.627-2.654-1.419-.026-2.601 1.182-2.601 2.601 0 1.445 1.156 2.627 2.601 2.627a2.558 2.558 0 002.627-2.574zM17.025 3.725c-.63.026-1.156.21-1.577.657 1.866-.027 3.127.394 3.573 1.208-.551-.105-1.103-.21-1.655.053.736.105 1.445.21 2.102.446.184.053.184-.026.184-.157-.026-.263-.131-.5-.236-.762-.447-.999-.578-2.023-.316-3.1.053-.184.053-.447.29-.447.262 0 .21.289.262.447.236.92.657 1.707 1.235 2.443.263.341.552.683.762 1.05.289.526.473 1.078.368 1.682-.027.158.078.237.184.316.92.735 1.681 1.602 2.18 2.68.026.078.079.157.105.236 0 .026 0 .052.026.157-.315-.21-.578-.42-.945-.525.341.473.525.972.657 1.498.026.13.13.183.236.236.578.341 1.13.657 1.708.998.157.08.289.184.42.316.131.157.263.315.184.551-.079.237-.315.29-.525.316-.42.026-.841.052-1.262.052-.289 0-.578.026-.893 0-.21 0-.236.079-.157.263.394 1.077.604 2.154.551 3.31 0 .184-.026.394-.105.657-.42-.814-.788-1.576-1.629-2.05.21.553.368 1.078.447 1.604.341 1.812-.132 3.441-1.051 4.965-.184.315-.42.63-.42 1.025 0 .21-.158.105-.237.052-.236-.184-.341-.446-.341-.762 0-.367.026-.71 0-1.077a1.93 1.93 0 00-.316-.893c-.052.446-.078.867-.131 1.313-.131 1.025-.368 2.05-.867 2.97-.184.34-.394.656-.71.893-.052.052-.105.105-.183.078-.08-.026-.053-.131-.053-.183-.026-.473-.052-.92-.289-1.445-.131 1.182-.447 2.206-1.156 3.073-.263.316-.552.605-.972.762.447-.604.552-1.26.447-2.049-.368 1.051-.894 1.84-1.892 2.26 0-.08-.026-.106-.026-.132.052-.158.157-.315-.053-.42-.157-.079-.315.052-.446.157-.263.263-.21.736.105 1.078.052.052.157.078.131.184-.026.105-.158.078-.236.078-1.025 0-1.84-.446-2.418-1.26-.63-.868-.893-1.866-1.077-2.89 0-.027-.026-.08-.026-.158-.315.262-.341.604-.394.92-.026.21 0 .42 0 .656 0 .079.079.184-.026.236-.105.053-.184-.052-.237-.131a6.767 6.767 0 01-1.208-1.76c-.526-1.182-.762-2.417-.841-3.731-.131.026-.184.131-.237.236-.236.42-.315.867-.315 1.367 0 .735-.341 1.26-.972 1.629-.079.052-.158.105-.289.078a4.04 4.04 0 00.131-.551c.132-.762 0-1.498-.21-2.207-.473-1.63-.394-3.232.132-4.808v-.131c-.815.604-1.314 1.392-1.63 2.311-.393-1.891-.393-3.704 1.078-5.254-.604.105-1.104.315-1.55.657-.447.341-.815.762-.972 1.34-.158-.105-.158-.237-.158-.368-.052-.552-.052-1.13.21-1.63.08-.183.08-.236-.131-.236-.394 0-.788-.026-1.182-.052-.263-.026-.526-.026-.605-.315-.105-.316.08-.526.263-.683.42-.316.893-.552 1.366-.815.473-.289.972-.578 1.445-.84.105-.053.184-.106.21-.21.158-.474.42-.894.762-1.288.053-.053.158-.105.105-.184-.052-.105-.157-.026-.236 0-.184.026-.315.131-.473.236-.052.027-.131.132-.21.053-.053-.053-.026-.131 0-.184.21-.814.604-1.471 1.34-1.944.105-.053.263-.079.21-.237-.053-.157-.21-.105-.315-.078-.184 0-.394.052-.657.105.158-.316.368-.473.604-.63.21-.132.315-.29.342-.526.105-.552.42-1.025.762-1.472.762-.945 1.392-1.944 1.629-3.152.026-.105.052-.21.21-.21.131 0 .184.105.21.21.289.788.289 1.602.079 2.39a5.73 5.73 0 01-.42 1.183 1.72 1.72 0 00-.132.814c0 .132.053.21.184.21.604.027 1.182-.078 1.734-.551a8.328 8.328 0 01-.657.105c-.105 0-.21-.027-.315-.053-.105-.026-.263-.052-.263-.157-.026-.132.158-.132.237-.158.157-.079.289-.158.367-.342.368-.814 1.42-1.05 2.076-.945.315.052.657.13 1.025.21-.29-.63-.815-.605-1.314-.657.236-.237.552-.342.867-.394.552-.079 1.025.052 1.419.473.131.131.21.131.368.026.709-.473 1.47-.63 2.285-.447.105-.026.21-.026.342.132zM8.933 2.569c-.342.972-.894 1.813-1.524 2.6a4.86 4.86 0 00-.42.605c-.578.92-.447 1.944.341 2.706.29.263.604.5.946.683.105.053.289.079.289.263 0 .158-.158.21-.263.289-1.55.893-3.1 1.786-4.624 2.68-.525.289-1.077.551-1.602.92-.08.052-.184.13-.158.262.052.105.184.079.263.079 1.34.079 2.653.105 3.993.052 1.576-.052 2.549-1.235 2.89-2.364.053-.132.026-.368.237-.342.21.026.13.237.183.368v.053c-.052.656-.078 1.287-.289 1.918-.13.42-.13.814 0 1.234.132.5.368.973.762 1.261.657.5.815 1.209.92 1.945.026.157.053.315.105.473.237 1.024.289 2.023-.105 3.02-.053.106-.053.237-.053.342-.026.736.552 1.55 1.288 1.813.525.21 1.077.237 1.655.237.289 0 .394-.08.394-.394V9.006c0-.263-.053-.342-.341-.342-.657.026-1.34-.079-1.971-.184-.946-.184-1.892-.42-2.706-.998-.736-.526-.972-1.261-.683-2.128l.236-.63c.263-.658.394-1.393.237-2.155zm9.642 11.113h-.079a4.588 4.588 0 01-1.76.946c-.158.026-.132.131-.105.236.078.29.184.552.262.841.053.184.132.237.316.131.525-.315.972-.709 1.208-1.287a1.83 1.83 0 00.158-.867zM16.237 21.8c-.342 0-.552.184-.552.473 0 .316.21.552.499.552.342 0 .578-.21.578-.473.026-.315-.21-.552-.525-.552z" fill="#000"/><path d="M174.557 9.426c.499.394.735.92 1.05 1.419.106.131.053.21-.105.21-.262.026-.473-.053-.604-.29-.158-.315-.394-.604-.578-.892-.263-.395-.657-.42-1.077-.395-.158 0-.158.132-.158.237v1.05c0 .211-.079.29-.289.29-.236 0-.262-.132-.262-.29v-3.02c0-.21.052-.316.289-.316.525 0 1.05 0 1.576.026.788.053 1.208.684.946 1.367-.105.315-.421.473-.788.604zm-.71-1.55c-.814.026-.735-.105-.735.657v.262c0 .132.052.21.21.21.368 0 .762.027 1.129-.052.263-.053.447-.236.447-.5 0-.262-.158-.446-.42-.525-.237-.052-.473-.078-.631-.052zM9.773 13.577a.543.543 0 01.158.105c.473.447 1.025.71 1.629.893.21.053.263.132.184.342-.105.315-.184.604-.29.92-.052.13-.104.236-.262.13-.762-.446-1.366-1.024-1.524-1.943-.026-.105 0-.237 0-.342 0-.053.027-.079.105-.105zm2.287 9.301c-.369 0-.579-.237-.579-.578a.63.63 0 01.604-.605c.316 0 .605.263.605.552-.026.368-.29.63-.63.63z" fill="#000"/></svg>