<svg width="185" height="26" fill="none" xmlns="http://www.w3.org/2000/svg"><path d="M29.807 13.972c.383-.767.274-.958-.602-.958-4.325 0-8.65-.028-12.974 0-1.232 0-2.162.575-2.737 1.724-.493 1.013-1.095 1.998-1.642 2.983-.247.466-.63.767-1.177.685-1.697-.247-3.066-.657-3.86-2.737-.711-1.862-.383-3.64.52-5.338 1.342-2.49 3.34-4.379 5.557-6.021 1.834-1.369 3.777-2.518 5.94-3.34.328-.109.875-.218.766-.656-.165-.548-.685-.192-1.04-.137-1.533.3-3.011.793-4.462 1.423C9.224 3.708 5.2 6.8 2.463 11.453c-1.286 2.19-1.998 4.572-2.49 7.035v1.697c.52 1.806 1.916 2.326 3.613 2.409h.328c2.847 0 5.693.054 8.54-.028 2.6-.055 5.173-.356 7.664-1.04 4.297-1.15 7.69-3.476 9.689-7.554zm151.991-9.963c-1.287-.301-2.081.137-2.546 1.396-.356.958-.657 1.943-1.013 2.9-.383 1.041-.93 1.424-2.052 1.424h-5.639c-1.204 0-1.45-.356-1.067-1.533.301-.903.602-1.779.903-2.655.383-1.122-.082-1.724-1.286-1.614-.438.054-.904.109-1.342.219-3.257.656-2.956.492-3.968 3.394-1.041 3.01-2.108 5.994-3.121 9.005-.356 1.04-.137 1.423.904 1.67.793.19 1.614.355 2.408.492 1.15.191 1.861-.22 2.245-1.287.355-.958.684-1.943 1.012-2.9.411-1.15.986-1.616 2.217-1.616a193.43 193.43 0 015.639 0c1.067 0 1.341.41 1.012 1.396-.328 1.013-.711 1.97-1.04 2.983-.328 1.04.165 1.615 1.232 1.451a58.918 58.918 0 003.175-.575c.849-.164 1.423-.656 1.724-1.478.302-.876.63-1.779.931-2.655.958-2.682 1.889-5.364 2.847-8.02V4.995c-.904-.739-2.081-.739-3.175-.985zm-25.182 18.229c.165-.438.055-.685-.438-.794a9.57 9.57 0 00-3.53 0c-.438.082-.685.301-.849.712-.328.985-.684 1.97-1.04 2.956-.109.3-.192.602.137.848h1.013c.136-.766.574-1.013 1.368-1.013 2.409.028 2.463-.054 3.23-2.326.027-.11.055-.246.109-.383zm-3.202 1.97c-.794.137-.794-.273-.547-.93.41-1.177.739-1.423 1.806-1.205.219.055.356.11.383.356.082.904-.684 1.78-1.642 1.78zm-9.333-2.791c-.876-.192-1.752-.11-2.628-.11-1.341.027-1.505.137-1.943 1.423-.767 2.135-.904 1.998 1.505 2.19.821.055 1.095.246.985 1.04h.685c.41-.137.766-.356.903-.794.301-.958.657-1.943.985-2.9.137-.466.055-.713-.492-.85zm-1.287 1.724c-.41 1.095-.657 1.232-1.724 1.095-.192-.028-.383-.028-.438-.301-.11-.821.684-1.807 1.505-1.807 1.04-.027 1.04-.027.657 1.013z" fill="#000"/><path d="M43.958.314C42.124-.07 40.29.04 38.428.012a59.879 59.879 0 00-7.991.356c-3.477.384-6.816 1.205-9.717 3.34a13.349 13.349 0 00-4.243 5.145c-.3.602-.137.821.52.794.548-.027 1.068 0 1.615 0 3.777.055 7.555-.082 11.332.082 1.259.055 2.244-.493 2.846-1.67.493-.93 1.013-1.833 1.478-2.791.438-.876 1.123-.986 1.998-.849 2.847.438 3.832 3.34 3.559 5.392-.301 2.053-1.369 3.723-2.71 5.228-2.655 2.956-5.83 5.146-9.47 6.651-.356.137-1.04.192-.849.74.137.41.767.218 1.15.109 6.952-1.807 12.618-5.392 16.176-11.797 1.286-2.327 2.162-4.817 2.162-7.554 0-1.643-.739-2.546-2.326-2.874zm110.688 9.443c-2.217-.11-4.407-.247-6.651-.055-2.3.191-4.571.492-6.816.958-.848.191-1.396.711-1.669 1.533-.384 1.177-.822 2.353-1.232 3.53-.712 2.053-.575 2.3 1.533 2.765 5.802 1.232 11.578.848 17.325-.356.822-.164 1.342-.657 1.615-1.478 1.205-3.504 2.409-6.98 3.613-10.456.356-1.067.11-1.532-1.012-1.779-3.093-.739-6.214-1.04-9.389-.958-2.819.055-5.611.383-8.375.93-1.369.275-2.108.959-2.409 2.273-.191.848-.027 1.204.849 1.423.985.246 1.998.438 3.011.602 1.122.219 1.313.082 1.724-.958.383-.985.93-1.341 2.025-1.368h6.241c.438 0 .848.136.848.63.028.93-.438 1.75-.739 2.6-.027.273-.301.19-.492.164zm-.794 4.187c-.11.329-.219.657-.328.958-.329.821-.931 1.287-1.807 1.287h-6.46c-.821 0-1.067-.329-.957-1.123.273-1.833.957-2.408 2.764-2.408h2.628c1.067 0 2.162-.027 3.229 0 1.013.055 1.232.356.931 1.286zM93.964 4.42c-3.038-.74-6.103-1.014-9.196-.959-2.874.055-5.72.383-8.54.958-1.341.274-2.08.986-2.409 2.3-.191.738.082 1.149.74 1.368.985.301 1.998.465 3.01.63 1.287.218 1.45.136 1.944-1.04.328-.822.903-1.26 1.833-1.26.986.028 1.998 0 2.984 0h3.34c.629 0 1.012.301.875.93-.164.74-.438 1.479-.684 2.19-.083.274-.329.247-.575.247-2.19-.137-4.352-.246-6.542-.082-2.326.191-4.626.492-6.897.958-.849.164-1.396.684-1.67 1.505-.465 1.424-.985 2.847-1.478 4.27-.383 1.15-.192 1.505 1.013 1.834 2.025.575 4.133.821 6.213.903 3.914.164 7.773-.219 11.605-.985.958-.192 1.588-.684 1.889-1.615 1.177-3.476 2.381-6.925 3.558-10.401.356-1.068.11-1.478-1.013-1.752zm-7.5 9.47c-.109.328-.218.656-.328.957-.3.876-.93 1.342-1.86 1.342h-6.46c-.794 0-1.15-.383-.931-1.123.575-1.833.684-2.463 2.874-2.408.876.027 1.752 0 2.627 0 1.068 0 2.163-.027 3.23 0 .903.055 1.123.383.849 1.232zM71.602 4.474c-.739-.192-1.505-.329-2.244-.465-1.287-.247-2.08.164-2.546 1.396a134.865 134.865 0 00-1.094 3.038c-.302.848-.904 1.286-1.807 1.286h-5.803c-1.204 0-1.45-.383-1.04-1.533.301-.848.602-1.724.904-2.572.41-1.26-.055-1.862-1.396-1.67-.986.137-1.944.356-2.929.547-.766.165-1.341.602-1.615 1.341-1.286 3.64-2.545 7.281-3.804 10.949-.247.712.027 1.204.739 1.368.848.22 1.724.384 2.572.548 1.232.219 1.944-.192 2.382-1.369.355-.985.711-1.97 1.04-2.983.328-.958 1.013-1.423 1.998-1.45a206.16 206.16 0 015.885 0c.93.027 1.204.437.903 1.34-.329 1.013-.712 2.026-1.04 3.066-.301.985.191 1.56 1.231 1.423a65.284 65.284 0 003.34-.602c.793-.164 1.313-.63 1.587-1.396 1.232-3.586 2.464-7.144 3.695-10.73.22-.875-.027-1.286-.958-1.532zm27.125 12.892c1.067-3.011 2.135-6.05 3.202-9.088.438-1.231.904-1.587 2.19-1.614h2.737c.876 0 1.752.027 2.655 0 1.451-.028 1.67.3 1.204 1.642l-3.12 8.95c-.41 1.15.027 1.724 1.259 1.56 1.068-.137 2.135-.355 3.175-.575.849-.164 1.396-.738 1.67-1.56a1553.48 1553.48 0 003.585-10.291c.438-1.26.137-1.752-1.177-1.943-2.682-.411-5.392-.74-8.129-.712-2.956.027-5.884.356-8.813.712-.93.11-1.889.328-2.272 1.395-1.286 3.64-2.546 7.308-3.805 10.949-.273.794 0 1.286.794 1.478.767.192 1.56.328 2.327.493 1.368.273 2.053-.082 2.518-1.396zm17.599.93c.739.192 1.506.301 2.245.438 1.505.274 2.135-.082 2.655-1.533 1.067-3.038 2.135-6.049 3.202-9.087.383-1.067.849-1.423 1.944-1.423.958-.027 1.943 0 2.901 0h2.819c1.286 0 1.505.328 1.068 1.56-1.041 3.01-2.108 5.994-3.148 9.005-.411 1.177.027 1.697 1.259 1.56 1.04-.11 2.08-.355 3.093-.547.903-.192 1.478-.74 1.779-1.642 1.177-3.422 2.381-6.816 3.558-10.21.438-1.286.192-1.751-1.177-1.97-2.655-.411-5.337-.712-8.047-.712-3.011.027-5.994.356-9.005.712-.93.109-1.834.41-2.162 1.395-1.287 3.64-2.546 7.308-3.805 10.949-.273.821 0 1.314.821 1.505zm46.969 3.038c-.849-.027-1.697 0-2.546 0-.793 0-1.587-.027-2.381 0-.465.028-1.013 0-1.259.548a31.248 31.248 0 00-.821 2.244c-.164.466.082.684.547.712.493.027.739-.22.876-.63.192-.547.383-1.122.575-1.697.192-.52.63-.465 1.013-.383.492.137.164.493.082.767-.11.41-.246.82-.383 1.204-.247.602.027.739.574.739.438 0 .685-.22.822-.602.191-.575.383-1.123.574-1.697.219-.602.739-.52 1.15-.41.465.136.109.52.055.766-.11.41-.274.793-.411 1.204-.191.52 0 .739.548.712.437-.028.766-.192.903-.63.219-.63.438-1.286.684-1.916.274-.63 0-.903-.602-.93zm4.817 2.464c-.328-.137-.739-.274-.958 0-.438.547-.958.356-1.478.383-.219.027-.52.027-.52-.301s.246-.383.548-.356c.793.082 1.587-.082 2.353-.192.876-.109.986-.875 1.013-1.477.028-.63-.711-.493-1.122-.575-.301-.055-.63 0-.931 0h-.602c-1.834 0-1.916.054-2.545 1.834a6.824 6.824 0 01-.274.793c-.246.548 0 .767.52.876 1.15.246 2.327.192 3.476-.027.301-.055.63-.137.739-.493a.364.364 0 00-.219-.465zm-2.299-1.916h1.971l-.438.93s-1.287-.082-1.971 0l.438-.93zm-29.697 1.67c.766-.028 1.532-.11 2.271-.192.849-.11 1.013-.821 1.013-1.45 0-.63-.684-.52-1.122-.603-.329-.055-.684 0-1.013 0-2.408 0-2.408 0-3.175 2.217-.055.137-.082.274-.137.41-.219.548.028.767.548.877 1.149.246 2.326.164 3.476-.028.301-.055.629-.137.739-.492.055-.192.027-.329-.164-.438-.356-.192-.767-.302-1.041-.028-.437.41-.93.383-1.423.356-.219 0-.602.11-.575-.274 0-.355.301-.328.603-.355zm-.192-1.67h2.135l-.411.93h-1.97l.246-.93zm-36.458-.575c-2.436 0-2.436 0-3.175 2.272-.028.11-.055.219-.11.328-.246.575 0 .849.575.93.93.165 1.861.138 2.792.028.876-.11 1.369-.41 1.642-1.286.712-2.272.739-2.272-1.724-2.272zm.52 1.314c-.274 1.286-.52 1.587-1.478 1.587-.876 0-.958-.11-.684-.93.41-1.177.657-1.341 1.751-1.204.411.054.493.164.411.547zm21.897-.246c.219-.52.109-.822-.52-.959-.876-.164-1.752-.109-2.628-.082-.931 0-1.533.356-1.861 1.369-.684 2.108-.602 2.3 1.642 2.3 2.381 0 2.546-.11 3.285-2.382 0-.082.054-.164.082-.246zm-3.038 1.833c-.876 0-.931-.082-.685-.93.356-1.177.63-1.369 1.752-1.205.192.028.411 0 .438.274.137.821-.712 1.861-1.505 1.861zm6.076-2.901c-2.436 0-2.436 0-3.203 2.327-.027.11-.054.219-.109.328-.246.547 0 .794.52.876.958.191 1.889.137 2.874.055.931-.082 1.341-.466 1.615-1.314.766-2.272.794-2.272-1.697-2.272zm-1.04 2.901c-.794.137-.794-.273-.548-.93.411-1.177.63-1.341 1.725-1.204.246.027.438.054.465.355.082.93-.684 1.78-1.642 1.78zm-7.336-1.861c-.054-.602-.739-.63-1.204-.821-.739-.274-1.505-.219-2.272-.192-.602.028-1.012.302-1.177.904-.219.739-.492 1.45-.739 2.19l-.082.081c.082.083.137.22.247.247 1.587.52 3.12.273 4.516-.493.629-.383.793-1.232.711-1.916zm-1.423.301c-.055.93-.794 1.588-1.752 1.533-.301 0-.492-.082-.465-.438.027-.93.657-1.697 1.423-1.67.329.083.821-.054.794.575zm-8.43-.246c.082-.329.274-.712-.219-.849-.411-.137-.849-.191-1.068.356-.164.466-.383.904-.492 1.369-.192.794-.685 1.013-1.451.958-.52-.028-.739-.165-.52-.712.192-.465.356-.958.493-1.45.137-.439.027-.63-.466-.603-.848.028-1.04.657-1.259 1.287-.739 2.162-.684 2.271 1.588 2.244 2.956-.3 2.381.192 3.284-2.354.055-.11.082-.164.11-.246zm66.976-1.012a31.915 31.915 0 00-1.614-.11c-2.382.027-2.382.027-3.148 2.271-.055.137-.11.274-.137.411-.082.301-.274.63.164.794.411.137.876.191 1.095-.329.192-.41.383-.848.438-1.286.164-.958.766-1.122 1.588-1.04.437.055.629.164.437.63-.191.437-.355.903-.492 1.368-.192.63.027.848.657.739.356-.055.629-.246.739-.63.219-.684.465-1.34.711-1.998.274-.547 0-.766-.438-.82zm-24.059 1.067c.083-.356.411-.74-.219-.986-.602-.219-.903 0-1.094.575-.165.575-.356 1.15-.575 1.697-.164.438-1.204.684-1.67.438-.492-.274-.109-.657-.055-.985.083-.41.274-.794.384-1.205.137-.465-.055-.602-.52-.575-.821.055-.958.685-1.15 1.287-.739 2.217-1.232 2.08 1.56 2.3 2.436 0 2.491-.028 3.23-2.3a.947.947 0 00.109-.246zm28.74 1.45c-.356-.164-.766-.355-1.095 0-.41.41-.903.301-1.368.301-.411 0-.521-.164-.438-.602.136-.657.602-.657 1.094-.657.219 0 .466 0 .603-.246.082-.137.109-.383 0-.383-.657-.055-1.095-.438-1.424-.93-.027-.028-.164.026-.246.026-.876 0-.985.74-1.204 1.314-.767 2.108-.685 2.217 1.806 2.245.356-.028.985-.11 1.615-.165.356-.027.684-.136.821-.492.055-.137.028-.301-.164-.41z" fill="#000"/><path d="M109.867 23.88c-.438.356-.876.328-1.369.328-.602.028-.629-.246-.492-.766.191-.63.684-.465 1.122-.493.274-.027.547-.054.575-.383.027-.356-.274-.383-.52-.41-.219-.028-.438-.028-.575-.247-.438-.657-1.205-.63-1.506.082-.301.685-.52 1.451-.766 2.163-.082.273-.055.547.246.63 1.506.328 3.011.382 4.462-.274l.082-.083c-.219-.657-.766-.93-1.259-.547zm21.541-2.49c-.712-.083-1.424-.083-2.135-.056-1.423.028-1.642.192-2.108 1.506-.109.356-.246.684-.356 1.04-.136.356-.273.739.247.903.465.137.903.137 1.122-.438.164-.492.356-.958.52-1.45.301-.876 1.286-1.15 1.998-.52.192.164.356.246.63.218.355-.109.903-.082.93-.629.055-.602-.52-.547-.848-.575zm19.679 0c-.41.081-.821.163-.985.656-.219.657-.493 1.314-.712 1.998-.191.548.083.794.657.794.247 0 .493-.082.575-.356a50.28 50.28 0 00.931-2.627c.109-.356-.11-.52-.466-.466z" fill="#000"/></svg>