<svg width="167" height="19" fill="none" xmlns="http://www.w3.org/2000/svg"><path d="M161.022 17.067c-2.289-2.312-4.578-4.645-6.911-6.912-.667-.644-.644-1.044-.044-1.71 2.2-2.4 4.355-4.845 6.511-7.29.178-.2.466-.377.355-.644-.111-.355-.489-.267-.777-.289-1.489 0-3.023.022-4.534 0-.733-.022-1.244.245-1.733.778-1.533 1.667-3.133 3.267-4.645 4.933-.644.711-1.111.911-1.8.045-.666-.845-1.555-1.511-2.133-2.4-1.978-2.934-4.689-3.956-8.089-3.356-.355.067-.844-.133-1.022.222-.222.445.267.712.511 1 2 2.334 4 4.667 6.067 6.934.666.71.511 1.089-.111 1.689-2.356 2.288-4.667 4.644-7 7-.289.288-.511.622-.778.933h7.333l5.511-5.778c.378-.4.667-.71 1.245-.11 1.866 2 3.8 3.932 5.711 5.888h7.111c-.156-.422-.511-.645-.778-.933zM76.178.222H59.756c-.645 0-.956.267-.934.956.022.866.045 1.71 0 2.578-.044.666.267.955.867.955h2.778c4.133 0 8.289-.022 12.422 0 1.644 0 2.622 1.245 2.2 2.756-.6-.445-1.267-.6-1.978-.6-4.622 0-9.244 0-13.867.022-1.71 0-2.6.911-2.622 2.622-.022 1.845.045 3.711-.022 5.556-.044 1.244.333 2.244 1.378 2.955h15.2l.355-.11c1.067-.423 1.69-1.445 1.69-1.445v1.555h5.666c0-3.733.022-7.466-.022-11.2-.067-4.244-2.49-6.6-6.69-6.6zm-1.29 13.29h-9.555c-.71 0-1.266-.2-1.289-1.023-.022-.822.556-1.089 1.245-1.089a707.97 707.97 0 019.667 0c.688 0 1.333.267 1.333 1.044-.022.845-.645 1.067-1.4 1.067zM52.222 0h-2.889c-1.844.756-2.955 2.267-3.889 3.933-1.466 2.6-2.888 5.223-4.355 7.845-.156.289-.333.555-.6 1.022-1.022-1.867-1.978-3.578-2.933-5.311-.623-1.133-1.267-2.267-1.89-3.378C34.734 2.378 33.6.867 31.779 0h-2.89c-2.466 1.067-3.51 2.889-3.421 5.6.133 4.133.066 8.267.089 12.4h5.11c0-3.267.023-6.511.023-9.778v-1c0-.378.022-.8.489-.889.4-.066.6.245.755.556a319.5 319.5 0 012.09 3.778 1190.01 1190.01 0 013.955 7.31h4.889c1.889-3.377 3.777-6.755 5.644-10.155.133-.266.267-.533.422-.778.223-.333.4-.8.89-.688.555.133.51.644.51 1.088l.067 10.512h5.111c0-3.956-.089-7.912.067-11.867C55.71 3.31 54.867 1.2 52.222 0zm79.4 13.733h-11.778c-.888 0-1.688-.178-2.311-.866-.289-.334-.577-.778-.444-1.2.155-.49.689-.312 1.067-.312 4.377-.022 8.733-.044 13.111 0 1.044 0 1.444-.31 1.422-1.4-.089-3.4.378-2.866-2.889-2.91-3.933-.023-7.844 0-11.778-.023-.355 0-.822.156-.978-.289-.133-.355.112-.71.334-1.022.555-.8 1.378-1.044 2.311-1.044 3.222.022 6.444.044 9.667 0 3.977-.067 3.266.755 3.355-3.511.022-.712-.267-1-.978-1-4.844.044-9.711-.045-14.555.066-3.089.067-5.422 2.69-5.445 5.756-.022 2.11 0 4.222 0 6.333 0 2.111.956 3.689 2.711 4.8.556.356 1.178.6 1.778.889h16.889c0-.933.022-1.845 0-2.778 0-1.444-.022-1.489-1.489-1.489zm-23.844-3.4c-.356-.289-.111-.51.111-.71.755-.667.955-1.579 1-2.512.067-1.289.044-2.6.022-3.889-.022-.8-.355-1.51-.933-2.066-.845-.823-1.911-.934-3-.934-5.222 0-10.445-.022-15.645 0-3.71.022-3.044-.533-3.155 3.178-.022 1.044.378 1.333 1.378 1.311 4.555-.044 9.11-.022 13.644-.022.378 0 .733-.022 1.111.044.711.111 1.022.556.978 1.245-.045.644-.356 1.044-1.045 1.089-.377.022-.733.022-1.111.022H87.489c-.733 0-1.311.044-1.311 1.044.044 3.29.044 6.578.044 9.89h5.111c.023-1.845.067-3.69.045-5.534-.022-.822.289-1.111 1.089-1.089 3.177.022 6.355.044 9.533 0 1.156-.022 1.733.644 2.156 1.578.733 1.6.888 3.355 1.177 5.044h5.111c.112-.933-.177-1.844-.4-2.733-.422-1.8-.711-3.667-2.266-4.956zM22.467 1.178c0-.734-.356-.978-1.023-.956-.933 0-1.866.045-2.777-.022-1.067-.067-1.423.333-1.4 1.4.044 2.933.022 5.844 0 8.778-.023 2.333-.845 3.155-3.134 3.155h-6.11c-2.067 0-2.867-.8-2.89-2.91 0-3-.044-6 .023-9C5.178.577 4.866.132 3.778.2 2.51.267 1.267.222 0 .222v13.334C.667 15.733 2.067 17.244 4.222 18h14c2.511-1.044 4.111-2.867 4.2-5.622.134-3.734.022-7.467.045-11.2z" fill="#E2001A"/><path d="M166.244 7.133c-1.044-1.622-2.733-2.266-4.511-1.689-1.533.49-2.711 2.134-2.644 3.712.089 1.8 1.355 3.244 3.155 3.666 1.734.378 3.245-.489 4.4-2.578V7.8a3.29 3.29 0 00-.4-.667zm-1.355 4.2c-1.289 1.045-2.556 1.045-3.778 0-1.4-1.089-1.622-2.955-.467-4.266 1.156-1.311 3.223-1.423 4.467-.245 1.245 1.222 1.156 3.222-.222 4.511z" fill="#E2001A"/><path d="M164.778 8.178c.178-.622-.289-1.111-.911-1.334-.556-.2-1.156-.2-1.756-.2-.689 0-1 .334-1 1.023v3.644c.645.089.889-.244.867-.844-.022-.534 0-.956.711-.956.667.022 1.289 0 1.289.933 0 .556.266.912.889.867-.067-1.022-.4-2.044-.089-3.133zM163.511 9h-1.733V7.444h1.689s.711 0 .711.734c0 .755-.667.822-.667.822z" fill="#E2001A"/></svg>