<svg width="195" height="21" fill="none" xmlns="http://www.w3.org/2000/svg"><path d="M187.628 19.887c-2.667-2.693-5.335-5.412-8.053-8.053-.777-.751-.751-1.217-.052-1.994 2.563-2.797 5.075-5.645 7.587-8.493.207-.234.544-.44.414-.751-.129-.415-.57-.311-.906-.337-1.735 0-3.522.026-5.283 0-.854-.026-1.45.285-2.019.906-1.787 1.942-3.651 3.807-5.412 5.749-.751.828-1.295 1.061-2.098.051-.776-.983-1.812-1.76-2.485-2.796-2.305-3.418-5.464-4.61-9.426-3.91-.414.078-.984-.155-1.191.259-.259.518.311.829.596 1.165 2.33 2.719 4.661 5.438 7.069 8.079.777.829.595 1.269-.13 1.968-2.745 2.667-5.438 5.412-8.156 8.157-.337.336-.596.725-.907 1.087h8.545l6.422-6.732c.44-.466.777-.829 1.45-.13 2.175 2.33 4.428 4.583 6.655 6.862h8.286c-.181-.492-.596-.75-.906-1.087zM88.764.259H69.629c-.75 0-1.113.31-1.087 1.113.026 1.01.052 1.994 0 3.004-.051.777.311 1.114 1.01 1.114h3.237c4.816 0 9.658-.026 14.475 0 1.916 0 3.055 1.45 2.563 3.21-.699-.518-1.476-.699-2.304-.699-5.386 0-10.772 0-16.158.026-1.994 0-3.03 1.062-3.056 3.056-.026 2.149.052 4.324-.026 6.473-.051 1.45.389 2.615 1.606 3.444H87.6l.415-.13c1.243-.492 1.968-1.683 1.968-1.683V21h6.603c0-4.35.025-8.7-.026-13.05-.078-4.946-2.9-7.691-7.794-7.691zm-1.501 15.485H76.128c-.828 0-1.476-.233-1.502-1.192-.026-.958.648-1.268 1.45-1.268 3.755-.026 7.51-.026 11.264 0 .803 0 1.554.31 1.554 1.217-.026.984-.751 1.242-1.631 1.242zM60.85 0h-3.365c-2.15.88-3.444 2.641-4.532 4.583-1.709 3.03-3.366 6.085-5.075 9.14-.181.337-.389.648-.7 1.192-1.19-2.175-2.304-4.169-3.417-6.189-.725-1.32-1.476-2.64-2.201-3.936-1.088-2.02-2.408-3.78-4.532-4.79h-3.366c-2.874 1.243-4.091 3.366-3.988 6.525.156 4.817.078 9.633.104 14.45h5.956c0-3.807.026-7.588.026-11.394V8.416c0-.44.025-.933.57-1.036.465-.078.698.285.88.647a371.784 371.784 0 012.434 4.402 1363.44 1363.44 0 014.609 8.52h5.696c2.201-3.937 4.402-7.873 6.578-11.834a9.83 9.83 0 01.492-.907c.258-.388.466-.932 1.035-.802.648.155.596.75.596 1.268l.078 12.248h5.955c0-4.609-.104-9.218.078-13.827.155-3.237-.829-5.697-3.91-7.095zm92.52 16.002h-13.724c-1.036 0-1.968-.207-2.693-1.01-.336-.388-.673-.906-.518-1.398.182-.57.803-.362 1.243-.362 5.101-.026 10.176-.052 15.278 0 1.217 0 1.683-.363 1.657-1.631-.104-3.962.44-3.34-3.366-3.393-4.584-.026-9.141 0-13.724-.026-.415 0-.958.182-1.14-.336-.155-.414.13-.829.389-1.191.647-.932 1.605-1.217 2.693-1.217 3.754.026 7.509.051 11.264 0 4.635-.078 3.806.88 3.91-4.092.026-.828-.311-1.165-1.14-1.165-5.645.052-11.315-.052-16.96.078-3.599.078-6.318 3.133-6.344 6.706-.026 2.46 0 4.92 0 7.38s1.113 4.299 3.159 5.593c.647.415 1.372.7 2.071 1.036h19.68c0-1.087.026-2.15 0-3.237 0-1.683-.026-1.735-1.735-1.735zm-27.784-3.962c-.415-.336-.13-.595.129-.828.88-.777 1.113-1.838 1.165-2.926.078-1.502.052-3.03.026-4.531-.026-.933-.414-1.761-1.087-2.409-.984-.958-2.227-1.087-3.496-1.087-6.085 0-12.17-.026-18.229 0-4.325.026-3.548-.622-3.677 3.703-.026 1.217.44 1.553 1.605 1.528 5.308-.052 10.617-.026 15.899-.026.44 0 .854-.026 1.295.051.828.13 1.191.648 1.139 1.45-.052.751-.414 1.217-1.217 1.27-.44.025-.855.025-1.295.025h-15.899c-.854 0-1.527.052-1.527 1.217.051 3.832.051 7.665.051 11.523h5.956c.026-2.15.078-4.298.052-6.448-.026-.958.336-1.294 1.269-1.268 3.702.025 7.405.051 11.108 0 1.347-.026 2.02.75 2.512 1.838.854 1.864 1.036 3.91 1.372 5.878h5.956c.129-1.088-.207-2.15-.466-3.185-.492-2.097-.829-4.273-2.641-5.774zM26.179 1.372c0-.854-.414-1.139-1.191-1.113-1.088 0-2.175.052-3.237-.026-1.243-.078-1.657.388-1.631 1.631.051 3.418.025 6.81 0 10.229-.026 2.718-.984 3.676-3.651 3.676H9.348c-2.408 0-3.34-.932-3.367-3.392 0-3.495-.051-6.991.026-10.487C6.033.673 5.671.155 4.402.233 2.926.311 1.476.259 0 .259v15.536c.777 2.538 2.408 4.299 4.92 5.18h16.313c2.926-1.218 4.79-3.341 4.894-6.552.155-4.35.026-8.7.052-13.05z" fill="#EC2026"/><path d="M193.713 8.312c-1.217-1.89-3.185-2.641-5.257-1.968-1.787.57-3.159 2.486-3.081 4.324.103 2.098 1.579 3.78 3.677 4.273 2.019.44 3.78-.57 5.127-3.004V9.09a3.9 3.9 0 00-.466-.777zm-1.58 4.894c-1.502 1.217-2.978 1.217-4.402 0-1.631-1.269-1.89-3.444-.544-4.972 1.347-1.527 3.755-1.657 5.205-.285 1.45 1.425 1.347 3.755-.259 5.257z" fill="#EC2026"/><path d="M192.004 9.529c.207-.725-.337-1.295-1.062-1.554-.647-.233-1.346-.233-2.046-.233-.802 0-1.165.389-1.165 1.191v4.247c.751.104 1.036-.285 1.01-.984-.026-.621 0-1.113.829-1.113.776.025 1.501 0 1.501 1.087 0 .648.311 1.062 1.036 1.01-.077-1.191-.466-2.382-.103-3.651zm-1.476.958h-2.02V8.674h1.968s.829 0 .829.855c0 .88-.777.958-.777.958z" fill="#EC2026"/></svg>