<svg width="177" height="32" fill="none" xmlns="http://www.w3.org/2000/svg"><path d="M0 0h27.928c.21 0 .342.079.315.315V31.08H.29c-.21 0-.263-.052-.263-.262C0 20.519 0 10.246 0 0zm1.314 15.501v13.872c0 .42 0 .42.42.42h24.749c.42 0 .42 0 .42-.42V1.655c0-.42 0-.42-.42-.42H1.76c-.446 0-.446 0-.446.446v13.82zm157.479-.946c.473-.604.972-1.235 1.445-1.839 1.655-2.075 3.284-4.151 4.939-6.253a.676.676 0 01.578-.263h5.045c.105 0 .236-.052.289.053.052.131-.079.21-.158.289-2.102 2.68-4.177 5.36-6.279 8.04-.184.236-.158.393 0 .63 2.207 3.126 4.387 6.253 6.594 9.38.053.078.158.13.105.236-.052.105-.184.052-.262.052h-6.069c-.211 0-.316-.052-.447-.236l-4.414-6.384c-.447-.63-.867-1.262-1.314-1.892-.026-.053-.052-.131-.157-.131-.053.105-.026.236-.026.341v7.882c0 .42 0 .42-.395.42h-9.326c-.237 0-.368-.078-.447-.315-1.524-4.125-3.074-8.25-4.598-12.348-.026-.079-.026-.184-.131-.237-.105.132-.131.29-.21.447-1.445 4.046-2.969 8.092-4.493 12.112-.079.236-.21.341-.473.341-1.603-.026-3.205 0-4.782 0-.367 0-.367 0-.236-.341 1.235-3.074 2.443-6.174 3.678-9.248 1.156-2.89 2.286-5.78 3.416-8.67.131-.316.289-.447.63-.42 1.708.026 3.416.026 5.123 0 .263 0 .395.078.5.34a3720.069 3720.069 0 006.121 15.37c0 .027.026.053.079.08V6.673c0-.473 0-.473.473-.473h4.755c.394 0 .394 0 .394.394v7.935c.027 0 .053.026.053.026zM73.38 11.98c-.42 1.104-.814 2.181-1.235 3.258-1.156 3.1-2.338 6.174-3.494 9.274-.105.29-.263.368-.552.368H53.097c-.446 0-.446 0-.446-.42V6.647c0-.42 0-.42.42-.42h4.782c.42 0 .42 0 .42.42v13.74c0 .421 0 .421.42.421h5.544c.29 0 .42-.105.526-.368 1.839-4.624 3.678-9.274 5.49-13.898.106-.237.21-.315.473-.315h5.255c.263 0 .394.078.473.315 2.39 5.99 4.755 11.98 7.146 17.97.026.053.026.106.053.132.078.184.052.289-.158.263h-4.86c-.29 0-.42-.08-.5-.342-1.55-4.099-3.1-8.223-4.65-12.322.026-.079.026-.184-.105-.263zm-25.248 2.654c.762.341 1.445.683 2.05 1.208.971.867 1.418 1.971 1.523 3.232.105 1.655-.263 3.153-1.419 4.388-.893.92-1.997 1.418-3.258 1.418-3.81.027-7.645 0-11.455.027-.262 0-.341-.08-.341-.342V6.568c0-.263.079-.368.341-.368 3.39 0 6.752 0 10.142.027 1.26 0 2.47.262 3.468 1.05.972.762 1.445 1.813 1.55 3.022a4.123 4.123 0 01-.316 2.102c-.341.814-.945 1.418-1.707 1.891-.184.106-.342.21-.578.342zm-7.304 4.624v1.918c0 .263.079.341.341.341.999-.026 1.971 0 2.97 0 1.103 0 2.075-.945 2.127-2.023.08-1.182-.735-2.233-1.891-2.338-1.104-.131-2.233-.026-3.337-.052-.21 0-.21.131-.21.289.026.578 0 1.234 0 1.865zm0-7.62v1.735c0 .236.079.315.315.315h2.733c1.05 0 1.918-.867 1.97-1.944.053-1.051-.71-1.97-1.76-2.076-1.025-.105-2.023-.026-3.048-.052-.21 0-.21.105-.21.263.026.578 0 1.156 0 1.76zm63.738 4.625v8.197c0 .42 0 .42-.421.42h-4.86c-.394 0-.394 0-.394-.394V6.621c0-.42 0-.42.42-.42h4.861c.394 0 .394 0 .394.42v8.013c.289-.342.499-.63.735-.92 1.866-2.39 3.757-4.781 5.623-7.172.184-.237.368-.342.683-.342 1.681.027 3.363 0 5.044 0 .105 0 .237-.052.289.053.053.105-.078.184-.131.263-1.97 2.548-3.967 5.07-5.964 7.619-.184.236-.499.446-.499.735-.026.263.289.5.446.736 2.023 2.89 4.047 5.754 6.07 8.644.078.105.157.21.21.315.052.079.184.158.105.29-.053.078-.184.052-.289.052h-3.153c-.893 0-1.813-.027-2.706 0-.315 0-.499-.08-.683-.342l-3.705-5.36c-.683-.972-1.366-1.97-2.049-2.942h-.026zm-7.094 5.754v1.76c0 .184-.052.289-.236.368-1.314.604-2.68.998-4.125 1.077a13.114 13.114 0 01-4.283-.394c-3.074-.788-5.097-2.68-6.016-5.728-.736-2.47-.788-4.965.079-7.409.814-2.312 2.417-3.888 4.65-4.834 1.918-.84 3.941-1.024 6.017-.788 1.26.158 2.47.473 3.625.998.184.08.263.21.263.394v3.469c0 .341-.026.341-.342.183-1.234-.63-2.522-1.077-3.914-.998-2.733.131-4.782 1.76-5.229 4.545-.289 1.813.184 3.468 1.472 4.834.814.867 1.839 1.314 2.995 1.498 1.55.263 2.969-.131 4.361-.762.657-.315.657-.315.657.42.026.473.026.92.026 1.367zm34.26-1.13v3.652c0 .368-.026.394-.394.394h-5.202c-.315 0-.368-.105-.368-.394V17.34a1.19 1.19 0 00-.184-.657c-2.102-3.336-4.177-6.7-6.253-10.062a.536.536 0 00-.105-.158c-.105-.158-.079-.263.131-.263h4.966c.368 0 .552.105.762.42 1.13 1.814 2.312 3.626 3.468 5.44.21.314.21.314.42 0 1.183-1.84 2.365-3.705 3.547-5.544.131-.184.263-.29.499-.29h5.018c.105 0 .211-.052.289.053.079.105-.052.21-.105.29-2.075 3.362-4.177 6.699-6.253 10.035-.157.237-.21.473-.21.736-.026 1.182-.026 2.365-.026 3.547z" fill="#000"/><path d="M177 9.143c0 1.708-1.366 3.048-3.1 3.048-1.655 0-2.995-1.367-2.995-3.074a3.095 3.095 0 013.074-3.074c1.629 0 3.021 1.418 3.021 3.1zm-.473 0c.026-1.471-1.13-2.627-2.627-2.654-1.419-.026-2.601 1.183-2.601 2.601 0 1.445 1.156 2.628 2.601 2.628a2.558 2.558 0 002.627-2.575zM16.998 3.573c-.63.026-1.156.21-1.576.657 1.866-.026 3.127.394 3.573 1.208-.552-.105-1.103-.21-1.655.053.736.105 1.445.21 2.102.447.184.052.184-.027.184-.158-.027-.263-.132-.5-.237-.762-.446-.998-.578-2.023-.315-3.1.053-.184.053-.447.29-.447.262 0 .21.29.262.447.236.92.657 1.708 1.235 2.443.262.342.551.683.761 1.051.29.526.473 1.077.368 1.682-.026.157.08.236.184.315.92.736 1.682 1.603 2.18 2.68.027.079.08.157.106.236 0 .027 0 .053.026.158-.315-.21-.578-.42-.945-.526.341.473.525.973.656 1.498.027.131.132.184.237.236.578.342 1.13.657 1.707.999.158.079.29.184.42.315.132.158.264.315.185.552-.08.236-.316.289-.526.315-.42.026-.84.053-1.26.053-.29 0-.579.026-.894 0-.21 0-.236.078-.158.262.394 1.078.604 2.155.552 3.31 0 .185-.026.395-.105.657-.42-.814-.788-1.576-1.629-2.049.21.552.368 1.077.447 1.603.341 1.813-.132 3.442-1.051 4.965-.184.316-.42.631-.42 1.025 0 .21-.158.105-.237.053-.237-.184-.342-.447-.342-.762 0-.368.027-.71 0-1.078a1.93 1.93 0 00-.315-.893c-.052.447-.079.867-.131 1.314-.132 1.024-.368 2.05-.867 2.969-.184.341-.394.657-.71.893-.052.053-.105.105-.184.079-.078-.026-.052-.131-.052-.184-.026-.473-.053-.92-.29-1.445-.13 1.182-.446 2.207-1.155 3.074-.263.315-.552.604-.972.762.446-.605.552-1.261.446-2.05-.367 1.051-.893 1.84-1.891 2.26 0-.079-.027-.105-.027-.131.053-.158.158-.316-.052-.42-.158-.08-.315.052-.447.157-.262.263-.21.736.105 1.077.053.053.158.079.132.184-.026.105-.158.079-.237.079-1.024 0-1.839-.447-2.417-1.261-.63-.867-.893-1.866-1.077-2.89 0-.027-.026-.08-.026-.158-.316.263-.342.604-.394.92-.027.21 0 .42 0 .656 0 .08.079.184-.027.237-.105.052-.184-.053-.236-.131a6.77 6.77 0 01-1.209-1.76c-.525-1.183-.762-2.418-.84-3.732-.132.027-.184.132-.237.237-.236.42-.315.867-.315 1.366 0 .736-.342 1.261-.972 1.629-.079.053-.158.105-.29.079.053-.184.106-.368.132-.552.132-.762 0-1.497-.21-2.207-.473-1.629-.394-3.231.131-4.808v-.131c-.814.604-1.313 1.392-1.629 2.312-.394-1.892-.394-3.705 1.078-5.255-.605.105-1.104.316-1.55.657-.447.342-.815.762-.973 1.34-.157-.105-.157-.236-.157-.368-.053-.552-.053-1.13.21-1.629.079-.184.079-.236-.131-.236-.394 0-.789-.026-1.183-.053-.262-.026-.525-.026-.604-.315-.105-.315.079-.525.263-.683.42-.315.893-.552 1.366-.815.473-.289.972-.578 1.445-.84.105-.053.184-.105.21-.21.158-.473.42-.894.762-1.288.053-.052.158-.105.105-.184-.052-.105-.157-.026-.236 0-.184.027-.316.132-.473.237-.053.026-.132.131-.21.052-.053-.052-.027-.131 0-.184.21-.814.604-1.47 1.34-1.944.105-.052.262-.079.21-.236-.053-.158-.21-.105-.316-.08-.183 0-.394.053-.656.106.157-.315.367-.473.604-.63.21-.132.315-.29.341-.526.106-.552.42-1.025.762-1.471.762-.946 1.393-1.944 1.63-3.153.026-.105.052-.21.21-.21.13 0 .183.105.21.21.289.788.289 1.603.078 2.39a5.73 5.73 0 01-.42 1.183 1.72 1.72 0 00-.131.815c0 .13.052.21.184.21.604.026 1.182-.08 1.734-.552a8.345 8.345 0 01-.657.105c-.105 0-.21-.026-.315-.052-.106-.027-.263-.053-.263-.158-.026-.131.157-.131.236-.158.158-.079.29-.157.368-.341.368-.815 1.419-1.051 2.076-.946.315.052.657.131 1.024.21-.289-.63-.814-.604-1.313-.657.236-.236.551-.341.867-.394.551-.079 1.024.053 1.418.473.132.131.21.131.368.026.71-.473 1.471-.63 2.286-.446.105-.027.21-.027.341.131zM8.906 2.417c-.341.972-.893 1.813-1.523 2.601a4.945 4.945 0 00-.42.604c-.579.92-.447 1.945.34 2.706.29.263.605.5.947.684.105.052.289.078.289.262 0 .158-.158.21-.263.29-1.55.893-3.1 1.786-4.624 2.68-.526.288-1.077.55-1.603.919-.079.052-.184.131-.157.262.052.105.184.08.262.08 1.34.078 2.654.104 3.994.052 1.576-.053 2.548-1.235 2.89-2.365.052-.131.026-.368.236-.341.21.026.132.236.184.367v.053c-.052.657-.079 1.287-.289 1.918a1.99 1.99 0 000 1.235c.132.499.368.972.762 1.26.657.5.815 1.21.92 1.945.026.158.052.315.105.473.236 1.025.289 2.023-.105 3.021-.053.105-.053.237-.053.342-.026.736.552 1.55 1.287 1.813.526.21 1.078.236 1.656.236.289 0 .394-.079.394-.394V8.854c0-.263-.053-.342-.342-.342-.657.027-1.34-.078-1.97-.184-.946-.183-1.892-.42-2.706-.998-.736-.525-.972-1.261-.683-2.128l.236-.63c.263-.657.394-1.393.236-2.155zm9.643 11.114h-.08a4.59 4.59 0 01-1.76.945c-.157.027-.13.132-.105.237.08.289.184.552.263.84.053.184.131.237.315.132.526-.315.973-.71 1.209-1.287.105-.237.184-.552.158-.867zm-2.339 8.118c-.341 0-.551.184-.551.473 0 .315.21.551.499.551.341 0 .578-.21.578-.472.026-.316-.21-.552-.526-.552z" fill="#000"/><path d="M174.53 9.274c.5.394.736.92 1.051 1.419.105.131.053.21-.105.21-.263.027-.473-.052-.604-.289-.158-.315-.394-.604-.578-.893-.263-.394-.657-.42-1.077-.394-.158 0-.158.131-.158.236v1.051c0 .21-.079.29-.289.29-.236 0-.263-.132-.263-.29V7.593c0-.21.053-.315.289-.315.526 0 1.051 0 1.577.026.788.052 1.208.683.946 1.366-.106.315-.421.473-.789.604zm-.709-1.55c-.814.026-.736-.105-.736.657v.263c0 .131.053.21.211.21.367 0 .761.026 1.129-.053.263-.052.447-.236.447-.499s-.158-.446-.42-.525c-.237-.053-.473-.08-.631-.053zM9.747 13.425c.053.027.105.053.158.105.473.447 1.025.71 1.629.894.21.052.262.131.184.341-.105.316-.184.605-.29.92-.052.131-.104.236-.262.131-.762-.446-1.366-1.024-1.524-1.944-.026-.105 0-.236 0-.341 0-.053.026-.08.105-.106zm2.286 9.301c-.368 0-.578-.236-.578-.578a.63.63 0 01.604-.604c.316 0 .605.262.605.551-.027.368-.29.631-.631.631z" fill="#000"/></svg>