<svg width="192" height="70" fill="none" xmlns="http://www.w3.org/2000/svg"><path d="M.028 17.6c.34-1.726.17-3.48.34-5.205C.65 9.737.735 7.078.905 4.42c.028-.367 0-.735.453-1.13a312.174 312.174 0 012.771 3.733c.99 1.329 2.008 2.658 2.97 4.044.368.51.707.622 1.301.34 4.808-2.376 9.73-2.603 14.792-.962.764.254 2.065-.594 2.122-1.386.028-.566-.481-.48-.792-.566-4.47-1.47-8.966-1.33-13.463-.056-.368.113-.736.34-1.216.198 0-.453.396-.481.65-.623 4.27-2.206 8.824-3.422 13.604-3.818 1.415-.113 2.8-.254 4.215-.198.678.029 1.103-.283 1.499-.792a46.128 46.128 0 012.036-2.63c.198-.226.311-.707.735-.537.34.113.227.509.255.791.085.849.198 1.697.198 2.546 0 .735.283.99 1.046 1.103 10.437 1.527 18.667 6.477 24.211 15.556 2.659 4.384 4.016 9.192 4.412 14.311.594 7.75-1.131 14.906-5.43 21.354-5.091 7.665-12.275 12.19-21.298 13.83a63.02 63.02 0 01-2.29.397h-7.58c-.255-.057-.51-.142-.736-.17-7.92-1.103-14.736-4.384-20.166-10.323-.311-.34-.764-.623-.792-1.16.424-.283.792 0 1.16.113 1.838.51 3.677.905 5.572.82 3.96-.198 6.93-1.895 8.768-5.487.707-1.357 1.187-2.8 1.64-4.242 1.103-3.62 2.941-6.788 5.826-9.305 1.584-1.386 3.083-2.885 4.639-4.328 4.666-4.468 5.741-9.842 4.016-15.923-.594-2.065-1.527-3.988-3.055-5.572.849 3.45 1.273 6.901 1.188 10.437-.056 2.686-.848 5.09-2.489 7.212-1.64 2.15-3.733 3.818-5.713 5.6-2.8 2.517-5.063 5.374-6.392 8.966-.537 1.47-.792 2.998-1.47 4.44-.651 1.386-1.726 1.98-3.197 1.98-1.555 0-2.602-.735-3.11-2.206-.284-.877-.595-1.754-.793-2.659-.961-4.384-3.054-8.06-6.731-10.804-2.037-1.527-3.196-3.677-3.677-6.166C.368 30.073.198 28.97 0 27.867c.028-3.451.028-6.845.028-10.268zm11.568 15.612c-.707-1.216-1.725-1.952-2.885-2.546-.424-.198-.877-.565-1.3-.084-.453.48-.821 1.046-.821 1.753 0 .283.255.481.51.481 1.498.056 2.997.255 4.496.396zm164.157 21.241v8.824c0 1.584-.566 2.913-1.81 3.903-1.414 1.132-3.027 1.358-4.695.65-1.895-.82-2.8-2.347-2.914-4.383-.056-1.584-.028-3.196-.028-4.78 0-5.346-.028-10.691 0-16.008.028-3.197 2.15-5.261 5.176-5.063 1.64.113 2.715 1.046 3.592 2.32 2.319 3.393 4.582 6.815 6.901 10.238.17.254.283.622.764.763v-5.232c0-1.188-.028-2.376 0-3.564.056-2.602 2.121-4.582 4.78-4.553 2.46.028 4.44 2.036 4.468 4.61.029 7.014 0 14.028 0 21.014 0 2.49-1.103 4.13-3.196 4.78-2.093.65-4.129-.113-5.487-2.121-2.29-3.422-4.525-6.873-6.816-10.295-.141-.283-.339-.566-.735-1.103zm-99.077 3.592v5.402c-.028 2.772-2.093 4.893-4.723 4.893-2.602 0-4.695-2.065-4.695-4.808-.028-7.043-.028-14.085 0-21.156 0-2.574 1.81-4.667 4.384-4.724 3.648-.113 7.353-.339 11.002.17 4.723.622 8.146 3.649 9.05 7.835.877 4.016-.678 7.806-4.157 9.984-.735.48-.65.792-.226 1.357.961 1.273 1.923 2.546 2.828 3.875 2.121 3.14.51 6.873-3.196 7.382-2.036.283-3.592-.65-4.723-2.32-1.669-2.403-3.31-4.836-4.978-7.24-.142-.113-.255-.254-.566-.65zm2.291-7.778c.566 0 1.103.056 1.669 0 .99-.113 1.697-.877 1.753-1.81.057-1.047-.396-1.782-1.442-2.065-1.188-.34-2.404-.17-3.62-.198-.481 0-.65.283-.65.707v1.103c.027 2.574-.312 2.263 2.29 2.263zm65.08 2.63V42.66c0-3.112 1.952-5.063 5.091-5.063 4.045 0 8.089-.028 12.134 0 2.347.028 4.044 1.612 4.412 3.931.311 1.952-1.018 4.045-2.942 4.724-.622.226-1.301.31-1.979.31-2.037-.028-4.073.029-6.11-.028-.876-.028-1.159.311-1.159 1.188 0 .849.396 1.075 1.159 1.075 1.556-.028 3.112-.028 4.667 0 2.263.057 3.62.99 4.214 2.8.792 2.433-.961 4.95-3.535 5.006-1.81.057-3.649.057-5.459 0-.99-.028-1.075.51-1.046 1.245 0 .763-.029 1.414 1.046 1.386 1.923-.057 3.847-.029 5.798 0 1.188.028 2.376.17 3.394.876 1.584 1.103 2.32 2.998 1.839 4.752-.538 1.895-2.065 3.253-4.016 3.28-4.498.057-8.995.086-13.463 0-2.206-.027-3.988-2.177-4.017-4.694-.056-3.507-.028-7.014-.028-10.55zM129.453 31.43c0 2.376-1.499 4.3-3.535 4.695-2.32.481-4.441-.622-5.346-2.772a6.144 6.144 0 01-.339-.933c-.198-.735-.623-.962-1.386-.962-2.461.029-4.893.057-7.354 0-.905-.028-1.358.283-1.584 1.16-.509 1.895-1.697 3.224-3.705 3.535-3.649.594-6.505-2.658-5.232-6.137 1.103-3.026 2.489-5.968 3.733-8.91 1.499-3.478 2.97-6.957 4.469-10.436.311-.735.65-1.499 1.075-2.206 1.159-2.036 2.998-2.97 5.26-2.885 2.263.085 3.932 1.273 4.837 3.366 2.093 4.836 4.129 9.673 6.194 14.538.848 2.008 1.697 4.044 2.545 6.052.283.65.425 1.33.368 1.895zm-14.198-13.067c-.085-.028-.17-.028-.255-.056-.594 1.668-1.188 3.337-1.81 4.978-.17.509.028.678.509.678.933 0 1.867-.028 2.772 0 .707.029.707-.31.509-.848-.566-1.556-1.16-3.14-1.725-4.752z" fill="#EC2026"/><path d="M91.497 63.475c-.114-.82.254-1.64.622-2.46 2.687-6.308 5.402-12.615 8.089-18.922.82-1.952 1.923-3.592 4.101-4.243 2.8-.82 5.459.311 6.731 3.083 1.726 3.762 3.31 7.608 4.922 11.427 1.216 2.856 2.432 5.741 3.648 8.598.481 1.131.877 2.263.594 3.564-.481 2.093-1.98 3.478-4.044 3.733-1.98.255-4.101-.764-4.724-2.743-.565-1.839-1.612-2.15-3.252-2.037-1.952.142-3.932.057-5.883 0-.877-.028-1.329.255-1.584 1.131-.566 1.895-1.725 3.253-3.818 3.564-2.97.481-5.402-1.612-5.402-4.695zm14.481-13.095c-.085.028-.198.028-.283.056a302.886 302.886 0 01-1.669 4.696c-.226.593-.141.933.594.933h2.659c.396 0 .679-.113.509-.594a368.869 368.869 0 00-1.81-5.091zm23.22 3.507c1.358-3.507 2.574-6.731 3.819-9.956.424-1.131.848-2.29 1.301-3.422.848-2.15 2.969-3.28 5.204-2.857 2.262.425 3.705 2.206 3.733 4.582 0 .792-.085 1.556-.396 2.291-2.63 6.42-5.232 12.84-7.834 19.261-.99 2.404-2.376 4.243-5.261 4.469-2.743.226-5.006-.962-6.081-3.507-2.828-6.788-5.572-13.576-8.315-20.392-.849-2.15-.226-4.526 1.386-5.77 1.64-1.273 3.931-1.273 5.713-.029.82.594 1.273 1.443 1.612 2.348 1.527 3.988 3.083 7.948 4.639 11.936.113.254.254.509.48 1.046zM67.23 20.739V10.387c0-2.97 1.923-4.865 4.864-4.893h12.02c2.49 0 4.385 1.725 4.554 4.101.17 2.32-1.499 4.356-3.931 4.724-2.206.31-4.44.141-6.675.113-1.018 0-1.442.283-1.442 1.386 0 1.074.424 1.329 1.385 1.3 1.64-.056 3.253-.028 4.894 0 2.517.029 4.327 1.783 4.299 4.102-.029 2.376-1.754 3.988-4.271 4.016-1.697 0-3.423.028-5.12 0-.848-.028-1.187.255-1.16 1.131.057 1.64.03 3.253 0 4.893-.027 2.885-2.035 4.922-4.807 4.893-2.687-.028-4.639-2.093-4.639-4.92 0-3.508.029-6.987.029-10.494zm84.397.085c0-3.479-.056-6.986 0-10.465.057-3.733 3.592-5.94 6.873-4.356 1.725.849 2.545 2.291 2.545 4.215v15.584c0 1.499 0 1.499 1.556 1.499 1.867 0 3.705-.029 5.572 0 2.404.028 4.271 1.725 4.44 3.96.198 2.517-1.329 4.497-3.874 4.836-2.659.367-5.346.113-8.005.141-1.64.029-3.252.142-4.893-.113-2.63-.396-4.214-2.206-4.242-4.865.028-3.45.028-6.957.028-10.436zm-21.41 0V10.472c0-2.913 1.895-4.95 4.553-4.978 2.8 0 4.865 2.008 4.865 4.95.028 4.921 0 9.87 0 14.792 0 2.348-.17 2.036 2.121 2.065h4.893c2.291.028 4.158 1.782 4.328 4.1.169 2.179-1.443 4.271-3.621 4.668-.961.17-1.923.197-2.885.197-3.422-.084-6.816.199-10.238-.17-2.376-.254-4.045-2.12-4.073-4.524.057-3.536.085-7.156.057-10.748z" fill="#EC2026"/><path d="M100.915 18.73c-.113 2.405.17 5.375-.141 8.345-.623 5.486-4.61 9.248-10.182 9.474-2.8.114-5.544-.198-8.061-1.612-2.235-1.244-3.394-3.45-2.829-5.487.764-2.913 3.508-4.214 6.28-2.97.876.396 1.696.934 2.658 1.104 1.952.31 2.715-.312 2.715-2.263.029-4.667 0-9.334 0-14.029 0-1.923.368-3.676 2.121-4.864 2.857-1.952 6.591-.481 7.298 2.913.113.565.169 1.188.169 1.753-.028 2.348-.028 4.724-.028 7.637zm23.164-12.698c0 1.074-.99 2.008-2.121 2.008-.99 0-1.867-.934-1.895-1.952 0-1.018.962-2.008 1.98-2.008 1.074-.056 2.036.905 2.036 1.952zm-11.172 30.15c1.018 0 1.952.961 1.952 2.008 0 1.046-.905 1.923-2.008 1.923-1.132 0-1.952-.82-1.98-1.952 0-1.102.877-1.98 2.036-1.98zm-2.828-30.066c-.028 1.019-1.018 1.924-2.065 1.895-1.103-.028-1.895-.933-1.838-2.064.056-1.047.905-1.923 1.923-1.923 1.075.028 2.008.99 1.98 2.092zM98.794 40.113c-1.047-.056-1.952-1.046-1.895-2.093.056-1.075 1.046-1.923 2.121-1.81.99.085 1.867 1.047 1.838 2.008 0 1.018-1.018 1.952-2.064 1.895z" fill="#EC2026"/></svg>