<svg width="20" height="10" fill="none" xmlns="http://www.w3.org/2000/svg"><path d="M15.156.02h4.596c.01 0 .036-.015.036.016-.01.01-.026.015-.036.026l-.422.422c-.314.324-.639.638-.952.962-.294.304-.592.602-.89.9-.31.31-.619.629-.927.943-.294.298-.592.597-.89.895-.186.19-.381.376-.562.572-.118.128-.252.252-.375.375-.294.299-.587.592-.88.885-.15.15-.299.304-.448.459-.16.164-.324.324-.484.488-.293.294-.592.587-.88.886-.185.19-.38.37-.561.571-.118.129-.247.247-.37.37-.289.299-.587.592-.88.886L9.905 10h-.051c-.083-.093-.175-.175-.253-.273-.087-.108-.195-.195-.293-.293a74.255 74.255 0 00-.9-.9c-.284-.284-.556-.567-.85-.845-.051-.046-.082-.108-.134-.16-.252-.246-.494-.499-.751-.746-.088-.082-.17-.175-.252-.262-.247-.247-.494-.49-.736-.736-.144-.15-.299-.293-.438-.448-.149-.17-.324-.324-.483-.489-.294-.298-.592-.592-.89-.89-.31-.314-.629-.623-.932-.942-.289-.304-.592-.597-.89-.896-.274-.272-.551-.55-.835-.818-.113-.108-.216-.231-.329-.345C.71.777.534.597.35.422.24.319.138.206.035.098.004.067-.006.04.004 0h4.611c.072.093.155.18.237.268.072.077.15.144.226.22.222.222.448.438.66.665.076.082.159.154.241.237.299.298.597.591.885.9.227.242.469.463.695.7.067.072.144.14.216.211.232.232.469.458.69.7.072.077.15.144.221.216.119.119.247.237.355.366.098.118.222.221.33.34.062.071.134.133.2.195.093.088.18.18.273.268.036.036.057.036.083-.01a.206.206 0 01.051-.062l.304-.304c.298-.299.602-.597.9-.9.304-.304.608-.613.916-.917.026-.026.042-.062.073-.092.288-.289.57-.572.86-.86.292-.293.586-.587.874-.88.134-.134.268-.263.391-.402.165-.18.34-.344.51-.514.123-.098.236-.211.35-.324z" fill="#A5A5A5"/></svg>