<svg width="43" height="44" fill="none" xmlns="http://www.w3.org/2000/svg"><path d="M0 40.892c.048-.416.088-.832.144-1.248a18.02 18.02 0 012.297-6.73 18.049 18.049 0 012.072-2.858 18.966 18.966 0 012.65-2.48c.976-.745 2-1.4 3.088-1.969a22.588 22.588 0 013.954-1.6 24.58 24.58 0 014.305-.873c1.08-.12 2.153-.192 3.241-.176 1.097.016 2.185.096 3.273.248 1.785.24 3.53.664 5.218 1.297a21.555 21.555 0 013.93 1.928 19.923 19.923 0 012.688 2.009 18.38 18.38 0 013.481 4.145 18.046 18.046 0 011.657 3.457c.44 1.265.728 2.57.888 3.906.104.856.12 1.704.112 2.56 0 .377-.16.545-.536.553-.784.008-1.569.008-2.36 0-.377 0-.529-.152-.545-.528-.016-.328-.016-.657-.016-.985-.008-.904-.136-1.792-.328-2.68a14.67 14.67 0 00-1.88-4.626c-.953-1.529-2.153-2.833-3.554-3.961a16.762 16.762 0 00-3.425-2.121c-1.2-.568-2.44-1-3.73-1.313a19.311 19.311 0 00-3.448-.52 25.518 25.518 0 00-2.473-.048c-1.337.056-2.657.2-3.962.496-1.624.36-3.176.92-4.657 1.673a16.935 16.935 0 00-2.809 1.8c-.96.76-1.825 1.625-2.593 2.585a14.795 14.795 0 00-2.096 3.522 14.591 14.591 0 00-1.009 3.713c-.104.752-.128 1.512-.128 2.273 0 .08 0 .152-.008.232-.032.344-.176.48-.52.488-.792.008-1.585 0-2.377 0-.24 0-.424-.08-.528-.312C0 42.124 0 41.509 0 40.892zm21.487-19.43c-2.24-.024-4.33-.585-6.234-1.777-2.145-1.336-3.673-3.193-4.537-5.57a9.62 9.62 0 01-.585-3.833c.112-2.289.897-4.33 2.345-6.114 1.112-1.369 2.481-2.393 4.073-3.121A12.007 12.007 0 0120.631.03c1.08-.08 2.145 0 3.209.208a11.403 11.403 0 015.026 2.344 10.594 10.594 0 013.257 4.41 9.86 9.86 0 01.72 4.153 10.185 10.185 0 01-1.92 5.578c-1.01 1.416-2.297 2.513-3.818 3.337a11.616 11.616 0 01-4.273 1.32c-.44.057-.889.08-1.345.08zm.176-3.37a6.43 6.43 0 001.257-.111c1.76-.32 3.289-1.105 4.521-2.41a7.092 7.092 0 001.689-2.952 6.82 6.82 0 00.224-2.753 7.027 7.027 0 00-1.865-3.994 7.885 7.885 0 00-4.25-2.4 8.436 8.436 0 00-3.92.096 7.755 7.755 0 00-2.994 1.52c-1.2.977-2.048 2.193-2.48 3.69a6.793 6.793 0 00.072 4.089 7.18 7.18 0 002.272 3.337c1.537 1.264 3.305 1.889 5.474 1.889z" fill="#00AEA9"/></svg>